<?xml version="1.0" encoding="UTF-8"?>
<svg viewBox="0 0 16 16" version="1.1" xmlns="http://www.w3.org/2000/svg" xmlns:xlink="http://www.w3.org/1999/xlink">
<g stroke="none" stroke-width="1" fill="none" fill-rule="evenodd">
    <g fill="#32F7C5" fill-rule="nonzero">
        <path d="M8.66666667,1.33333333 L8.66666667,2.66666667 L1.33333333,2.66666667 L1.33333333,14.6666667 L13.3333333,14.6666667 L13.3333333,7.33333333 L14.6666667,7.33333333 L14.6666667,15.3333333 C14.6666667,15.7015232 14.3681898,16 14,16 L0.666666667,16 C0.298476833,16 0,15.7015232 0,15.3333333 L0,2 C0,1.63181017 0.298476833,1.33333333 0.666666667,1.33333333 L8.66666667,1.33333333 Z M16,0 L16,5.33333333 L14.6666667,5.33333333 L14.6666667,2.276 L9.138,7.80466667 L8.19533333,6.862 L13.724,1.33333333 L10.6666667,1.33333333 L10.6666667,0 L16,0 Z"></path>
    </g>
</g>
</svg>