<?xml version="1.0" encoding="UTF-8"?>
<svg width="22px" height="22px" viewBox="0 0 22 22" version="1.1" xmlns="http://www.w3.org/2000/svg" xmlns:xlink="http://www.w3.org/1999/xlink">
<g stroke="none" stroke-width="1" fill="none" fill-rule="evenodd">
    <g transform="translate(0.000000, 0.000000)" fill="#FFFFFF" fill-rule="nonzero">
        <path d="M21.7243038,8.02051421 C21.6091983,7.92304586 12.7005907,0.63519774 12.6068354,0.571147105 C11.6706055,-0.190382368 10.3284662,-0.190382368 9.39223628,0.571147105 C9.29940926,0.64726525 0.179156101,8.10313023 0.275696203,8.02051421 C0.104864756,8.17135451 0.0049009986,8.38676462 0,8.61460702 L0,18.9741007 C0,20.4314847 1.18818565,21.6196703 2.64556962,21.6196703 L19.3544304,21.6196703 C20.8118143,21.6196703 22,20.4314847 22,18.9741007 L22,8.61460702 C21.9949861,8.38679083 21.8950423,8.17142381 21.7243038,8.02051421 Z M10.3901266,1.79275049 C10.7428692,1.50498678 11.2562025,1.50498678 11.6089451,1.79275049 L19.8399156,8.51156904 L11.5393249,13.4685311 C11.5300422,13.475029 11.5207595,13.4759572 11.5114768,13.4815269 C11.1932917,13.6565903 10.8076365,13.6565903 10.4894515,13.4815269 C10.4801688,13.4759572 10.4690296,13.475029 10.4597468,13.4694594 L2.1591561,8.51249731 L10.3910549,1.79275049 L10.3901266,1.79275049 Z"></path>
    </g>
</g>
</svg>