<?xml version="1.0" encoding="UTF-8"?>
<svg width="22px" height="22px" viewBox="0 0 22 22" version="1.1" xmlns="http://www.w3.org/2000/svg" xmlns:xlink="http://www.w3.org/1999/xlink">
<g stroke="none" stroke-width="1" fill="none" fill-rule="evenodd">
    <g transform="translate(0.000000, 0.800000)" fill="#FFFFFF" fill-rule="nonzero">
        <path d="M11,0.000574065444 C4.98935919,-0.0605041464 0.0659260554,4.75998449 -4.26325642e-16,10.7705741 C0.0228184676,15.4505803 3.06001447,19.5822977 7.52,21.0005741 C8.07000001,21.1005741 8.27,20.7705741 8.27,20.4805741 L8.27,18.6505741 C5.21,19.3005741 4.56,17.2105741 4.56,17.2105741 C4.35629657,16.5544741 3.92323219,15.9936202 3.33999999,15.6305741 C2.33999998,14.9705741 3.41999998,14.9805741 3.42,14.9805741 C4.12027975,15.0741927 4.739212,15.4831301 5.1,16.0905741 C5.74561277,17.2100796 7.16908306,17.6059823 8.3,16.9805741 C8.35590713,16.4329562 8.60389176,15.9228164 9,15.5405741 C6.56,15.2705741 4,14.3505741 4,10.2205741 C3.97818019,9.14325373 4.37624266,8.09968456 5.10999999,7.31057406 C4.77582714,6.38564245 4.81528599,5.36688682 5.22,4.47057407 C5.22,4.47057407 6.15,4.18057408 8.22000001,5.57057406 C10.021894,5.09041256 11.918106,5.09041256 13.72,5.57057406 C15.82,4.18057405 16.72,4.47057407 16.72,4.47057407 C17.124714,5.36688682 17.1641729,6.38564245 16.83,7.31057406 C17.580802,8.08522111 18.0004498,9.12178704 18,10.2005741 C18,14.3405741 15.42,15.2505741 13,15.5205741 C13.5365517,16.0415094 13.8117185,16.7752874 13.75,17.5205741 L13.75,20.4705741 C13.75,20.8205741 13.95,21.1005741 14.5,20.9905741 C18.9466587,19.5637172 21.9725241,15.4404712 22,10.7705741 C21.9340739,4.75998449 17.0106408,-0.0605041464 11,0.000574065444"></path>
    </g>
</g>
</svg>