<svg width="1946" height="968" viewBox="0 0 1946 968" fill="none" xmlns="http://www.w3.org/2000/svg">
<path d="M214.533 614.478V581.666L243.449 595.109V628.811L214.533 614.478Z" fill="black"/>
<path d="M243.446 594.915L214.043 580.72L243.446 565.512L272.848 580.72L243.446 594.915Z" stroke="black" stroke-width="2" stroke-linecap="round" stroke-linejoin="round"/>
<path d="M272.848 581.19V600.556M214.043 581.19V614.649L243.446 628.843L261.189 620.277" stroke="black" stroke-width="2" stroke-linecap="round" stroke-linejoin="round"/>
<path d="M244.449 594.968V628.426" stroke="black" stroke-width="2" stroke-linecap="round" stroke-linejoin="round"/>
<path d="M1660.24 311.81V346.383" stroke="#D6D6D6" stroke-width="2" stroke-linecap="round" stroke-linejoin="round"/>
<path d="M1660.24 371.672V484.193" stroke="#D6D6D6" stroke-width="2" stroke-linecap="round" stroke-linejoin="round"/>
<path d="M443.019 709.018V606.371L351.871 650.026V754.093L443.019 709.018Z" fill="black"/>
<g clip-path="url(#clip0_90_12105)">
<path d="M369.42 715.891L374.856 713.211L376.454 694.704C376.725 691.453 376.946 688.063 377.168 684.891L377.291 684.83C377.463 687.808 377.709 690.968 378.004 693.94L379.652 710.846L385.187 708.118L388.36 665.865L384.178 667.927L382.997 687.048C382.776 691.368 382.53 695.81 382.309 700.294L382.186 700.355C381.817 696.162 381.497 691.944 381.128 687.97L379.209 670.376L375.52 672.195L373.65 691.656C373.281 696.049 372.912 700.606 372.568 705.096L372.47 705.145L371.732 692.602L370.576 674.633L366.074 676.852L369.42 715.891ZM396.821 703.147C398.469 702.335 400.388 700.131 401.839 697.118L400.388 691.982C399.379 693.792 398.445 694.909 397.436 695.406C395.665 696.279 394.337 695.184 393.943 691.113L402.159 687.062C402.257 686.303 402.356 684.504 402.356 682.809C402.356 674.277 400.388 668.74 396.354 670.728C392.959 672.402 389.713 680.237 389.713 690.355C389.713 700.636 392.812 705.124 396.821 703.147ZM393.87 684.805C394.165 680.941 395.222 678.724 396.428 678.13C398.027 677.341 398.642 679.335 398.642 682.452L393.87 684.805ZM412.638 695.349C415.639 693.87 418.517 686.326 418.517 675.552C418.517 666.036 416.377 660.857 413.031 662.506C411.752 663.137 410.448 665.037 409.415 667.625L409.514 662.928V652.428L405.16 654.574V698.27L408.579 696.585L408.923 693.079L409.022 693.03C410.129 695.219 411.408 695.956 412.638 695.349ZM411.605 687.874C410.94 688.202 410.202 688.128 409.514 687.1V674.795C410.276 672.615 410.94 671.467 411.752 671.067C413.302 670.303 414.015 672.521 414.015 677.99C414.015 684.225 412.933 687.219 411.605 687.874ZM426.437 688.546C430.077 686.751 433.201 680.945 433.201 673.344C433.201 668.094 431.701 665.552 429.659 665.191V664.918C431.627 662.198 432.611 658.541 432.611 654.494C432.611 647.22 430.127 644.507 426.339 646.375C424.174 647.442 422.354 650.199 420.657 654.208L422.87 659.077C423.977 656.399 424.912 654.68 426.142 654.074C427.495 653.407 428.233 654.574 428.233 657.363C428.233 660.59 427.249 663.208 424.125 664.748V671.584C427.962 669.692 428.798 671.358 428.798 674.858C428.798 677.921 427.691 680.052 425.994 680.889C424.568 681.593 423.288 680.637 422.182 678.831L420.165 685.951C421.493 688.741 423.534 689.977 426.437 688.546Z" fill="white"/>
</g>
<path d="M352.701 650.009L261.553 606.006L352.701 558.861L443.849 606.006L352.701 650.009Z" stroke="black" stroke-width="2" stroke-linecap="round" stroke-linejoin="round"/>
<path d="M443.849 605.896V709.616L352.701 753.618L261.553 709.616V605.896" stroke="black" stroke-width="2" stroke-linecap="round" stroke-linejoin="round"/>
<path d="M352.871 650.604V753.325" stroke="black" stroke-width="2" stroke-linecap="round" stroke-linejoin="round"/>
<path d="M958.096 335.454L957.467 445.543L915.665 424.799V372.31L863.176 344.833V290.906L958.096 335.454Z" fill="#E9E9E9"/>
<path d="M956.367 335.278L862.076 289.758L959.51 244.346L1053.8 291.492L956.367 335.278Z" stroke="black" stroke-width="2" stroke-linecap="round" stroke-linejoin="round"/>
<path d="M1053.8 291.841V397.252L956.367 445.698L916 425M862.076 289.956V344.121" stroke="black" stroke-width="2" stroke-linecap="round" stroke-linejoin="round"/>
<path d="M956.996 335.565V442.862" stroke="black" stroke-width="2" stroke-linecap="round" stroke-linejoin="round"/>
<path d="M583.393 625.546V538.432L506.703 574.783V662.267L583.393 625.546Z" fill="#E9E9E9"/>
<path d="M543.541 519.26L581.681 538.932L505.234 575.837L428.787 538.932L467.322 518.953" stroke="black" stroke-width="2" stroke-linecap="round" stroke-linejoin="round"/>
<path d="M459.193 486.813L499.399 456.031C502.178 453.903 506.028 453.87 508.843 455.949L550.641 486.813" stroke="black" stroke-width="2" stroke-linecap="round" stroke-linejoin="round"/>
<path d="M466.795 489.021V528.584C466.795 535.748 472.602 541.555 479.766 541.555H529.706C536.869 541.555 542.677 535.748 542.677 528.584V489.021" stroke="black" stroke-width="2" stroke-linecap="round" stroke-linejoin="round"/>
<path d="M481.998 494.972L495.942 484.271L510.211 494.972L522.209 484.271" stroke="black" stroke-width="2" stroke-linecap="round" stroke-linejoin="round"/>
<rect x="518.105" y="501.849" width="8.43133" height="31.1311" rx="4.21566" fill="black"/>
<rect x="483.898" y="507.55" width="8.43133" height="25.294" rx="4.21566" fill="black"/>
<rect x="501.002" y="503.75" width="8.43133" height="29.1854" rx="4.21566" fill="black"/>
<path d="M581.681 538.432V625.423L505.234 662.328L444.3 632.912M428.787 538.432V597.497" stroke="black" stroke-width="2" stroke-linecap="round" stroke-linejoin="round"/>
<path d="M506.703 575.964V662.956" stroke="black" stroke-width="2" stroke-linecap="round" stroke-linejoin="round"/>
<path d="M1139.37 700.44L1155.99 708.229L1107.85 731.468L1060 708L1075.5 701" stroke="black" stroke-width="2" stroke-linecap="round" stroke-linejoin="round"/>
<path d="M1155.99 708.042V762.819L1107.85 786.059L1059.72 762.819V708.042" stroke="black" stroke-width="2" stroke-linecap="round" stroke-linejoin="round"/>
<path d="M1108.33 731.796V784.574" stroke="black" stroke-width="2" stroke-linecap="round" stroke-linejoin="round"/>
<path d="M1706.11 290.946V237.22L1658.34 259.411V314.538L1706.11 290.946Z" fill="black"/>
<path d="M1658.97 259.739L1610.83 236.5L1658.97 213.94L1707.11 236.5L1658.97 259.739Z" stroke="black" stroke-width="2" stroke-linecap="round" stroke-linejoin="round"/>
<path d="M1707.11 236.745V291.523L1658.97 314.762L1610.83 291.523V236.745" stroke="black" stroke-width="2" stroke-linecap="round" stroke-linejoin="round"/>
<path d="M1658.34 259.549V314.327" stroke="black" stroke-width="2" stroke-linecap="round" stroke-linejoin="round"/>
<path d="M1171.34 684.362V612.072L1107.23 641.931V716.106L1171.34 684.362Z" fill="#E9E9E9"/>
<path d="M1107.3 642.733L1042.61 611.506L1107.3 581.19L1171.98 611.506L1107.3 642.733Z" stroke="black" stroke-width="2" stroke-linecap="round" stroke-linejoin="round"/>
<path d="M1171.98 611.122V684.73L1107.3 715.957L1042.61 684.73V611.75" stroke="black" stroke-width="2" stroke-linecap="round" stroke-linejoin="round"/>
<path d="M1107.23 642.003V715.611" stroke="black" stroke-width="2" stroke-linecap="round" stroke-linejoin="round"/>
<path d="M1322.59 665.048V570.263L1238.35 610.671V706.671L1322.59 665.048Z" fill="black"/>
<path d="M1266.7 542.575L1323.22 569.064L1238.98 609.732L1154.74 569.064L1214.02 541.282" stroke="black" stroke-width="2" stroke-linecap="round" stroke-linejoin="round"/>
<path d="M1323.22 569.788V665.649L1238.98 706.318L1171.89 673.93M1154.74 569.788V602.17" stroke="black" stroke-width="2" stroke-linecap="round" stroke-linejoin="round"/>
<path d="M1238.35 610.646V706.508" stroke="black" stroke-width="2" stroke-linecap="round" stroke-linejoin="round"/>
<path d="M1763.6 592.309V476.995L1661.14 526.037V642.947L1763.6 592.309Z" fill="black"/>
<g clip-path="url(#clip1_90_12105)">
<path d="M1683.95 598.95L1690.87 595.506C1697.58 592.17 1702.22 583.491 1702.22 569.384C1702.22 555.277 1697.58 551.646 1690.56 555.136L1683.95 558.427V598.95ZM1689.48 588.355V563.409L1690.22 563.04C1693.93 561.195 1696.56 562.557 1696.56 572.197C1696.56 581.624 1694.05 585.947 1690.47 587.859L1689.48 588.355ZM1713.99 584.768C1716.07 583.737 1718.48 581.285 1720.3 578.091L1718.48 573.17C1717.21 575.107 1716.04 576.345 1714.77 576.976C1712.54 578.083 1710.87 577.17 1710.38 573.168L1720.7 568.032C1720.83 567.263 1720.95 565.458 1720.95 563.77C1720.95 555.273 1718.48 550.021 1713.41 552.543C1709.14 554.665 1705.06 562.904 1705.06 572.98C1705.06 583.22 1708.96 587.274 1713.99 584.768ZM1710.29 566.896C1710.66 563.007 1711.99 560.658 1713.5 559.904C1715.51 558.905 1716.28 560.808 1716.28 563.913L1710.29 566.896ZM1724.91 578.577L1730.44 575.825V560.357L1738.29 556.451V548.335L1730.44 552.241V543.363L1739.59 538.812V530.75L1724.91 538.054V578.577ZM1743.15 569.506L1748.62 566.784V535.792L1743.15 538.514V569.506ZM1745.9 532.843C1747.72 531.935 1749.02 529.22 1749.02 526.333C1749.02 523.392 1747.72 521.968 1745.9 522.875C1744.04 523.798 1742.75 526.513 1742.75 529.454C1742.75 532.341 1744.04 533.765 1745.9 532.843Z" fill="white"/>
</g>
<path d="M1660.81 526.808L1558.52 477.425L1660.81 429.485L1763.11 477.425L1660.81 526.808Z" stroke="black" stroke-width="2" stroke-linecap="round" stroke-linejoin="round"/>
<path d="M1763.11 477.47V593.873L1660.81 643.256L1558.52 593.873V477.47" stroke="black" stroke-width="2" stroke-linecap="round" stroke-linejoin="round"/>
<path d="M1661.14 526.88V643.283" stroke="black" stroke-width="2" stroke-linecap="round" stroke-linejoin="round"/>
<path d="M701.024 752.957V682.386L763.256 711.535V782.335L701.024 752.957Z" fill="#E9E9E9"/>
<path d="M762.288 712.3L700.543 682.492L762.288 650.555L824.034 682.492L762.288 712.3Z" stroke="black" stroke-width="2" stroke-linecap="round" stroke-linejoin="round"/>
<path d="M751.157 699.43L755.292 697.287L748.1 693.634C745.479 692.303 742.145 690.984 739.533 689.857L739.655 689.794L746.177 691.285L761.105 694.275L765.531 691.981L743.869 680.978L739.734 683.12L746.897 686.759C749.488 688.075 752.944 689.481 755.487 690.523L755.366 690.586L748.786 689.066L733.921 686.133L729.494 688.427L751.157 699.43ZM769.739 689.8L774.093 687.544L765.824 683.344L772.002 680.142L767.663 677.938L761.485 681.14L756.739 678.729L763.939 674.998L759.63 672.81L748.076 678.797L769.739 689.8ZM789.218 679.697L793.572 677.441L776.219 668.626L781.132 666.08L776.823 663.891L762.667 671.227L766.976 673.416L771.865 670.882L789.218 679.697Z" fill="black"/>
<path d="M824.034 682.386V752.648L762.288 782.457L700.543 752.648V682.386" stroke="black" stroke-width="2" stroke-linecap="round" stroke-linejoin="round"/>
<path d="M762.355 712.317V781.58" stroke="black" stroke-width="2" stroke-linecap="round" stroke-linejoin="round"/>
<path d="M908.724 800.137V766.003L879.18 780.667V814.406L908.724 800.137Z" fill="black"/>
<path d="M880.076 780.203L850.674 766.009L880.076 750.8L909.479 766.009L880.076 780.203Z" fill="#F9F9F8" stroke="black" stroke-width="2" stroke-linecap="round" stroke-linejoin="round"/>
<path d="M909.479 766.479V799.937L880.076 814.131L850.674 799.937V766.479" stroke="black" stroke-width="2" stroke-linecap="round" stroke-linejoin="round"/>
<path d="M880.18 780.731V813.19" stroke="black" stroke-width="2" stroke-linecap="round" stroke-linejoin="round"/>
<path d="M197.836 741.245L168.434 727.051L197.836 711.842L227.239 727.051L197.836 741.245Z" stroke="#D6D6D6" stroke-width="2" stroke-linecap="round" stroke-linejoin="round"/>
<path d="M227.239 727.996V761.454L197.836 775.648L168.434 761.454V727.996" stroke="#D6D6D6" stroke-width="2" stroke-linecap="round" stroke-linejoin="round"/>
<path d="M196.939 741.773V775.232" stroke="#D6D6D6" stroke-width="2" stroke-linecap="round" stroke-linejoin="round"/>
<path d="M1047.45 802.512V768.379L1017.91 783.042V816.782L1047.45 802.512Z" fill="#E9E9E9"/>
<path d="M1016.9 782.578L987.502 768.384L1016.9 753.176L1046.31 768.384L1016.9 782.578Z" stroke="black" stroke-width="2" stroke-linecap="round" stroke-linejoin="round"/>
<path d="M1046.31 768.379V801.837L1016.9 816.031L987.502 801.837V768.379" stroke="black" stroke-width="2" stroke-linecap="round" stroke-linejoin="round"/>
<path d="M1017.91 782.632V816.09" stroke="black" stroke-width="2" stroke-linecap="round" stroke-linejoin="round"/>
<path d="M1435.86 686.647V653.731L1405.69 668.947V701.505L1435.86 686.647Z" fill="black"/>
<path d="M1377 721.383V688L1405 700.97V735L1377 721.383Z" fill="black"/>
<path d="M1406.48 667.93L1377.08 653.736L1406.48 638.528L1435.89 653.736L1406.48 667.93Z" stroke="black" stroke-width="2" stroke-linecap="round" stroke-linejoin="round"/>
<path d="M1435.89 653.731V687.189L1406.48 701.383L1377.08 687.189V653.731" stroke="black" stroke-width="2" stroke-linecap="round" stroke-linejoin="round"/>
<path d="M1405.59 667.984V701.442" stroke="black" stroke-width="2" stroke-linecap="round" stroke-linejoin="round"/>
<path d="M1484.4 744.571L1455 730.376L1484.4 715.168L1513.8 730.376L1484.4 744.571Z" stroke="#D6D6D6" stroke-width="2" stroke-linecap="round" stroke-linejoin="round"/>
<path d="M1513.8 730.371V763.829L1484.4 778.024L1455 763.829V730.371" stroke="#D6D6D6" stroke-width="2" stroke-linecap="round" stroke-linejoin="round"/>
<path d="M1483.5 744.624V778.082" stroke="#D6D6D6" stroke-width="2" stroke-linecap="round" stroke-linejoin="round"/>
<path d="M1435.79 687.612V721.07L1406.39 735.265L1376.98 721.07V687.612" stroke="black" stroke-width="2" stroke-linecap="round" stroke-linejoin="round"/>
<path d="M1405.49 701.39V734.848" stroke="black" stroke-width="2" stroke-linecap="round" stroke-linejoin="round"/>
<path d="M839.703 409.161L763.256 372.256L839.703 332.714L916.15 372.256L839.703 409.161Z" stroke="black" stroke-width="2" stroke-linecap="round" stroke-linejoin="round"/>
<path d="M916.15 372.623V459.614L839.703 496.519L763.256 459.614V372.623" stroke="black" stroke-width="2" stroke-linecap="round" stroke-linejoin="round"/>
<path d="M840.172 409.68V496.671" stroke="black" stroke-width="2" stroke-linecap="round" stroke-linejoin="round"/>
<path d="M771.857 435.554L776.731 437.839C781.452 440.053 784.715 436.909 784.715 426.561C784.715 416.214 781.452 410.329 776.513 408.013L771.857 405.83V435.554ZM775.752 431.627V413.329L776.274 413.574C778.885 414.798 780.734 417.623 780.734 424.694C780.734 431.766 778.885 433.096 776.274 431.872L775.752 431.627ZM794.907 434.018L791.534 432.436L791.889 430.085C792.311 427.327 792.755 424.059 793.154 421.13L793.243 421.172C793.687 424.416 794.108 428.169 794.552 431.334L794.907 434.018ZM796.616 447.164L800.788 449.12L795.662 416.992L790.913 414.765L785.787 442.086L789.825 443.98L790.78 437.595L795.662 439.885L796.616 447.164ZM802.931 450.125L807.041 452.053V442.184L809.038 443.121C812.643 444.811 815.789 443.17 815.789 436.099C815.789 428.901 812.817 425.135 809.158 423.324L802.931 420.401V450.125ZM807.041 436.551V427.961L808.717 428.747C810.691 429.673 811.793 431.229 811.793 434.225C811.793 437.142 810.829 438.328 808.831 437.391L807.041 436.551ZM817.932 457.16L822.041 459.087V449.219L824.039 450.155C827.644 451.846 830.789 450.205 830.789 443.133C830.789 435.935 827.818 432.17 824.159 430.358L817.932 427.435V457.16ZM822.041 443.585V434.996L823.718 435.782C825.692 436.708 826.794 438.263 826.794 441.26C826.794 444.176 825.83 445.362 823.832 444.425L822.041 443.585Z" fill="black"/>
<path d="M1123 253.737V218L1157 232.911V269L1123 253.737Z" fill="black"/>
<path d="M1157 233.018L1122.43 217.844L1157 201.587L1191.58 217.844L1157 233.018Z" stroke="black" stroke-width="2" stroke-linecap="round" stroke-linejoin="round"/>
<path d="M1191.58 218.216V253.981L1157 269.155L1122.43 253.981V218.216" stroke="black" stroke-width="2" stroke-linecap="round" stroke-linejoin="round"/>
<path d="M1157.54 233.419V269.185" stroke="black" stroke-width="2" stroke-linecap="round" stroke-linejoin="round"/>
<path d="M1505.01 360.692L1475.9 346.497L1505.01 331.289L1534.12 346.497L1505.01 360.692Z" stroke="#D6D6D6" stroke-width="2" stroke-linecap="round" stroke-linejoin="round"/>
<path d="M1534.12 346.492V379.95L1505.01 394.145L1475.9 379.95V346.492" stroke="#D6D6D6" stroke-width="2" stroke-linecap="round" stroke-linejoin="round"/>
<path d="M1504.41 361.22V394.678" stroke="#D6D6D6" stroke-width="2" stroke-linecap="round" stroke-linejoin="round"/>
<path d="M1191.45 156.4L1162.34 142.205L1191.45 126.997L1220.56 142.205L1191.45 156.4Z" stroke="#D6D6D6" stroke-width="2" stroke-linecap="round" stroke-linejoin="round"/>
<path d="M1220.56 142.2V175.658L1191.45 189.853L1162.34 175.658V142.2" stroke="#D6D6D6" stroke-width="2" stroke-linecap="round" stroke-linejoin="round"/>
<path d="M1190.84 156.453V189.911" stroke="#D6D6D6" stroke-width="2" stroke-linecap="round" stroke-linejoin="round"/>
<path d="M666.939 603.467L637.83 589.272L666.939 574.064L696.047 589.272L666.939 603.467Z" stroke="black" stroke-width="2" stroke-linecap="round" stroke-linejoin="round"/>
<path d="M696.047 589.267V622.725L666.939 636.92L637.83 622.725V589.267" stroke="black" stroke-width="2" stroke-linecap="round" stroke-linejoin="round"/>
<path d="M666.336 603.995V637.453" stroke="black" stroke-width="2" stroke-linecap="round" stroke-linejoin="round"/>
<path d="M604.226 289.902L575.117 275.708L604.226 260.5L633.334 275.708L604.226 289.902Z" stroke="#D6D6D6" stroke-width="2" stroke-linecap="round" stroke-linejoin="round"/>
<path d="M633.334 276.178V309.636L604.226 323.83L575.117 309.636V276.178" stroke="#D6D6D6" stroke-width="2" stroke-linecap="round" stroke-linejoin="round"/>
<path d="M603.623 290.431V323.889" stroke="#D6D6D6" stroke-width="2" stroke-linecap="round" stroke-linejoin="round"/>
<path d="M623.23 409.627L594.121 395.432L623.23 380.224L652.338 395.432L623.23 409.627Z" stroke="black" stroke-width="2" stroke-linecap="round" stroke-linejoin="round"/>
<path d="M652.338 395.902V429.36L623.23 443.555L594.121 429.36V395.902" stroke="black" stroke-width="2" stroke-linecap="round" stroke-linejoin="round"/>
<path d="M623.627 410.155V443.613" stroke="black" stroke-width="2" stroke-linecap="round" stroke-linejoin="round"/>
<path d="M653.5 393.5L718.379 361.22" stroke="#D6D6D6" stroke-width="2" stroke-linecap="round" stroke-linejoin="round"/>
<path d="M1048.31 767.941L1082.89 752.226" stroke="#D6D6D6" stroke-width="2" stroke-linecap="round" stroke-linejoin="round"/>
<path d="M616.926 631.418L652.274 614.922" stroke="#D6D6D6" stroke-width="2" stroke-linecap="round" stroke-linejoin="round"/>
<path d="M826 681.5L842.769 672.884" stroke="#D6D6D6" stroke-width="2" stroke-linecap="round" stroke-linejoin="round"/>
<path d="M958.996 815.721L1004.55 794.034" stroke="#D6D6D6" stroke-width="2" stroke-linecap="round" stroke-linejoin="round" stroke-dasharray="6.29 9.43"/>
<circle cx="949.421" cy="816.766" r="9.42912" stroke="#D6D6D6" stroke-width="2" stroke-linecap="round" stroke-linejoin="round"/>
<circle cx="1509.04" cy="617.076" r="9.42912" fill="#D6D6D6" stroke="#D6D6D6" stroke-width="2" stroke-linecap="round" stroke-linejoin="round"/>
<circle cx="1660.17" cy="355.446" r="9.42912" fill="#D6D6D6" stroke="#D6D6D6" stroke-width="2" stroke-linecap="round" stroke-linejoin="round"/>
<path d="M561.814 444.341L606.76 421.083" stroke="#D6D6D6" stroke-width="2" stroke-linecap="round" stroke-linejoin="round" stroke-dasharray="6.29 9.43"/>
<path d="M620.528 301.641L717.334 350.358" stroke="#D6D6D6" stroke-width="2" stroke-linecap="round" stroke-linejoin="round" stroke-dasharray="6.29 9.43"/>
<path d="M618.922 640.577L698.878 680.809" stroke="#D6D6D6" stroke-width="2" stroke-linecap="round" stroke-linejoin="round" stroke-dasharray="6.29 9.43"/>
<path d="M893.184 791.264L938.152 813.717" stroke="#D6D6D6" stroke-width="2" stroke-linecap="round" stroke-linejoin="round" stroke-dasharray="6.29 9.43"/>
<path d="M540.6 603.676L598.432 632.906" stroke="#E9E9E9" stroke-width="2" stroke-linecap="round" stroke-linejoin="round"/>
<path d="M791.938 737.323L848.602 765.655" stroke="#D6D6D6" stroke-width="2" stroke-linecap="round" stroke-linejoin="round"/>
<path d="M1275.89 639.595L1372.96 688.129" stroke="#D6D6D6" stroke-width="2" stroke-linecap="round" stroke-linejoin="round"/>
<path d="M1422.33 714.799L1455.07 731.168" stroke="#D6D6D6" stroke-width="2" stroke-linecap="round" stroke-linejoin="round"/>
<path d="M1441.51 329.867L1473.91 346.067" stroke="#D6D6D6" stroke-width="2" stroke-linecap="round" stroke-linejoin="round" stroke-dasharray="6.29 9.43"/>
<path d="M736.468 359.798L761 372" stroke="#D6D6D6" stroke-width="2" stroke-linecap="round" stroke-linejoin="round"/>
<path d="M1534.02 380.763L1560.71 394.436" stroke="#D6D6D6" stroke-width="2" stroke-linecap="round" stroke-linejoin="round" stroke-dasharray="6.29 9.43"/>
<path d="M227.346 727.536L303.407 688.562" stroke="#D6D6D6" stroke-width="2" stroke-linecap="round" stroke-linejoin="round"/>
<path d="M1054.02 291.51L1143.59 246.722" stroke="#D6D6D6" stroke-width="2" stroke-linecap="round" stroke-linejoin="round"/>
<path d="M1518.61 613.641L1606.62 569.639" stroke="#D6D6D6" stroke-width="2" stroke-linecap="round" stroke-linejoin="round"/>
<path d="M1576.62 394.519L1649.07 358.845" stroke="#D6D6D6" stroke-width="2" stroke-linecap="round" stroke-linejoin="round"/>
<path d="M1437.5 652.5L1499.17 622.85" stroke="#D6D6D6" stroke-width="2" stroke-linecap="round" stroke-linejoin="round"/>
<circle cx="727.076" cy="354.971" r="9.42912" stroke="#D6D6D6" stroke-width="2" stroke-linecap="round" stroke-linejoin="round"/>
<circle cx="611.152" cy="636.704" r="9.42912" fill="#D6D6D6" stroke="#D6D6D6" stroke-width="2" stroke-linecap="round" stroke-linejoin="round"/>
<circle cx="1239.7" cy="426.706" r="16.5507" fill="black" stroke="black" stroke-width="2" stroke-linecap="round" stroke-linejoin="round"/>
<path d="M1241.55 451.964C1234.66 451.964 1220.04 451.964 1216.73 451.964C1212.59 451.964 1202.25 454.033 1202.25 470.583C1202.25 483.824 1202.25 503.685 1202.25 511.96C1202.25 515.408 1204.31 522.304 1212.59 522.304" stroke="black" stroke-width="2" stroke-linecap="round" stroke-linejoin="round"/>
<path d="M1217.45 474.769V572.004C1217.45 575.452 1219.52 582.348 1227.79 582.348C1236.07 582.348 1240.21 580.279 1240.21 576.142V526.489" stroke="black" stroke-width="2" stroke-linecap="round" stroke-linejoin="round"/>
<path d="M1238.95 451.489C1245.85 451.489 1260.47 451.489 1263.78 451.489C1267.92 451.489 1278.26 453.558 1278.26 470.108C1278.26 483.349 1278.26 503.21 1278.26 511.485C1278.26 514.933 1276.19 521.829 1267.92 521.829" stroke="black" stroke-width="2" stroke-linecap="round" stroke-linejoin="round"/>
<path d="M1263.06 474.293V571.529C1263.06 574.977 1260.99 581.873 1252.71 581.873C1244.44 581.873 1240.3 579.804 1240.3 575.666V526.014" stroke="black" stroke-width="2" stroke-linecap="round" stroke-linejoin="round"/>
<path d="M1396.57 553.496C1396.28 554.439 1396.28 556.01 1396.28 556.639L1396.28 577.067C1396.28 582.098 1398.97 589.01 1408.53 589.01C1418.1 589.01 1420.79 581.469 1420.79 577.067C1420.79 573.191 1420.79 566.761 1420.79 558.212C1420.79 549.663 1413.22 545.534 1409.43 545.639C1408.71 545.533 1406.9 545.448 1405.39 545.951" stroke="#D6D6D6" stroke-width="2" stroke-linecap="round" stroke-linejoin="round"/>
<path d="M1396.57 516.913C1396.28 517.856 1396.28 519.428 1396.28 520.056L1396.28 530.271M1405.39 509.368C1406.9 508.865 1408.71 508.951 1409.43 509.056C1413.22 508.951 1420.79 513.081 1420.79 521.629C1420.79 525.407 1420.79 528.771 1420.79 531.684" stroke="#D6D6D6" stroke-width="2" stroke-linecap="round" stroke-linejoin="round"/>
<path d="M1396.09 520.7C1396.09 524.576 1396.09 531.007 1396.09 539.556C1396.09 548.104 1403.66 552.234 1407.45 552.129C1408.16 552.234 1409.98 552.32 1411.49 551.817M1420.6 520.7L1420.6 541.129C1420.6 541.757 1420.6 543.329 1420.3 544.272" stroke="#D6D6D6" stroke-width="2" stroke-linecap="round" stroke-linejoin="round"/>
<path d="M1396.57 480.806C1396.28 481.749 1396.28 483.32 1396.28 483.949L1396.28 494.163M1405.39 473.261C1406.9 472.758 1408.71 472.843 1409.43 472.949C1413.22 472.844 1420.79 476.973 1420.79 485.522C1420.79 489.3 1420.79 492.664 1420.79 495.576" stroke="#D6D6D6" stroke-width="2" stroke-linecap="round" stroke-linejoin="round"/>
<path d="M1396.09 485.068C1396.09 488.944 1396.09 495.375 1396.09 503.923C1396.09 512.472 1403.66 516.601 1407.45 516.497C1408.16 516.602 1409.98 516.687 1411.49 516.185M1420.6 485.068L1420.6 505.496C1420.6 506.125 1420.6 507.696 1420.3 508.639" stroke="#D6D6D6" stroke-width="2" stroke-linecap="round" stroke-linejoin="round"/>
<path d="M1396.57 444.223C1396.28 445.166 1396.28 446.738 1396.28 447.366L1396.28 457.581M1405.39 436.678C1406.9 436.175 1408.71 436.261 1409.43 436.366C1413.22 436.261 1420.79 440.391 1420.79 448.939C1420.79 452.717 1420.79 456.081 1420.79 458.994" stroke="#D6D6D6" stroke-width="2" stroke-linecap="round" stroke-linejoin="round"/>
<path d="M1396.09 448.01C1396.09 451.886 1396.09 458.317 1396.09 466.866C1396.09 475.414 1403.66 479.544 1407.45 479.439C1408.16 479.544 1409.98 479.63 1411.49 479.127M1420.6 448.01L1420.6 468.439C1420.6 469.067 1420.6 470.639 1420.3 471.582" stroke="#D6D6D6" stroke-width="2" stroke-linecap="round" stroke-linejoin="round"/>
<path d="M1420.3 434.999C1420.6 434.056 1420.6 432.485 1420.6 431.856L1420.6 411.428C1420.6 406.397 1417.91 399.485 1408.34 399.485C1398.78 399.485 1396.09 407.026 1396.09 411.428C1396.09 415.304 1396.09 421.735 1396.09 430.283C1396.09 438.832 1403.66 442.961 1407.45 442.856C1408.16 442.962 1409.98 443.047 1411.49 442.544" stroke="#D6D6D6" stroke-width="2" stroke-linecap="round" stroke-linejoin="round"/>
<path d="M552.181 741.05H535.209V773.423C535.209 792.596 548.41 809.254 569.468 813.026C591.469 809.254 603.727 790.396 603.727 773.423V741.05H586.126C579.526 741.05 572.925 732.25 569.468 729.421C568.211 733.947 557.42 739.06 552.181 741.05Z" fill="black"/>
<path d="M571.316 805.876V780.731" stroke="white" stroke-width="2" stroke-linecap="round" stroke-linejoin="round"/>
<path d="M571.316 767.539V761.252" stroke="white" stroke-width="2" stroke-linecap="round" stroke-linejoin="round"/>
<path d="M569.782 728.471C568.735 732.661 558.467 741.043 550.924 741.043C543.381 741.043 537.304 741.043 535.209 741.043V772.473C535.209 791.331 547.153 808.304 569.782 813.333" stroke="black" stroke-width="2" stroke-linecap="round" stroke-linejoin="round"/>
<path d="M570.05 728.471C571.097 732.661 581.365 741.043 588.908 741.043C596.451 741.043 602.528 741.043 604.623 741.043V772.473C604.623 789.76 592.679 808.304 570.05 813.333" stroke="black" stroke-width="2" stroke-linecap="round" stroke-linejoin="round"/>
<circle cx="1570.85" cy="398.205" r="9.42912" stroke="#D6D6D6" stroke-width="2" stroke-linecap="round" stroke-linejoin="round"/>
<circle cx="959.4" cy="233.823" r="70.7184" fill="#F9F9F8" stroke="black" stroke-width="2" stroke-linecap="round" stroke-linejoin="round"/>
<circle cx="959.864" cy="233.812" r="54.0788" fill="black" stroke="black" stroke-width="2" stroke-linecap="round" stroke-linejoin="round"/>
<ellipse cx="960.526" cy="200.619" rx="14.9329" ry="8.53311" fill="white" stroke="black" stroke-width="2"/>
<ellipse cx="960.526" cy="266.657" rx="14.9329" ry="8.53311" fill="white" stroke="black" stroke-width="2"/>
<ellipse cx="989.379" cy="216.886" rx="14.9329" ry="8.53311" transform="rotate(60 989.379 216.886)" fill="white" stroke="black" stroke-width="2"/>
<ellipse cx="930.466" cy="250.143" rx="14.9329" ry="8.53311" transform="rotate(60 930.466 250.143)" fill="white" stroke="black" stroke-width="2"/>
<ellipse cx="987.749" cy="249.686" rx="14.9329" ry="8.53311" transform="rotate(120 987.749 249.686)" fill="white" stroke="black" stroke-width="2"/>
<ellipse cx="930.736" cy="216.905" rx="14.9329" ry="8.53311" transform="rotate(120 930.736 216.905)" fill="white" stroke="black" stroke-width="2"/>
<path d="M1084.55 562.187H1122.27C1126.61 562.187 1130.12 565.704 1130.12 570.044H1084.55C1082.38 570.044 1080.62 568.285 1080.62 566.115C1080.62 563.946 1082.38 562.187 1084.55 562.187Z" fill="#E9E9E9" stroke="black" stroke-width="2" stroke-linecap="round" stroke-linejoin="round"/>
<path d="M1080.62 606.733V566.462C1080.62 568.451 1082.23 570.064 1084.22 570.064H1127.37C1131.42 570.064 1134.71 573.347 1134.71 577.398V601.691V606.733C1134.71 610.783 1131.42 614.066 1127.37 614.066H1087.95C1083.9 614.066 1080.62 610.783 1080.62 606.733Z" fill="#F9F9F8" stroke="black" stroke-width="2" stroke-linecap="round" stroke-linejoin="round"/>
<rect x="1116.73" y="583.566" width="25.6681" height="17.4177" rx="7.33376" fill="white" stroke="black" stroke-width="2" stroke-linecap="round" stroke-linejoin="round"/>
<circle cx="1125.57" cy="591.935" r="3.14304" fill="black" stroke="black" stroke-width="2" stroke-linecap="round" stroke-linejoin="round"/>
<path d="M679.325 541.616L699.754 553.095L695.299 569.327L722.351 564.871L744.63 577.284L755.77 583.49L757.446 584.424C761.689 586.788 766.909 583.72 766.909 578.863V539.927C766.909 530.756 761.977 522.294 753.997 517.773L675.839 473.5C671.595 471.096 666.336 474.162 666.336 479.039V519.418C666.336 528.621 671.302 537.108 679.325 541.616Z" stroke="black" stroke-width="2"/>
<path d="M756.614 587.942L764.292 583.815L763.165 577.865L755.654 583.053L756.614 587.942Z" fill="white"/>
<path d="M672.29 473.649L664.612 477.087L666.426 482.37L673.938 477.182L672.29 473.649Z" fill="white"/>
<path d="M671.723 545.892L692.153 557.371L687.697 573.603L714.75 569.147L749.844 588.7C754.087 591.064 759.308 587.996 759.308 583.139V544.203C759.308 535.032 754.375 526.569 746.395 522.049L668.237 477.776C663.994 475.372 658.734 478.438 658.734 483.314V523.694C658.734 532.897 663.7 541.384 671.723 545.892Z" fill="black" stroke="black" stroke-width="2"/>
<path d="M710.391 546.033L704.344 548.898" stroke="black" stroke-width="2"/>
<path d="M706.408 549.14L706.003 548.226L706.408 549.14L729.142 539.069C730.45 538.489 730.904 536.859 730.083 535.687L724.884 528.259C724.264 527.373 723.105 527.047 722.114 527.479L722.513 528.396L722.114 527.479L699.616 537.285C698.331 537.846 697.854 539.424 698.614 540.601L703.578 548.294C704.184 549.235 705.385 549.594 706.408 549.14Z" fill="white" stroke="black" stroke-width="2"/>
<path d="M697.195 525.699L693.741 527.426C692.545 528.023 692.121 529.519 692.825 530.655L703.831 548.44C704.44 549.424 705.691 549.794 706.737 549.298L710.454 547.538C711.689 546.953 712.132 545.419 711.4 544.265L700.131 526.514C699.506 525.529 698.238 525.177 697.195 525.699Z" fill="white" stroke="black" stroke-width="2"/>
<path d="M722.513 528.396L700.016 538.202C699.296 538.516 699.029 539.4 699.455 540.059L704.418 547.752C704.758 548.279 705.43 548.48 706.003 548.226L728.737 538.154C729.47 537.83 729.724 536.917 729.264 536.26L724.065 528.833C723.717 528.336 723.068 528.154 722.513 528.396Z" fill="white"/>
<path d="M764.74 584.041L755.654 588.401" stroke="black" stroke-width="2"/>
<path d="M669.512 472.868L660.635 477.187" stroke="black" stroke-width="2"/>
<path d="M841.172 573.512C841.172 569.094 844.754 565.512 849.172 565.512H928.435C932.854 565.512 936.435 569.094 936.435 573.512V667.519C936.435 671.937 932.854 675.519 928.435 675.519H849.172C844.754 675.519 841.172 671.937 841.172 667.519V573.512Z" fill="black" stroke="black" stroke-width="2" stroke-linecap="round" stroke-linejoin="round"/>
<path d="M918 662.5V674V675.5H848V669.5L852 661L859 655L868 652L872 649L875.5 644.5V609.5H871L864.5 607L860.5 603L858 595L860.5 586.5L864.5 582H868L872 583L875.5 588L879 582L883.5 577.5L890 574.5H909.5L913.5 575.5L916.5 577.5L918 580.5V585.5L921.5 584H924L927.5 586.5L928.5 591L927.5 595L924 600L918 605V609.5L915 612.5L918 619.5L919.5 622.5V629.5L918 635L914.5 636.5H896.5V640L897 643.5L901.5 652H907L912.5 653.5L916.5 657.5L918 662.5Z" fill="#F9F9F8"/>
<rect x="841.172" y="565.512" width="92.2634" height="110.006" rx="8" stroke="black" stroke-width="2" stroke-linecap="round" stroke-linejoin="round"/>
<path d="M902.5 652C898.242 649.161 896.283 644 896.283 640.103V636.5" stroke="#F9F9F8" stroke-width="2" stroke-linecap="round" stroke-linejoin="round"/>
<path d="M918.088 605.921C921.636 602.668 928.734 595.187 928.734 591.283C928.734 586.404 923.854 581.968 918.975 585.073" stroke="#F9F9F8" stroke-width="2" stroke-linecap="round" stroke-linejoin="round"/>
<path d="M923.411 593.329C923.706 592.146 923.766 589.691 921.636 589.336C919.507 588.982 918.384 590.076 918.088 590.667" stroke="black" stroke-width="2" stroke-linecap="round" stroke-linejoin="round"/>
<path d="M864.5 652.608V652.608C870.335 652.608 875.066 647.878 875.066 642.042V592.539C875.066 582.598 883.125 574.539 893.066 574.539H910.108C914.518 574.539 918.093 578.114 918.093 582.523V583.411V609.581C918.062 610.054 917.7 611.2 916.5 612" stroke="#F9F9F8" stroke-width="2" stroke-linecap="round" stroke-linejoin="round"/>
<path d="M879.711 651.98H869.065C857.306 651.98 847.773 661.513 847.773 673.272V675.54" stroke="black" stroke-width="2" stroke-linecap="round" stroke-linejoin="round"/>
<path d="M899.184 651.98H907.168C913.537 651.98 918.701 657.143 918.701 663.513V675.5" stroke="black" stroke-width="2" stroke-linecap="round" stroke-linejoin="round"/>
<path d="M870 675.5C873.5 673 877.561 669.315 879.335 667.185C880.551 665.726 882.115 663.766 883.312 662.249C884.098 661.253 885.474 660.94 886.585 661.554C889.227 663.014 892.51 665.014 893.631 665.855C895.05 666.919 898.658 669.551 900.284 670.734C900.876 669.699 902.236 667.097 902.946 664.967C903.082 664.56 903.209 664.178 903.327 663.824C903.754 662.544 905.382 662.204 906.22 663.262C908.302 665.891 911.181 670.089 913.5 675.5" stroke="black" stroke-width="2" stroke-linecap="round" stroke-linejoin="round"/>
<path d="M878.815 628.45C877.336 626.972 873.379 622.861 873.379 618.248V610.5" stroke="black" stroke-width="2" stroke-linecap="round" stroke-linejoin="round"/>
<path d="M875.575 588.763C875.131 586.397 872.913 581.666 867.59 581.666C860.937 581.666 858.275 590.981 858.275 595.416C858.275 599.852 860.937 608.28 870.695 608.724H874.5" stroke="#F9F9F8" stroke-width="2" stroke-linecap="round" stroke-linejoin="round"/>
<path d="M874.797 596.332C874.65 595.593 873.91 594.026 872.136 593.671C869.918 593.227 869.031 598.107 869.918 599.437" stroke="black" stroke-width="2" stroke-linecap="round" stroke-linejoin="round"/>
<path d="M865.477 599C864.057 595 865.951 590 869.265 590C871.917 590 873.527 591.667 874 592.5C874.333 593 875 594.5 875 596.5" stroke="black" stroke-width="2" stroke-linecap="round" stroke-linejoin="round"/>
<path d="M914.918 584.358V602.101C914.918 603.081 914.123 603.876 913.144 603.876H910.926C913.291 608.755 918.2 618.869 918.91 620.288C919.797 622.062 919.797 624.724 919.797 627.829C919.797 633.152 917.136 636.257 914.918 636.257H890.521C887.416 636.257 883.868 631.821 883.868 627.385C883.868 623.766 885.198 622.062 886.085 620.288C888.747 614.965 890.521 610.973 893.626 603.876C888.303 603.876 882.98 599.44 882.98 592.786C882.98 586.133 888.747 582.584 893.626 582.584C898.506 582.584 900.723 583.915 903.828 583.915C905.764 583.915 909.801 583.197 912.748 582.6C913.864 582.374 914.918 583.22 914.918 584.358Z" stroke="black" stroke-width="2" stroke-linecap="round" stroke-linejoin="round"/>
<path d="M903.885 603.995L909.933 619.787C911.213 623.129 911.869 626.678 911.869 630.257V631.94" stroke="black" stroke-width="2" stroke-linecap="round" stroke-linejoin="round"/>
<path d="M912.122 589.5C911.812 589.19 911.145 588.906 909.655 588.906C907.122 589 905 591.5 905 594.027C908.5 599 913.174 597 913 594.027" stroke="black" stroke-width="2" stroke-linecap="round" stroke-linejoin="round"/>
<path d="M910.121 588.906C910.276 590.303 911.883 592.755 913 593.5C914.397 594.431 906.397 594.493 905 594.027" stroke="black" stroke-width="2"/>
<path d="M900.861 588.844C899.024 587.619 893.512 587.007 888 594.356C893.512 599.868 900.861 597.5 900.861 593.897" stroke="black" stroke-width="2" stroke-linecap="round" stroke-linejoin="round"/>
<path d="M899.942 588.385C899.789 589.763 899.758 592.703 900.861 593.438C902.239 594.356 893.053 595.275 888 594.356" stroke="black" stroke-width="2"/>
<defs>
<clipPath id="clip0_90_12105">
<rect width="67.6437" height="70.7184" fill="white" transform="translate(364.174 644.854)"/>
</clipPath>
<clipPath id="clip1_90_12105">
<rect width="65.6947" height="78.576" fill="white" transform="translate(1682.04 521.654)"/>
</clipPath>
</defs>
</svg>
