<svg width="1946" height="895" viewBox="0 0 1946 895" fill="none" xmlns="http://www.w3.org/2000/svg">
<path d="M1181.5 322.468C1181.27 322.968 1181.48 323.563 1181.98 323.796L1190.15 327.589C1190.65 327.822 1191.24 327.605 1191.47 327.104C1191.71 326.603 1191.49 326.008 1190.99 325.776L1183.73 322.404L1187.11 315.149C1187.34 314.648 1187.12 314.053 1186.62 313.821C1186.12 313.588 1185.52 313.805 1185.29 314.306L1181.5 322.468ZM1342.96 264.978C1343.19 264.477 1342.98 263.882 1342.47 263.649L1334.31 259.856C1333.81 259.623 1333.22 259.84 1332.98 260.341C1332.75 260.842 1332.97 261.437 1333.47 261.67L1340.72 265.042L1337.35 272.296C1337.12 272.797 1337.34 273.392 1337.84 273.624C1338.34 273.857 1338.93 273.64 1339.17 273.139L1342.96 264.978ZM1182.75 323.828L1342.4 265.495L1341.71 263.617L1182.06 321.95L1182.75 323.828Z" fill="black"/>
<path d="M1181.5 567.895C1181.27 567.394 1181.48 566.8 1181.98 566.567L1190.15 562.774C1190.65 562.541 1191.24 562.758 1191.47 563.259C1191.71 563.76 1191.49 564.354 1190.99 564.587L1183.73 567.959L1187.11 575.214C1187.34 575.715 1187.12 576.309 1186.62 576.542C1186.12 576.775 1185.52 576.558 1185.29 576.057L1181.5 567.895ZM1342.96 625.385C1343.19 625.886 1342.98 626.481 1342.47 626.713L1334.31 630.507C1333.81 630.74 1333.22 630.522 1332.98 630.022C1332.75 629.521 1332.97 628.926 1333.47 628.693L1340.72 625.321L1337.35 618.067C1337.12 617.566 1337.34 616.971 1337.84 616.738C1338.34 616.506 1338.93 616.723 1339.17 617.224L1342.96 625.385ZM1182.75 566.534L1342.4 624.867L1341.71 626.746L1182.06 568.413L1182.75 566.534Z" fill="black"/>
<path d="M763.951 573.481C764.161 572.97 763.917 572.386 763.406 572.176L755.082 568.755C754.571 568.545 753.987 568.789 753.777 569.3C753.567 569.81 753.811 570.395 754.322 570.605L761.721 573.646L758.68 581.045C758.47 581.556 758.714 582.14 759.225 582.35C759.736 582.56 760.32 582.316 760.53 581.805L763.951 573.481ZM624.343 630.231C624.133 630.742 624.377 631.326 624.888 631.536L633.213 634.957C633.723 635.167 634.308 634.923 634.518 634.412C634.728 633.902 634.484 633.317 633.973 633.107L626.573 630.067L629.614 622.667C629.824 622.156 629.58 621.572 629.069 621.362C628.559 621.152 627.974 621.396 627.764 621.907L624.343 630.231ZM762.641 572.178L624.883 629.689L625.654 631.534L763.412 574.023L762.641 572.178Z" fill="black"/>
<path d="M763.951 317.264C764.161 317.775 763.917 318.359 763.406 318.569L755.082 321.99C754.571 322.2 753.987 321.956 753.777 321.445C753.567 320.934 753.811 320.35 754.322 320.14L761.721 317.099L758.68 309.7C758.47 309.189 758.714 308.604 759.225 308.395C759.736 308.185 760.32 308.429 760.53 308.939L763.951 317.264ZM624.343 260.513C624.133 260.003 624.377 259.418 624.888 259.208L633.213 255.787C633.723 255.577 634.308 255.821 634.518 256.332C634.728 256.843 634.484 257.427 633.973 257.637L626.573 260.678L629.614 268.078C629.824 268.588 629.58 269.173 629.069 269.383C628.559 269.593 627.974 269.349 627.764 268.838L624.343 260.513ZM762.641 318.567L624.883 261.056L625.654 259.21L763.412 316.721L762.641 318.567Z" fill="black"/>
<path d="M1203.18 445.366C1202.8 444.97 1202.8 444.337 1203.2 443.951L1209.64 437.67C1210.04 437.284 1210.67 437.292 1211.06 437.688C1211.44 438.083 1211.44 438.716 1211.04 439.102L1205.31 444.686L1210.9 450.415C1211.28 450.81 1211.27 451.443 1210.88 451.829C1210.48 452.214 1209.85 452.206 1209.46 451.811L1203.18 445.366ZM1364.26 446.016C1364.65 446.412 1364.64 447.045 1364.24 447.43L1357.8 453.712C1357.4 454.098 1356.77 454.09 1356.38 453.694C1356 453.299 1356.01 452.666 1356.4 452.28L1362.13 446.696L1356.55 440.967C1356.16 440.572 1356.17 439.939 1356.57 439.553C1356.96 439.168 1357.59 439.176 1357.98 439.571L1364.26 446.016ZM1203.91 443.668L1363.56 445.714L1363.53 447.714L1203.88 445.668L1203.91 443.668Z" fill="black"/>
<path d="M742.828 445.366C743.214 444.97 743.206 444.337 742.81 443.951L736.365 437.67C735.97 437.284 735.337 437.292 734.951 437.688C734.566 438.083 734.574 438.716 734.969 439.102L740.698 444.686L735.114 450.415C734.729 450.81 734.737 451.443 735.132 451.829C735.528 452.214 736.161 452.206 736.547 451.811L742.828 445.366ZM581.748 446.016C581.363 446.412 581.371 447.045 581.766 447.43L588.211 453.712C588.607 454.098 589.24 454.09 589.626 453.694C590.011 453.299 590.003 452.666 589.607 452.28L583.879 446.696L589.462 440.967C589.848 440.572 589.84 439.939 589.444 439.553C589.049 439.168 588.416 439.176 588.03 439.571L581.748 446.016ZM742.099 443.668L582.452 445.714L582.477 447.714L742.125 445.668L742.099 443.668Z" fill="black"/>
<circle cx="975.677" cy="443.367" r="219.012" transform="rotate(90 975.677 443.367)" stroke="#D6D6D6" stroke-width="2"/>
<path d="M1124.44 310.626C1122.81 308.813 1121.16 307.029 1119.47 305.277M1130.07 317.202C1130.43 317.645 1130.79 318.09 1131.15 318.536C1131.81 319.349 1132.46 320.168 1133.1 320.992C1159.5 354.83 1175.23 397.402 1175.23 443.648C1175.23 553.862 1085.89 643.208 975.674 643.208C865.461 643.208 776.115 553.862 776.115 443.648C776.115 333.434 865.461 244.088 975.674 244.088C1029.09 244.088 1077.61 265.077 1113.43 299.258" stroke="black" stroke-width="2"/>
<path d="M1016.34 568.925C1007.13 556.276 992.21 548.055 975.367 548.055C958.524 548.055 943.601 556.276 934.392 568.925" stroke="black" stroke-width="2" stroke-linecap="round"/>
<path d="M975.5 535C961.417 535 950 523.583 950 509.5C950 495.417 961.417 484 975.5 484C989.583 484 1001 495.417 1001 509.5C1001 523.583 989.583 535 975.5 535Z" stroke="black" stroke-width="2"/>
<path d="M858.643 581.071C867.816 571.851 880.516 566.145 894.549 566.145C913.939 566.145 930.785 577.041 939.297 593.045" stroke="black" stroke-width="2" stroke-linecap="round"/>
<path d="M895 553C881.745 553 871 542.255 871 529C871 515.745 881.745 505 895 505C908.255 505 919 515.745 919 529C919 542.255 908.255 553 895 553Z" stroke="black" stroke-width="2"/>
<path d="M1092 581.628C1082.79 572.082 1069.86 566.146 1055.55 566.146C1036.16 566.146 1019.31 577.042 1010.8 593.046" stroke="black" stroke-width="2" stroke-linecap="round"/>
<circle cx="1055" cy="529" r="24" transform="rotate(-90 1055 529)" stroke="black" stroke-width="2"/>
<path d="M856.474 430.7L860.254 445.43C860.584 446.66 860.614 447.68 860.644 447.68H860.704C860.704 447.68 860.794 446.63 861.064 445.43L864.574 430.7H868.564L863.074 452H858.604L855.334 439.4C854.974 438.02 854.794 436.61 854.794 436.61H854.734C854.734 436.61 854.554 438.02 854.194 439.4L850.924 452H846.454L841.114 430.7H845.104L848.464 445.43C848.734 446.63 848.824 447.68 848.824 447.68H848.884C848.914 447.68 848.944 446.66 849.274 445.43L853.114 430.7H856.474ZM869.801 444.35C869.801 439.64 873.011 436.34 877.571 436.34C881.981 436.34 884.351 439.55 884.351 443.6C884.351 444.05 884.261 445.07 884.261 445.07H873.701C873.941 447.74 876.011 449.12 878.291 449.12C880.751 449.12 882.701 447.44 882.701 447.44L884.171 450.17C884.171 450.17 881.831 452.36 878.021 452.36C872.951 452.36 869.801 448.7 869.801 444.35ZM873.821 442.46H880.511C880.451 440.39 879.161 439.28 877.481 439.28C875.531 439.28 874.181 440.48 873.821 442.46ZM887.493 452V430.7H891.303V437.27C891.303 438.02 891.243 438.56 891.243 438.56H891.303C891.303 438.56 892.653 436.34 895.893 436.34C900.033 436.34 902.673 439.61 902.673 444.35C902.673 449.21 899.703 452.36 895.653 452.36C892.473 452.36 891.093 450.08 891.093 450.08H891.033C891.033 450.08 891.093 450.53 891.093 451.13V452H887.493ZM891.183 444.44C891.183 446.81 892.443 449.15 894.993 449.15C897.093 449.15 898.833 447.44 898.833 444.41C898.833 441.5 897.273 439.61 895.023 439.61C893.043 439.61 891.183 441.05 891.183 444.44ZM904.782 449.51L906.762 446.54C906.762 446.54 908.772 448.7 911.592 448.7C913.812 448.7 915.432 447.35 915.432 445.52C915.432 443.27 913.362 442.22 910.872 442.22H909.402L908.532 440.24L912.432 435.62C913.272 434.63 913.962 434 913.962 434V433.94C913.962 433.94 913.332 434.03 912.072 434.03H905.712V430.7H918.732V433.13L913.512 439.16C916.452 439.58 919.332 441.68 919.332 445.37C919.332 449 916.572 452.36 911.832 452.36C907.302 452.36 904.782 449.51 904.782 449.51ZM929.334 449.45L931.434 446.54C931.434 446.54 933.744 448.79 936.744 448.79C938.364 448.79 939.834 447.95 939.834 446.21C939.834 442.4 929.784 443.06 929.784 436.52C929.784 432.98 932.844 430.34 936.924 430.34C941.124 430.34 943.284 432.62 943.284 432.62L941.604 435.77C941.604 435.77 939.564 433.91 936.894 433.91C935.094 433.91 933.684 434.96 933.684 436.46C933.684 440.24 943.704 439.31 943.704 446.12C943.704 449.51 941.124 452.36 936.684 452.36C931.944 452.36 929.334 449.45 929.334 449.45ZM945.885 444.35C945.885 439.64 949.095 436.34 953.655 436.34C958.065 436.34 960.435 439.55 960.435 443.6C960.435 444.05 960.345 445.07 960.345 445.07H949.785C950.025 447.74 952.095 449.12 954.375 449.12C956.835 449.12 958.785 447.44 958.785 447.44L960.255 450.17C960.255 450.17 957.915 452.36 954.105 452.36C949.035 452.36 945.885 448.7 945.885 444.35ZM949.905 442.46H956.595C956.535 440.39 955.245 439.28 953.565 439.28C951.615 439.28 950.265 440.48 949.905 442.46ZM962.467 444.35C962.467 440 965.707 436.34 970.777 436.34C974.767 436.34 976.657 438.62 976.657 438.62L974.977 441.23C974.977 441.23 973.387 439.58 970.987 439.58C968.167 439.58 966.337 441.71 966.337 444.32C966.337 446.9 968.197 449.12 971.107 449.12C973.687 449.12 975.607 447.17 975.607 447.17L977.077 449.87C977.077 449.87 974.887 452.36 970.777 452.36C965.707 452.36 962.467 448.79 962.467 444.35ZM979.714 446.54V436.7H983.524V445.76C983.524 447.62 984.004 448.88 985.894 448.88C988.654 448.88 990.184 446.45 990.184 443.72V436.7H993.994V452H990.334V450.26C990.334 449.66 990.394 449.18 990.394 449.18H990.334C989.584 450.77 987.634 452.36 985.024 452.36C981.754 452.36 979.714 450.71 979.714 446.54ZM998.205 452V436.7H1001.87V439.34C1001.87 439.91 1001.81 440.42 1001.81 440.42H1001.87C1002.56 438.23 1004.39 436.49 1006.73 436.49C1007.09 436.49 1007.42 436.55 1007.42 436.55V440.3C1007.42 440.3 1007.03 440.24 1006.52 440.24C1004.9 440.24 1003.07 441.17 1002.35 443.45C1002.11 444.2 1002.02 445.04 1002.02 445.94V452H998.205ZM1009.98 434.09V430.7H1013.76V434.09H1009.98ZM1009.98 452V436.7H1013.79V452H1009.98ZM1018.64 446.39V439.97H1016.66V436.94H1018.73V432.53H1022.45V436.94H1025.93V439.97H1022.45V445.91C1022.45 448.43 1024.43 448.79 1025.48 448.79C1025.9 448.79 1026.17 448.73 1026.17 448.73V452.06C1026.17 452.06 1025.72 452.15 1025 452.15C1022.87 452.15 1018.64 451.52 1018.64 446.39ZM1027.22 457.31L1028.48 454.46C1028.48 454.46 1029.32 455.09 1030.19 455.09C1031.24 455.09 1032.26 454.46 1032.83 453.11L1033.4 451.76L1026.95 436.7H1031.24L1034.45 445.52C1034.75 446.33 1035.02 447.59 1035.02 447.59H1035.08C1035.08 447.59 1035.32 446.39 1035.59 445.58L1038.59 436.7H1042.76L1035.92 454.31C1034.84 457.1 1032.71 458.3 1030.4 458.3C1028.57 458.3 1027.22 457.31 1027.22 457.31ZM1052.83 452V430.7H1060.09C1066.66 430.7 1070.95 434.6 1070.95 441.32C1070.95 448.04 1066.66 452 1060.09 452H1052.83ZM1056.7 448.67H1059.88C1064.2 448.67 1066.96 446.12 1066.96 441.32C1066.96 436.58 1064.14 434.03 1059.88 434.03H1056.7V448.67ZM1087.28 452L1085.48 446.54H1078.01L1076.21 452H1072.22L1079.72 430.7H1083.77L1091.27 452H1087.28ZM1081.79 434.39H1081.73C1081.73 434.39 1081.25 436.49 1080.83 437.69L1078.94 443.39H1084.52L1082.63 437.69C1082.24 436.49 1081.79 434.39 1081.79 434.39ZM1092.4 441.2C1092.4 435.11 1097.14 430.34 1103.41 430.34C1109.68 430.34 1114.42 435.11 1114.42 441.2C1114.42 447.47 1109.68 452.36 1103.41 452.36C1097.14 452.36 1092.4 447.47 1092.4 441.2ZM1096.39 441.2C1096.39 445.58 1099.51 448.82 1103.41 448.82C1107.31 448.82 1110.43 445.58 1110.43 441.2C1110.43 437 1107.31 433.88 1103.41 433.88C1099.51 433.88 1096.39 437 1096.39 441.2Z" fill="black"/>
<path d="M1062.01 379.754L1062.01 379.752C1064.34 374.916 1065.47 369.287 1065.47 362.907C1065.47 356.529 1064.34 350.909 1062.01 346.091C1059.7 341.277 1056.48 337.509 1052.35 334.844C1048.23 332.152 1043.5 330.822 1038.22 330.822C1032.95 330.822 1028.22 332.153 1024.08 334.843C1019.95 337.508 1016.73 341.278 1014.42 346.092L1014.42 346.095C1012.11 350.911 1010.99 356.53 1010.99 362.907C1010.99 369.285 1012.11 374.912 1014.42 379.747L1014.42 379.754C1016.74 384.548 1019.94 388.314 1024.05 390.998L1024.06 391.003C1028.2 393.673 1032.93 394.993 1038.22 394.993C1043.5 394.993 1048.22 393.673 1052.35 391.001L1052.35 391C1056.48 388.316 1059.69 384.55 1062.01 379.754ZM1057.18 362.907L1057.18 362.913C1057.2 368.077 1056.35 372.421 1054.68 375.993C1053 379.574 1050.73 382.251 1047.89 384.094L1047.89 384.097C1045.07 385.943 1041.86 386.876 1038.22 386.876C1034.57 386.876 1031.37 385.943 1028.54 384.099C1025.72 382.236 1023.46 379.547 1021.78 375.964C1020.11 372.41 1019.25 368.075 1019.25 362.907C1019.25 357.721 1020.11 353.377 1021.78 349.825C1023.48 346.241 1025.75 343.562 1028.57 341.718C1031.39 339.871 1034.59 338.939 1038.22 338.939C1041.86 338.939 1045.07 339.872 1047.89 341.718C1050.71 343.56 1052.97 346.246 1054.65 349.849L1054.65 349.851C1056.32 353.404 1057.18 357.74 1057.18 362.907ZM1056.04 376.63C1057.82 372.812 1058.7 368.238 1058.68 362.907L1056.04 376.63Z" fill="black" stroke="black" stroke-width="3"/>
<path d="M955.874 394.178H956.933L957.287 393.18L963.313 376.239H986.173L992.198 393.18L992.553 394.178H993.611H999.31H1001.45L1000.72 392.165L979.06 332.622L978.701 331.635H977.65H971.835H970.785L970.426 332.622L948.766 392.165L948.034 394.178H950.176H955.874ZM974.743 344.104L983.368 368.355H966.117L974.743 344.104Z" fill="black" stroke="black" stroke-width="3"/>
<path d="M889.873 392.678V394.178H891.373H908.817C914.985 394.178 920.332 392.945 924.793 390.406C929.267 387.869 932.672 384.221 934.991 379.502C937.325 374.773 938.46 369.176 938.46 362.761C938.46 356.408 937.355 350.871 935.082 346.201C932.807 341.529 929.506 337.909 925.187 335.388C920.881 332.862 915.752 331.635 909.864 331.635H891.373H889.873V333.135V392.678ZM927.772 350.119L927.774 350.125C929.352 353.589 930.179 357.787 930.198 362.764C930.198 367.775 929.362 372.007 927.748 375.507C926.148 378.978 923.767 381.619 920.591 383.474C917.426 385.323 913.421 386.293 908.497 386.293H898.31V339.52H909.544C914.168 339.52 917.934 340.466 920.922 342.269L920.925 342.271C923.942 344.082 926.223 346.68 927.772 350.119Z" fill="black" stroke="black" stroke-width="3"/>
<circle cx="464.77" cy="447.377" r="85.9347" stroke="black" stroke-width="2"/>
<path d="M417.293 438.688L455.601 409.359C460.33 405.738 466.884 405.681 471.676 409.22L511.584 438.688" stroke="black" stroke-width="2" stroke-linecap="round" stroke-linejoin="round"/>
<path d="M425.315 433.338V474.131C425.315 481.517 431.303 487.505 438.69 487.505H490.182C497.569 487.505 503.557 481.517 503.557 474.131V433.338" stroke="black" stroke-width="2" stroke-linecap="round" stroke-linejoin="round"/>
<path d="M440.695 440.023L455.073 428.989L469.785 440.023L482.156 428.989" stroke="black" stroke-width="2" stroke-linecap="round" stroke-linejoin="round"/>
<rect x="477.479" y="446.709" width="8.69347" height="32.099" rx="4.34674" fill="black"/>
<rect x="442.703" y="452.729" width="8.69347" height="26.0804" rx="4.34674" fill="black"/>
<rect x="460.091" y="448.718" width="8.69347" height="30.0928" rx="4.34674" fill="black"/>
<circle cx="512.916" cy="681.434" r="85.9347" stroke="black" stroke-width="2"/>
<path d="M512.918 634.623C511.702 639.486 499.787 649.213 491.033 649.213C482.279 649.213 475.227 649.213 472.795 649.213V685.689C472.795 707.574 486.656 727.271 512.918 733.107" stroke="black" stroke-width="2" stroke-linecap="round" stroke-linejoin="round"/>
<path d="M512.919 634.623C514.135 639.486 526.05 649.213 534.804 649.213C543.558 649.213 550.61 649.213 553.042 649.213V685.689C553.042 705.751 539.181 727.271 512.919 733.107" stroke="black" stroke-width="2" stroke-linecap="round" stroke-linejoin="round"/>
<path d="M500.74 680.027C499.742 679.029 498.124 679.029 497.126 680.027L492.401 684.752C491.403 685.75 491.403 687.368 492.401 688.366L507.494 703.46C508.492 704.458 510.11 704.458 511.108 703.46L534.598 679.97C535.595 678.973 535.595 677.355 534.598 676.357L529.872 671.631C528.874 670.633 527.256 670.633 526.258 671.631L509.753 688.136C509.504 688.386 509.099 688.386 508.85 688.136L500.74 680.027Z" fill="black"/>
<circle cx="512.916" cy="213.325" r="85.9347" stroke="black" stroke-width="2"/>
<ellipse cx="512.919" cy="172.394" rx="18.484" ry="10.5623" stroke="black" stroke-width="2"/>
<ellipse cx="512.919" cy="254.253" rx="18.484" ry="10.5623" stroke="black" stroke-width="2"/>
<ellipse cx="548.357" cy="192.858" rx="18.484" ry="10.5623" transform="rotate(60 548.357 192.858)" fill="black"/>
<ellipse cx="477.475" cy="233.79" rx="18.484" ry="10.5623" transform="rotate(60 477.475 233.79)" stroke="black" stroke-width="2"/>
<ellipse cx="548.359" cy="233.787" rx="18.484" ry="10.5623" transform="rotate(120 548.359 233.787)" stroke="black" stroke-width="2"/>
<ellipse cx="477.476" cy="192.86" rx="18.484" ry="10.5623" transform="rotate(120 477.476 192.86)" stroke="black" stroke-width="2"/>
<circle cx="1481.23" cy="447.377" r="85.9347" stroke="black" stroke-width="2"/>
<path d="M1445.78 489.933H1507.56C1513.62 489.933 1518.54 485.016 1518.54 478.951V410.313C1518.54 407.281 1516.08 404.822 1513.05 404.822H1460.2C1457.17 404.822 1454.71 407.281 1454.71 410.313V480.271C1454.71 485.607 1450.38 489.933 1445.05 489.933V489.933C1439.71 489.933 1435.38 485.607 1435.38 480.271V444.793C1435.38 441.002 1438.46 437.929 1442.25 437.929H1448.53" stroke="black" stroke-width="2" stroke-linecap="round" stroke-linejoin="round"/>
<path d="M1466.52 460.751H1506.65" stroke="black" stroke-width="2" stroke-linecap="round" stroke-linejoin="round"/>
<path d="M1466.52 448.717H1506.65" stroke="black" stroke-width="2" stroke-linecap="round" stroke-linejoin="round"/>
<path d="M1466.52 472.791H1506.65" stroke="black" stroke-width="2" stroke-linecap="round" stroke-linejoin="round"/>
<rect x="1466.52" y="416.617" width="40.1237" height="17.3869" rx="5.34983" fill="black"/>
<circle cx="1454.49" cy="681.434" r="85.9347" stroke="black" stroke-width="2"/>
<path d="M1432.1 659.581C1432.1 655.776 1435.19 652.691 1438.99 652.691H1448.46H1463.11L1463.97 655.275L1462.67 659.581L1457.08 668.194V671.639L1458.8 674.222H1463.11L1467.41 670.777V692.309H1432.1V659.581Z" fill="black"/>
<path d="M1413.29 698.521C1413.29 697.969 1412.85 697.521 1412.29 697.521C1411.74 697.521 1411.29 697.969 1411.29 698.521H1413.29ZM1486.5 700.381C1486.5 699.829 1486.05 699.381 1485.5 699.381C1484.95 699.381 1484.5 699.829 1484.5 700.381H1486.5ZM1484.5 700.381V716.572H1486.5V700.381H1484.5ZM1474.13 726.941H1423.66V728.941H1474.13V726.941ZM1413.29 716.572V698.521H1411.29V716.572H1413.29ZM1423.66 726.941C1417.94 726.941 1413.29 722.299 1413.29 716.572H1411.29C1411.29 723.403 1416.83 728.941 1423.66 728.941V726.941ZM1484.5 716.572C1484.5 722.299 1479.86 726.941 1474.13 726.941V728.941C1480.96 728.941 1486.5 723.403 1486.5 716.572H1484.5Z" fill="black"/>
<path d="M1422.58 680.042H1419.79C1417.26 680.042 1415.11 681.868 1414.69 684.359L1412.43 697.909C1411.91 701.059 1414.34 703.926 1417.53 703.926H1480.39C1483.54 703.926 1485.96 701.136 1485.51 698.021L1483.55 684.471C1483.19 681.929 1481.01 680.042 1478.44 680.042H1475.16" stroke="black" stroke-width="2" stroke-linecap="round" stroke-linejoin="round"/>
<path d="M1424.43 691.987H1473.53" stroke="black" stroke-width="2" stroke-linecap="round" stroke-linejoin="round"/>
<path d="M1486.33 638.668C1477.59 636 1461.61 631.332 1454.62 633.999C1448.68 636.268 1442.71 639.736 1439.01 644.214C1438.16 645.24 1438.95 646.671 1440.28 646.671H1451.38C1458.37 646.671 1463.89 648.238 1463.29 655.711C1462.97 659.744 1458.37 666.456 1457.74 667.345C1456.91 668.679 1456.5 671.347 1458.37 673.347C1460.08 675.18 1462.74 674.681 1464.61 673.347C1466.11 672.28 1472.1 665.344 1474.59 662.01C1476.76 662.01 1482.06 660.676 1485.95 655.341M1485.95 655.341C1485.98 656.412 1486.13 657.329 1486.45 658.008C1487.22 659.664 1490.27 660.891 1493.12 661.531C1495.63 662.094 1497.68 660.107 1497.83 657.543L1498.89 640.391C1499.09 637.104 1496.18 634.329 1492.98 635.134C1490.98 635.639 1489.13 636.335 1488.2 637.334C1486.1 639.579 1485.82 649.65 1485.95 655.341Z" stroke="black" stroke-width="2" stroke-linecap="round" stroke-linejoin="round"/>
<circle cx="1454.49" cy="213.325" r="85.9347" stroke="black" stroke-width="2"/>
<path d="M1433.08 226.03L1447.12 199.281L1460.5 226.03" stroke="black" stroke-width="2" stroke-linecap="round" stroke-linejoin="round"/>
<path d="M1437.1 218.672H1455.82" stroke="black" stroke-width="2" stroke-linecap="round" stroke-linejoin="round"/>
<path d="M1472.54 198.61V226.697" stroke="black" stroke-width="2" stroke-linecap="round" stroke-linejoin="round"/>
<path d="M1495.27 221.014V191.925C1495.27 180.845 1486.29 171.863 1475.21 171.863H1433.08C1422 171.863 1413.02 180.845 1413.02 191.925V234.055C1413.02 245.134 1422 254.116 1433.08 254.116H1461.5" stroke="black" stroke-width="2" stroke-linecap="round"/>
<path d="M1471.45 245.358C1470.54 244.921 1470.54 243.626 1471.45 243.188L1476.88 240.578C1479.34 239.394 1481.33 237.406 1482.52 234.942L1485.13 229.508C1485.56 228.598 1486.86 228.598 1487.3 229.508L1489.91 234.942C1491.09 237.406 1493.08 239.394 1495.54 240.578L1500.98 243.188C1501.89 243.626 1501.89 244.921 1500.98 245.358L1495.54 247.969C1493.08 249.153 1491.09 251.141 1489.91 253.605L1487.3 259.039C1486.86 259.948 1485.56 259.948 1485.13 259.039L1482.52 253.605C1481.33 251.141 1479.34 249.153 1476.88 247.969L1471.45 245.358Z" fill="black"/>
</svg>
