<svg width="1946" height="908" viewBox="0 0 1946 908" fill="none" xmlns="http://www.w3.org/2000/svg">
<path d="M1039.21 454.454L1229.57 348.964" stroke="#D6D6D6" stroke-width="2" stroke-linecap="round" stroke-linejoin="round"/>
<path d="M1490.43 467.888L1423.79 507.335" stroke="#D6D6D6" stroke-width="2" stroke-linecap="round" stroke-linejoin="round"/>
<path d="M1061.32 467.269L1146.11 422.496C1156.46 417.032 1168.83 416.961 1179.24 422.307L1383.77 527.335" stroke="#D6D6D6" stroke-width="2" stroke-linecap="round" stroke-linejoin="round"/>
<path d="M1612.94 424.929V446.448C1612.94 449.192 1611.37 451.695 1608.9 452.888L1551.31 480.692C1541.49 485.432 1530.04 485.432 1520.22 480.692L1462.74 452.943C1460.27 451.75 1458.7 449.248 1458.7 446.503V425.185" stroke="#D6D6D6" stroke-width="2" stroke-linecap="round" stroke-linejoin="round"/>
<path d="M1482.23 408.676L1462.58 418.84C1457.33 421.554 1457.45 429.102 1462.79 431.645L1520.41 459.122C1530.15 463.763 1541.46 463.763 1551.19 459.122L1608.81 431.645C1614.15 429.102 1614.27 421.554 1609.02 418.84L1590.39 409.204" stroke="black" stroke-width="2" stroke-linecap="round" stroke-linejoin="round"/>
<path d="M1599.73 352.559C1592.15 315.24 1562.96 290.189 1532.55 296.364L1512.43 299.93L1539.87 435.072L1548.95 433.294L1560.44 429.974C1570.4 426.654 1581.79 422.313 1590.46 409.289C1600.28 394.555 1604.09 374.031 1599.73 352.559Z" fill="#E9E9E9"/>
<ellipse cx="1525.98" cy="367.495" rx="56.1818" ry="68.9504" transform="rotate(-11.4795 1525.98 367.495)" fill="#F9F9F8" stroke="black" stroke-width="2"/>
<path d="M1539.66 435.095L1548.73 433.317L1560.22 429.997C1570.18 426.678 1581.57 422.336 1590.25 409.312C1600.06 394.578 1603.87 374.054 1599.51 352.582C1591.93 315.264 1562.74 290.213 1532.33 296.388L1512.21 299.953" stroke="black" stroke-width="2"/>
<ellipse cx="1524.68" cy="367.778" rx="42.6471" ry="56.1818" transform="rotate(-11.4795 1524.68 367.778)" stroke="black" stroke-width="2"/>
<ellipse cx="1516.35" cy="336.361" rx="10.8455" ry="8.582" transform="rotate(-11.4795 1516.35 336.361)" stroke="black" stroke-width="2"/>
<ellipse cx="1529.65" cy="401.525" rx="10.8455" ry="8.582" transform="rotate(-11.4795 1529.65 401.525)" stroke="black" stroke-width="2"/>
<ellipse cx="14.0916" cy="6.87158" rx="14.0916" ry="6.87158" transform="matrix(0.560815 0.827941 -0.641158 0.767409 1536.62 331.56)" stroke="black" stroke-width="2"/>
<ellipse cx="14.0916" cy="6.87158" rx="14.0916" ry="6.87158" transform="matrix(0.560815 0.827941 -0.641158 0.767409 1502.41 372.418)" stroke="black" stroke-width="2"/>
<ellipse cx="14.0916" cy="6.87158" rx="14.0916" ry="6.87158" transform="matrix(-0.193432 0.981114 -0.889714 -0.456519 1555.52 370.418)" stroke="black" stroke-width="2"/>
<ellipse cx="14.0916" cy="6.87158" rx="14.0916" ry="6.87158" transform="matrix(-0.193432 0.981114 -0.889714 -0.456519 1508.11 346.113)" stroke="black" stroke-width="2"/>
<path d="M758.269 349.614V371.133C758.269 373.877 756.699 376.379 754.227 377.572L696.633 405.376C686.813 410.117 675.366 410.117 665.546 405.376L608.066 377.627C605.595 376.434 604.024 373.932 604.024 371.188V349.869" stroke="#D6D6D6" stroke-width="2" stroke-linecap="round" stroke-linejoin="round"/>
<path d="M627.556 333.36L607.905 343.524C602.657 346.239 602.779 353.787 608.113 356.33L665.739 383.807C675.472 388.448 686.78 388.448 696.514 383.807L754.14 356.33C759.473 353.787 759.595 346.239 754.347 343.524L735.718 333.889" stroke="black" stroke-width="2" stroke-linecap="round" stroke-linejoin="round"/>
<path d="M744.73 277.559C737.151 240.24 707.96 215.189 677.552 221.364L657.43 224.93L684.874 360.072L693.947 358.294L705.438 354.974C715.398 351.654 726.787 347.313 735.463 334.289C745.278 319.555 749.09 299.031 744.73 277.559Z" fill="#E9E9E9"/>
<ellipse cx="671.306" cy="292.18" rx="56.1818" ry="68.9504" transform="rotate(-11.4795 671.306 292.18)" fill="#F9F9F8" stroke="black" stroke-width="2"/>
<path d="M684.982 359.78L694.054 358.002L705.546 354.683C715.505 351.363 726.894 347.021 735.57 333.997C745.386 319.263 749.198 298.739 744.837 277.267C737.258 239.949 708.068 214.898 677.66 221.073L657.537 224.638" stroke="black" stroke-width="2"/>
<ellipse cx="670.004" cy="292.463" rx="42.6471" ry="56.1818" transform="rotate(-11.4795 670.004 292.463)" stroke="black" stroke-width="2"/>
<ellipse cx="661.671" cy="261.046" rx="10.8455" ry="8.582" transform="rotate(-11.4795 661.671 261.046)" stroke="black" stroke-width="2"/>
<ellipse cx="674.974" cy="326.21" rx="10.8455" ry="8.582" transform="rotate(-11.4795 674.974 326.21)" stroke="black" stroke-width="2"/>
<ellipse cx="14.0916" cy="6.87158" rx="14.0916" ry="6.87158" transform="matrix(0.560815 0.827941 -0.641158 0.767409 681.941 256.245)" stroke="black" stroke-width="2"/>
<ellipse cx="14.0916" cy="6.87158" rx="14.0916" ry="6.87158" transform="matrix(0.560815 0.827941 -0.641158 0.767409 647.734 297.103)" stroke="black" stroke-width="2"/>
<ellipse cx="14.0916" cy="6.87158" rx="14.0916" ry="6.87158" transform="matrix(-0.193432 0.981114 -0.889714 -0.456519 700.846 295.103)" stroke="black" stroke-width="2"/>
<ellipse cx="14.0916" cy="6.87158" rx="14.0916" ry="6.87158" transform="matrix(-0.193432 0.981114 -0.889714 -0.456519 653.436 270.798)" stroke="black" stroke-width="2"/>
<path d="M1362.24 699.785V724.967C1362.24 728.178 1360.4 731.106 1357.51 732.502L1290.11 765.039C1278.62 770.587 1265.23 770.587 1253.74 765.039L1186.47 732.567C1183.58 731.171 1181.74 728.243 1181.74 725.032V700.084" stroke="#D6D6D6" stroke-width="2" stroke-linecap="round" stroke-linejoin="round"/>
<path d="M1209.19 680.731L1186.2 692.625C1180.06 695.802 1180.2 704.634 1186.44 707.61L1253.88 739.764C1265.27 745.195 1278.5 745.195 1289.89 739.764L1357.32 707.61C1363.56 704.634 1363.71 695.802 1357.57 692.625L1335.77 681.35" stroke="black" stroke-width="2" stroke-linecap="round" stroke-linejoin="round"/>
<path d="M1347.13 614.327C1338.25 570.603 1304.05 541.251 1268.42 548.487L1244.84 552.664L1277 711.005L1287.63 708.922L1301.09 705.032C1312.76 701.142 1326.11 696.056 1336.27 680.796C1347.77 663.532 1352.24 639.486 1347.13 614.327Z" fill="#E9E9E9"/>
<ellipse cx="1260.33" cy="632.596" rx="65.7445" ry="80.6864" transform="rotate(-11.4795 1260.33 632.596)" fill="#F9F9F8" stroke="black" stroke-width="2"/>
<path d="M1276.37 711.65L1286.99 709.569L1300.44 705.684C1312.09 701.799 1325.42 696.719 1335.57 681.478C1347.06 664.236 1351.52 640.219 1346.41 615.092C1337.55 571.422 1303.39 542.107 1267.8 549.333L1244.25 553.505" stroke="black" stroke-width="2"/>
<ellipse cx="1258.84" cy="632.908" rx="49.906" ry="65.7445" transform="rotate(-11.4795 1258.84 632.908)" stroke="black" stroke-width="2"/>
<ellipse cx="1249.01" cy="596.036" rx="12.7047" ry="10.0532" transform="rotate(-11.4795 1249.01 596.036)" stroke="black" stroke-width="2"/>
<ellipse cx="1264.51" cy="672.402" rx="12.7047" ry="10.0532" transform="rotate(-11.4795 1264.51 672.402)" stroke="black" stroke-width="2"/>
<ellipse cx="16.5073" cy="8.04957" rx="16.5073" ry="8.04957" transform="matrix(0.560815 0.827941 -0.641158 0.767409 1272.66 590.463)" stroke="black" stroke-width="2"/>
<ellipse cx="16.5073" cy="8.04957" rx="16.5073" ry="8.04957" transform="matrix(0.560815 0.827941 -0.641158 0.767409 1232.65 638.323)" stroke="black" stroke-width="2"/>
<ellipse cx="16.5073" cy="8.04957" rx="16.5073" ry="8.04957" transform="matrix(-0.193432 0.981114 -0.889714 -0.456519 1294.87 635.972)" stroke="black" stroke-width="2"/>
<ellipse cx="16.5073" cy="8.04957" rx="16.5073" ry="8.04957" transform="matrix(-0.193432 0.981114 -0.889714 -0.456519 1239.36 607.466)" stroke="black" stroke-width="2"/>
<path d="M390.218 529.45V554.632C390.218 557.843 392.056 560.771 394.948 562.167L462.346 594.704C473.837 600.252 487.232 600.252 498.723 594.704L565.987 562.232C568.879 560.836 570.717 557.908 570.717 554.697V529.749" stroke="#D6D6D6" stroke-width="2" stroke-linecap="round" stroke-linejoin="round"/>
<path d="M543.266 510.396L566.261 522.29C572.402 525.467 572.259 534.299 566.018 537.275L498.584 569.429C487.194 574.86 473.961 574.86 462.57 569.429L395.136 537.275C388.895 534.299 388.752 525.467 394.893 522.29L416.693 511.015" stroke="black" stroke-width="2" stroke-linecap="round" stroke-linejoin="round"/>
<path d="M406.941 444.327C415.82 400.602 450.022 371.251 485.65 378.486L509.227 382.664L477.071 541.004L466.441 538.921L452.977 535.031C441.308 531.142 427.964 526.055 417.798 510.795C406.298 493.532 401.832 469.485 406.941 444.327Z" fill="#E9E9E9"/>
<ellipse cx="65.7445" cy="80.6864" rx="65.7445" ry="80.6864" transform="matrix(-0.979996 -0.199018 -0.199018 0.979996 572.518 396.223)" fill="#F9F9F8" stroke="black" stroke-width="2"/>
<path d="M475.988 541.265L465.372 539.184L451.924 535.3C440.27 531.415 426.942 526.334 416.789 511.094C405.303 493.851 400.843 469.834 405.945 444.708C414.814 401.037 448.973 371.722 484.557 378.948L508.104 383.121" stroke="black" stroke-width="2"/>
<ellipse cx="49.906" cy="65.7445" rx="49.906" ry="65.7445" transform="matrix(-0.979996 -0.199018 -0.199018 0.979996 555.514 408.026)" stroke="black" stroke-width="2"/>
<ellipse cx="12.7047" cy="10.0532" rx="12.7047" ry="10.0532" transform="matrix(-0.979996 -0.199018 -0.199018 0.979996 517.806 418.377)" stroke="black" stroke-width="2"/>
<ellipse cx="12.7047" cy="10.0532" rx="12.7047" ry="10.0532" transform="matrix(-0.979996 -0.199018 -0.199018 0.979996 502.303 494.743)" stroke="black" stroke-width="2"/>
<ellipse cx="16.5073" cy="8.04958" rx="16.5073" ry="8.04958" transform="matrix(-0.560815 0.827941 0.641158 0.767409 479.698 420.128)" stroke="black" stroke-width="2"/>
<ellipse cx="16.5073" cy="8.04958" rx="16.5073" ry="8.04958" transform="matrix(-0.560815 0.827941 0.641158 0.767409 519.706 467.988)" stroke="black" stroke-width="2"/>
<ellipse cx="16.5073" cy="8.04958" rx="16.5073" ry="8.04958" transform="matrix(0.193432 0.981114 0.889714 -0.456519 457.494 465.637)" stroke="black" stroke-width="2"/>
<ellipse cx="16.5073" cy="8.04958" rx="16.5073" ry="8.04958" transform="matrix(0.193432 0.981114 0.889714 -0.456519 513.005 437.131)" stroke="black" stroke-width="2"/>
<path d="M1203.73 308.956V330.475C1203.73 333.219 1205.31 335.721 1207.78 336.914L1265.37 364.718C1275.19 369.459 1286.64 369.459 1296.46 364.718L1353.94 336.969C1356.41 335.776 1357.98 333.274 1357.98 330.53V309.211" stroke="#D6D6D6" stroke-width="2" stroke-linecap="round" stroke-linejoin="round"/>
<path d="M1334.45 292.652L1354.1 302.816C1359.35 305.531 1359.22 313.079 1353.89 315.622L1296.27 343.099C1286.53 347.74 1275.22 347.74 1265.49 343.099L1207.86 315.622C1202.53 313.079 1202.41 305.531 1207.66 302.816L1226.29 293.181" stroke="black" stroke-width="2" stroke-linecap="round" stroke-linejoin="round"/>
<path d="M1217.17 236.559C1224.75 199.241 1253.94 174.19 1284.35 180.365L1304.47 183.93L1277.02 319.072L1267.95 317.294L1256.46 313.974C1246.5 310.655 1235.11 306.313 1226.43 293.289C1216.62 278.555 1212.81 258.031 1217.17 236.559Z" fill="#E9E9E9" stroke="black" stroke-width="2"/>
<ellipse cx="56.1818" cy="68.9504" rx="56.1818" ry="68.9504" transform="matrix(-0.979996 -0.199018 -0.199018 0.979996 1359.48 195.132)" fill="#F9F9F8" stroke="black" stroke-width="2"/>
<path d="M1277.02 319.072L1267.95 317.294L1256.46 313.975C1246.5 310.655 1235.11 306.313 1226.43 293.289C1216.62 278.555 1212.81 258.031 1217.17 236.559C1224.75 199.241 1253.94 174.19 1284.35 180.365L1304.47 183.93" stroke="black" stroke-width="2"/>
<ellipse cx="42.6471" cy="56.1818" rx="42.6471" ry="56.1818" transform="matrix(-0.979996 -0.199018 -0.199018 0.979996 1344.98 205.234)" stroke="black" stroke-width="2"/>
<ellipse cx="10.8455" cy="8.582" rx="10.8455" ry="8.582" transform="matrix(-0.979996 -0.199018 -0.199018 0.979996 1312.77 214.086)" stroke="black" stroke-width="2"/>
<ellipse cx="10.8455" cy="8.582" rx="10.8455" ry="8.582" transform="matrix(-0.979996 -0.199018 -0.199018 0.979996 1299.47 279.3)" stroke="black" stroke-width="2"/>
<ellipse cx="14.0916" cy="6.87159" rx="14.0916" ry="6.87159" transform="matrix(-0.560815 0.827941 0.641158 0.767409 1280.26 215.587)" stroke="black" stroke-width="2"/>
<ellipse cx="14.0916" cy="6.87159" rx="14.0916" ry="6.87159" transform="matrix(-0.560815 0.827941 0.641158 0.767409 1314.37 256.445)" stroke="black" stroke-width="2"/>
<ellipse cx="14.0916" cy="6.87159" rx="14.0916" ry="6.87159" transform="matrix(0.193432 0.981114 0.889714 -0.456519 1261.26 254.395)" stroke="black" stroke-width="2"/>
<ellipse cx="14.0916" cy="6.87159" rx="14.0916" ry="6.87159" transform="matrix(0.193432 0.981114 0.889714 -0.456519 1308.67 230.09)" stroke="black" stroke-width="2"/>
<path d="M1039 572L1197 659" stroke="#D6D6D6" stroke-width="2" stroke-linecap="round" stroke-linejoin="round"/>
<path d="M857.556 462.786L730.251 389.272" stroke="#D6D6D6" stroke-width="2" stroke-linecap="round" stroke-linejoin="round"/>
<path d="M877.02 574.56L717.948 665.349C705.998 672.169 705.866 689.353 717.711 696.356L778 732" stroke="#D6D6D6" stroke-width="2" stroke-linecap="round" stroke-linejoin="round"/>
<path d="M853.666 562.007L686.852 653.486C675.452 659.738 661.561 659.329 650.548 652.419L533.61 579.041" stroke="#D6D6D6" stroke-width="2" stroke-linecap="round" stroke-linejoin="round"/>
<path d="M1359.5 546.345L1382.81 559.443L1377.72 577.963L1408.59 572.879L1434.01 587.041L1446.72 594.122L1448.63 595.187C1453.47 597.884 1459.43 594.384 1459.43 588.843V544.419C1459.43 533.955 1453.8 524.3 1444.69 519.142L1355.52 468.628C1350.68 465.886 1344.68 469.383 1344.68 474.948V521.019C1344.68 531.519 1350.34 541.202 1359.5 546.345Z" stroke="black" stroke-width="2"/>
<path d="M1446.19 599.36L1454.95 594.652L1453.67 587.863L1445.1 593.782L1446.19 599.36Z" fill="white"/>
<path d="M1455.76 595.264L1445.4 600.239" stroke="black" stroke-width="2"/>
<path d="M1349 468.238L1338.88 473.165" stroke="black" stroke-width="2"/>
<path d="M1349.3 469.09L1340.54 473.012L1342.61 479.04L1351.18 473.121L1349.3 469.09Z" fill="white"/>
<path d="M1349.89 551.096L1373.2 564.194L1368.12 582.714L1398.99 577.63L1439.03 599.938C1443.87 602.635 1449.82 599.135 1449.82 593.594V549.17C1449.82 538.706 1444.2 529.051 1435.09 523.893L1345.92 473.379C1341.07 470.637 1335.07 474.134 1335.07 479.699V525.77C1335.07 536.27 1340.74 545.953 1349.89 551.096Z" fill="black" stroke="black" stroke-width="2"/>
<path d="M1372.1 513.81L1372.95 513.273L1372.1 513.81L1401.05 559.303C1401.72 560.347 1403.05 560.732 1404.17 560.203L1408.42 558.192C1409.76 557.558 1410.23 555.892 1409.43 554.648L1380.16 509.201C1379.49 508.148 1378.13 507.775 1377.01 508.335L1373.08 510.3C1371.77 510.95 1371.32 512.583 1372.1 513.81Z" stroke="black" stroke-width="2"/>
<path d="M1381.59 546.464L1381.18 545.55L1381.59 546.464L1407.52 534.972C1408.94 534.347 1409.42 532.589 1408.54 531.324L1402.61 522.849C1401.94 521.893 1400.69 521.541 1399.62 522.007L1373.95 533.196C1372.56 533.8 1372.05 535.503 1372.87 536.774L1378.53 545.551C1379.19 546.566 1380.48 546.953 1381.59 546.464Z" fill="white" stroke="black" stroke-width="2"/>
<path d="M1372.1 513.81L1372.95 513.273L1372.1 513.81L1401.05 559.303C1401.72 560.347 1403.05 560.732 1404.17 560.203L1408.42 558.192C1409.76 557.558 1410.23 555.892 1409.43 554.648L1380.16 509.201C1379.49 508.148 1378.13 507.775 1377.01 508.335L1373.08 510.3C1371.77 510.95 1371.32 512.583 1372.1 513.81Z" fill="white" stroke="black" stroke-width="2"/>
<path d="M1400.02 522.924L1374.35 534.113C1373.53 534.471 1373.22 535.479 1373.71 536.232L1379.37 545.009C1379.76 545.61 1380.53 545.839 1381.18 545.55L1407.12 534.058C1407.95 533.688 1408.24 532.646 1407.72 531.897L1401.79 523.422C1401.39 522.856 1400.65 522.648 1400.02 522.924Z" fill="white"/>
<path d="M747.169 197.924L770.478 211.021L765.395 229.541L796.261 224.457L821.68 238.619L834.39 245.701L836.302 246.766C841.143 249.463 847.099 245.963 847.099 240.422V195.998C847.099 185.534 841.472 175.878 832.367 170.721L743.192 120.207C738.35 117.465 732.35 120.962 732.35 126.526V172.598C732.35 183.098 738.015 192.78 747.169 197.924Z" stroke="black" stroke-width="2"/>
<path d="M833.865 250.939L842.625 246.23L841.34 239.441L832.771 245.36L833.865 250.939Z" fill="white"/>
<path d="M736.972 120.619L728.212 124.541L730.282 130.569L738.852 124.65L736.972 120.619Z" fill="white"/>
<path d="M737.568 202.625L760.877 215.723L755.793 234.242L786.659 229.159L826.7 251.467C831.541 254.164 837.498 250.664 837.498 245.123V200.699C837.498 190.235 831.87 180.579 822.765 175.422L733.59 124.908C728.749 122.166 722.748 125.663 722.748 131.227V177.299C722.748 187.799 728.414 197.482 737.568 202.625Z" fill="black" stroke="black" stroke-width="2"/>
<path d="M781.358 203.184L774.459 206.452" stroke="black" stroke-width="2"/>
<path d="M776.46 206.744L776.055 205.83L776.46 206.744L802.398 195.253C803.81 194.627 804.3 192.869 803.414 191.604L797.482 183.129C796.813 182.173 795.563 181.821 794.493 182.288L768.824 193.476C767.438 194.081 766.924 195.783 767.743 197.054L773.406 205.831C774.061 206.846 775.357 207.233 776.46 206.744Z" fill="white" stroke="black" stroke-width="2"/>
<path d="M760.342 185.576L761.192 185.05L760.342 185.576L772.9 205.868C773.557 206.93 774.907 207.329 776.035 206.794L780.276 204.785C781.608 204.154 782.087 202.499 781.297 201.254L768.439 181C767.765 179.939 766.397 179.559 765.272 180.121L761.331 182.092C760.041 182.737 759.583 184.35 760.342 185.576Z" fill="white" stroke="black" stroke-width="2"/>
<path d="M794.892 183.204L769.224 194.393C768.403 194.751 768.098 195.759 768.584 196.512L774.247 205.289C774.634 205.89 775.402 206.12 776.055 205.83L801.993 194.338C802.829 193.968 803.119 192.927 802.595 192.177L796.663 183.703C796.266 183.137 795.526 182.928 794.892 183.204Z" fill="white"/>
<path d="M843.436 246.843L833.07 251.818" stroke="black" stroke-width="2"/>
<path d="M736.677 119.816L726.549 124.744" stroke="black" stroke-width="1.49419"/>
<path d="M917.404 744.399V765.918C917.404 768.662 915.833 771.164 913.362 772.357L855.768 800.162C845.948 804.902 834.501 804.902 824.681 800.162L767.201 772.412C764.73 771.219 763.159 768.717 763.159 765.973V744.654" stroke="#D6D6D6" stroke-width="2" stroke-linecap="round" stroke-linejoin="round"/>
<path d="M786.69 728.146L767.04 738.309C761.792 741.024 761.914 748.572 767.248 751.115L824.873 778.592C834.607 783.233 845.915 783.233 855.649 778.592L913.274 751.115C918.608 748.572 918.73 741.024 913.482 738.309L894.853 728.674" stroke="black" stroke-width="2" stroke-linecap="round" stroke-linejoin="round"/>
<path d="M903.73 672.559C896.151 635.24 866.96 610.189 836.552 616.364L816.43 619.93L843.874 755.072L852.947 753.294L864.438 749.974C874.398 746.654 885.787 742.313 894.463 729.289C904.278 714.555 908.09 694.031 903.73 672.559Z" fill="#E9E9E9"/>
<ellipse cx="830.44" cy="687.015" rx="56.1818" ry="68.9504" transform="rotate(-11.4795 830.44 687.015)" fill="#F9F9F8" stroke="black" stroke-width="2"/>
<path d="M844.216 754.566L853.288 752.788L864.78 749.468C874.74 746.148 886.129 741.807 894.805 728.783C904.62 714.048 908.432 693.525 904.071 672.052C896.493 634.734 867.302 609.683 836.894 615.858L816.771 619.423" stroke="black" stroke-width="2"/>
<ellipse cx="829.138" cy="687.248" rx="42.6471" ry="56.1818" transform="rotate(-11.4795 829.138 687.248)" stroke="black" stroke-width="2"/>
<ellipse cx="820.806" cy="655.831" rx="10.8455" ry="8.58201" transform="rotate(-11.4795 820.806 655.831)" stroke="black" stroke-width="2"/>
<ellipse cx="834.109" cy="721.045" rx="10.8455" ry="8.58201" transform="rotate(-11.4795 834.109 721.045)" stroke="black" stroke-width="2"/>
<ellipse cx="14.0916" cy="6.87159" rx="14.0916" ry="6.87159" transform="matrix(0.560815 0.827941 -0.641158 0.767409 840.977 651.08)" stroke="black" stroke-width="2"/>
<ellipse cx="14.0916" cy="6.87159" rx="14.0916" ry="6.87159" transform="matrix(0.560815 0.827941 -0.641158 0.767409 806.869 691.938)" stroke="black" stroke-width="2"/>
<ellipse cx="14.0916" cy="6.87159" rx="14.0916" ry="6.87159" transform="matrix(-0.193432 0.981114 -0.889714 -0.456519 859.98 689.888)" stroke="black" stroke-width="2"/>
<ellipse cx="14.0916" cy="6.87159" rx="14.0916" ry="6.87159" transform="matrix(-0.193432 0.981114 -0.889714 -0.456519 812.57 665.583)" stroke="black" stroke-width="2"/>
<path d="M1096.92 495.344V529.222C1096.92 535.348 1093.61 540.997 1088.27 543.999L986.493 601.214C966.836 612.264 942.84 612.264 923.183 601.214L821.613 544.118C816.273 541.116 812.968 535.466 812.968 529.34V495.891" stroke="#D6D6D6" stroke-width="2" stroke-linecap="round" stroke-linejoin="round"/>
<path d="M1033.85 451.535L1060.43 466.538L1081.98 479.166L1090.29 483.983C1099.05 489.061 1098.83 501.782 1089.9 506.555L985.412 562.401C966.385 572.571 943.538 572.571 924.511 562.401L820.025 506.555C811.096 501.782 810.876 489.061 819.635 483.983L828.866 478.631L875.769 453.404" stroke="black" stroke-width="2" stroke-linecap="round" stroke-linejoin="round"/>
<path d="M1034 489.243C1034 514.99 998.583 535.861 954.891 535.861C911.199 535.861 875.78 514.99 875.78 489.243" stroke="black" stroke-width="2" stroke-linecap="round" stroke-linejoin="round"/>
<path d="M875.78 442.883V489.23" stroke="black" stroke-width="2"/>
<path d="M1034.01 442.883V489.23" stroke="black" stroke-width="2"/>
<ellipse cx="954.891" cy="442.192" rx="79.1107" ry="46.6188" fill="#F9F9F8" stroke="black" stroke-width="2" stroke-linecap="round" stroke-linejoin="round"/>
<ellipse cx="955" cy="439" rx="61" ry="35" stroke="black" stroke-width="2" stroke-linecap="round" stroke-linejoin="round"/>
<path d="M1011.5 400.5L997 413.5L991.5 417L986 418.5L977 413.5V404L989 394L1011.5 400.5Z" fill="#F9F9F8"/>
<g clip-path="url(#clip0_90_11935)">
<path d="M917.116 442.566H993.49" stroke="#D6D6D6" stroke-width="10" stroke-linecap="round" stroke-linejoin="round"/>
<path d="M940.859 377.636C942.764 371.218 949.511 367.56 955.929 369.465L971.906 374.207L996.599 381.537L996.758 386.325L992.424 392.941L978.671 404.664L976.946 410.474L978.558 415.694L985.821 417.85L994.808 414.195L986.412 442.479L922 442.479L924.476 432.831L940.859 377.636Z" fill="black"/>
<path d="M1041.69 367.623C1028.06 359.112 1003.04 343.903 989.947 345.254C978.815 346.403 967.09 349.579 958.755 355.501C956.845 356.858 957.543 359.651 959.806 360.257L978.671 365.312C990.539 368.492 999.205 373.669 994.784 386.096C992.398 392.801 981.53 402.113 980.065 403.34C978.044 405.228 976.122 409.572 978.392 413.824C980.472 417.72 985.207 418.08 988.996 416.665C992.026 415.534 1005.36 406.475 1011.12 401.945C1014.8 402.931 1024.42 403.079 1033.46 395.784M1033.46 395.784C1033.02 397.617 1032.86 399.245 1033.09 400.544C1033.66 403.71 1038.28 407.185 1042.83 409.571C1046.84 411.668 1051.22 409.223 1052.65 404.938L1062.26 376.271C1064.1 370.777 1060.41 364.735 1054.61 364.649C1050.98 364.595 1047.53 364.938 1045.48 366.209C1040.89 369.067 1035.83 386.055 1033.46 395.784Z" stroke="black" stroke-width="2" stroke-linecap="round" stroke-linejoin="round"/>
<path d="M940.574 425.997L938.822 412.507L941.263 413.054L942.179 421.801C942.264 422.576 942.226 423.73 942.244 423.733L942.279 423.741C942.297 423.745 942.756 422.686 943.163 422.021L947.744 414.507L950.168 415.051L942.822 426.501L940.574 425.997ZM949.416 421.339C950.215 417.773 953.616 415.603 957.287 416.426C960.958 417.249 963.107 420.664 962.307 424.23C961.484 427.901 958.067 430.141 954.396 429.318C950.725 428.495 948.592 425.01 949.416 421.339ZM951.751 421.863C951.176 424.427 952.578 426.733 954.861 427.246C957.144 427.758 959.396 426.27 959.971 423.706C960.523 421.247 959.106 419.011 956.822 418.499C954.539 417.987 952.303 419.404 951.751 421.863ZM965.676 431.626L968.036 421.106L963.943 420.188L964.38 418.238L974.831 420.582L974.394 422.532L970.301 421.614L967.942 432.134L965.676 431.626ZM973.677 433.421L976.474 420.95L983.938 422.624L983.501 424.574L978.302 423.408L977.57 426.675L981.767 427.616L981.33 429.566L977.133 428.625L976.38 431.979L981.86 433.208L981.423 435.158L973.677 433.421Z" fill="white"/>
</g>
<defs>
<clipPath id="clip0_90_11935">
<rect width="200" height="200" fill="white" transform="translate(866 323)"/>
</clipPath>
</defs>
</svg>
