<svg width="1946" height="741" viewBox="0 0 1946 741" fill="none" xmlns="http://www.w3.org/2000/svg">
<rect x="66" y="339" width="277" height="160" rx="64" stroke="black" stroke-width="2" stroke-linecap="round"/>
<path d="M86.2454 400.7V399.47H90.0854V400.46C90.0854 402.98 91.4654 403.82 92.9054 403.82C94.3454 403.82 95.6354 402.95 95.6354 400.64V389.03H90.1454V385.7H99.5054V400.7C99.5054 405.35 96.1454 407.36 92.8454 407.36C89.5754 407.36 86.2454 405.29 86.2454 400.7ZM102.892 399.35C102.892 394.67 106.642 391.34 111.292 391.34C115.972 391.34 119.722 394.67 119.722 399.35C119.722 404.06 115.972 407.36 111.322 407.36C106.642 407.36 102.892 404.06 102.892 399.35ZM106.762 399.35C106.762 402.2 108.832 404.12 111.322 404.12C113.782 404.12 115.852 402.2 115.852 399.35C115.852 396.53 113.782 394.58 111.322 394.58C108.832 394.58 106.762 396.53 106.762 399.35ZM122.782 389.09V385.7H126.562V389.09H122.782ZM122.782 407V391.7H126.592V407H122.782ZM130.78 407V391.7H134.44V393.47C134.44 394.04 134.38 394.52 134.38 394.52H134.44C135.1 393.23 136.78 391.34 139.87 391.34C143.26 391.34 145.18 393.11 145.18 397.16V407H141.4V397.94C141.4 396.08 140.92 394.82 138.97 394.82C136.93 394.82 135.43 396.11 134.86 397.94C134.65 398.57 134.59 399.26 134.59 399.98V407H130.78ZM157.073 407V385.7H164.333C170.903 385.7 175.193 389.6 175.193 396.32C175.193 403.04 170.903 407 164.333 407H157.073ZM160.943 403.67H164.123C168.443 403.67 171.203 401.12 171.203 396.32C171.203 391.58 168.383 389.03 164.123 389.03H160.943V403.67ZM191.524 407L189.724 401.54H182.254L180.454 407H176.464L183.964 385.7H188.014L195.514 407H191.524ZM186.034 389.39H185.974C185.974 389.39 185.494 391.49 185.074 392.69L183.184 398.39H188.764L186.874 392.69C186.484 391.49 186.034 389.39 186.034 389.39ZM196.648 396.2C196.648 390.11 201.388 385.34 207.658 385.34C213.928 385.34 218.668 390.11 218.668 396.2C218.668 402.47 213.928 407.36 207.658 407.36C201.388 407.36 196.648 402.47 196.648 396.2ZM200.638 396.2C200.638 400.58 203.758 403.82 207.658 403.82C211.558 403.82 214.678 400.58 214.678 396.2C214.678 392 211.558 388.88 207.658 388.88C203.758 388.88 200.638 392 200.638 396.2ZM225.43 409.85C223.21 406.22 221.86 401.63 221.86 396.71C221.86 392.39 223.15 388.37 225.43 384.77H228.64C226.45 388.46 225.25 392.51 225.25 396.74C225.25 401.21 226.39 405.71 228.64 409.85H225.43ZM245.337 385.7L249.117 400.43C249.447 401.66 249.477 402.68 249.507 402.68H249.567C249.567 402.68 249.657 401.63 249.927 400.43L253.437 385.7H257.427L251.937 407H247.467L244.197 394.4C243.837 393.02 243.657 391.61 243.657 391.61H243.597C243.597 391.61 243.417 393.02 243.057 394.4L239.787 407H235.317L229.977 385.7H233.967L237.327 400.43C237.597 401.63 237.687 402.68 237.687 402.68H237.747C237.777 402.68 237.807 401.66 238.137 400.43L241.977 385.7H245.337ZM259.222 404.51L261.202 401.54C261.202 401.54 263.212 403.7 266.032 403.7C268.252 403.7 269.872 402.35 269.872 400.52C269.872 398.27 267.802 397.22 265.312 397.22H263.842L262.972 395.24L266.872 390.62C267.712 389.63 268.402 389 268.402 389V388.94C268.402 388.94 267.772 389.03 266.512 389.03H260.152V385.7H273.172V388.13L267.952 394.16C270.892 394.58 273.772 396.68 273.772 400.37C273.772 404 271.012 407.36 266.272 407.36C261.742 407.36 259.222 404.51 259.222 404.51ZM276.478 404.45L278.578 401.54C278.578 401.54 280.888 403.79 283.888 403.79C285.508 403.79 286.978 402.95 286.978 401.21C286.978 397.4 276.928 398.06 276.928 391.52C276.928 387.98 279.988 385.34 284.068 385.34C288.268 385.34 290.428 387.62 290.428 387.62L288.748 390.77C288.748 390.77 286.708 388.91 284.038 388.91C282.238 388.91 280.828 389.96 280.828 391.46C280.828 395.24 290.848 394.31 290.848 401.12C290.848 404.51 288.268 407.36 283.828 407.36C279.088 407.36 276.478 404.45 276.478 404.45ZM294.71 407V385.7H301.97C308.54 385.7 312.83 389.6 312.83 396.32C312.83 403.04 308.54 407 301.97 407H294.71ZM298.58 403.67H301.76C306.08 403.67 308.84 401.12 308.84 396.32C308.84 391.58 306.02 389.03 301.76 389.03H298.58V403.67ZM317.968 409.85H314.758C316.978 405.71 318.147 401.21 318.147 396.74C318.147 392.51 316.948 388.46 314.758 384.77H317.968C320.248 388.37 321.538 392.39 321.538 396.71C321.538 401.63 320.188 406.22 317.968 409.85ZM116.143 452L114.343 446.54H106.873L105.073 452H101.083L108.583 430.7H112.633L120.133 452H116.143ZM110.653 434.39H110.593C110.593 434.39 110.113 436.49 109.693 437.69L107.803 443.39H113.383L111.493 437.69C111.103 436.49 110.653 434.39 110.653 434.39ZM122.254 452V436.7H125.914V438.47C125.914 439.04 125.854 439.52 125.854 439.52H125.914C126.574 438.23 128.254 436.34 131.344 436.34C134.734 436.34 136.654 438.11 136.654 442.16V452H132.874V442.94C132.874 441.08 132.394 439.82 130.444 439.82C128.404 439.82 126.904 441.11 126.334 442.94C126.124 443.57 126.064 444.26 126.064 444.98V452H122.254ZM139.603 444.35C139.603 439.49 142.483 436.34 146.533 436.34C149.893 436.34 150.943 438.29 150.943 438.29H151.003C151.003 438.29 150.973 437.9 150.973 437.42V430.7H154.783V452H151.183V450.74C151.183 450.17 151.243 449.75 151.243 449.75H151.183C151.183 449.75 149.893 452.36 146.383 452.36C142.243 452.36 139.603 449.09 139.603 444.35ZM143.443 444.35C143.443 447.26 145.003 449.15 147.253 449.15C149.233 449.15 151.093 447.71 151.093 444.32C151.093 441.95 149.833 439.61 147.283 439.61C145.183 439.61 143.443 441.32 143.443 444.35ZM165.448 441.32C165.448 435.14 170.098 430.34 176.428 430.34C181.648 430.34 184.348 433.04 184.348 433.04L182.428 435.92C182.428 435.92 180.148 433.88 176.758 433.88C171.988 433.88 169.438 437.18 169.438 441.2C169.438 445.82 172.588 448.82 176.578 448.82C179.788 448.82 181.918 446.6 181.918 446.6V444.11H178.648V440.78H185.398V452H182.098V450.98C182.098 450.53 182.128 450.08 182.128 450.08H182.068C182.068 450.08 179.848 452.36 175.888 452.36C170.278 452.36 165.448 448.01 165.448 441.32ZM188 444.35C188 439.64 191.21 436.34 195.77 436.34C200.18 436.34 202.55 439.55 202.55 443.6C202.55 444.05 202.46 445.07 202.46 445.07H191.9C192.14 447.74 194.21 449.12 196.49 449.12C198.95 449.12 200.9 447.44 200.9 447.44L202.37 450.17C202.37 450.17 200.03 452.36 196.22 452.36C191.15 452.36 188 448.7 188 444.35ZM192.02 442.46H198.71C198.65 440.39 197.36 439.28 195.68 439.28C193.73 439.28 192.38 440.48 192.02 442.46ZM206.352 446.39V439.97H204.372V436.94H206.442V432.53H210.162V436.94H213.642V439.97H210.162V445.91C210.162 448.43 212.142 448.79 213.192 448.79C213.612 448.79 213.882 448.73 213.882 448.73V452.06C213.882 452.06 213.432 452.15 212.712 452.15C210.582 452.15 206.352 451.52 206.352 446.39ZM229.305 452V434.03H222.315V430.7H240.165V434.03H233.175V452H229.305ZM238.829 444.35C238.829 439.67 242.579 436.34 247.229 436.34C251.909 436.34 255.659 439.67 255.659 444.35C255.659 449.06 251.909 452.36 247.259 452.36C242.579 452.36 238.829 449.06 238.829 444.35ZM242.699 444.35C242.699 447.2 244.769 449.12 247.259 449.12C249.719 449.12 251.789 447.2 251.789 444.35C251.789 441.53 249.719 439.58 247.259 439.58C244.769 439.58 242.699 441.53 242.699 444.35ZM258.719 452V430.7H262.529V442.1H264.419L268.109 436.7H272.339L267.509 443.54V443.6L272.939 452H268.559L264.509 445.31H262.529V452H258.719ZM273.958 444.35C273.958 439.64 277.168 436.34 281.728 436.34C286.138 436.34 288.508 439.55 288.508 443.6C288.508 444.05 288.418 445.07 288.418 445.07H277.858C278.098 447.74 280.168 449.12 282.448 449.12C284.908 449.12 286.858 447.44 286.858 447.44L288.328 450.17C288.328 450.17 285.988 452.36 282.178 452.36C277.108 452.36 273.958 448.7 273.958 444.35ZM277.978 442.46H284.668C284.608 440.39 283.318 439.28 281.638 439.28C279.688 439.28 278.338 440.48 277.978 442.46ZM291.649 452V436.7H295.309V438.47C295.309 439.04 295.249 439.52 295.249 439.52H295.309C295.969 438.23 297.649 436.34 300.739 436.34C304.129 436.34 306.049 438.11 306.049 442.16V452H302.269V442.94C302.269 441.08 301.789 439.82 299.839 439.82C297.799 439.82 296.299 441.11 295.729 442.94C295.519 443.57 295.459 444.26 295.459 444.98V452H291.649Z" fill="black"/>
<rect x="1137" y="200" width="278" height="167" rx="66.8" stroke="black" stroke-width="2" stroke-linecap="round"/>
<path d="M1206.97 269.45L1209.07 266.54C1209.07 266.54 1211.38 268.79 1214.38 268.79C1216 268.79 1217.47 267.95 1217.47 266.21C1217.47 262.4 1207.42 263.06 1207.42 256.52C1207.42 252.98 1210.48 250.34 1214.56 250.34C1218.76 250.34 1220.92 252.62 1220.92 252.62L1219.24 255.77C1219.24 255.77 1217.2 253.91 1214.53 253.91C1212.73 253.91 1211.32 254.96 1211.32 256.46C1211.32 260.24 1221.34 259.31 1221.34 266.12C1221.34 269.51 1218.76 272.36 1214.32 272.36C1209.58 272.36 1206.97 269.45 1206.97 269.45ZM1225.26 266.39V259.97H1223.28V256.94H1225.35V252.53H1229.07V256.94H1232.55V259.97H1229.07V265.91C1229.07 268.43 1231.05 268.79 1232.1 268.79C1232.52 268.79 1232.79 268.73 1232.79 268.73V272.06C1232.79 272.06 1232.34 272.15 1231.62 272.15C1229.49 272.15 1225.26 271.52 1225.26 266.39ZM1234.77 264.35C1234.77 259.67 1238.52 256.34 1243.17 256.34C1247.85 256.34 1251.6 259.67 1251.6 264.35C1251.6 269.06 1247.85 272.36 1243.2 272.36C1238.52 272.36 1234.77 269.06 1234.77 264.35ZM1238.64 264.35C1238.64 267.2 1240.71 269.12 1243.2 269.12C1245.66 269.12 1247.73 267.2 1247.73 264.35C1247.73 261.53 1245.66 259.58 1243.2 259.58C1240.71 259.58 1238.64 261.53 1238.64 264.35ZM1254.66 272V256.7H1258.32V259.34C1258.32 259.91 1258.26 260.42 1258.26 260.42H1258.32C1259.01 258.23 1260.84 256.49 1263.18 256.49C1263.54 256.49 1263.87 256.55 1263.87 256.55V260.3C1263.87 260.3 1263.48 260.24 1262.97 260.24C1261.35 260.24 1259.52 261.17 1258.8 263.45C1258.56 264.2 1258.47 265.04 1258.47 265.94V272H1254.66ZM1265.36 264.35C1265.36 259.64 1268.57 256.34 1273.13 256.34C1277.54 256.34 1279.91 259.55 1279.91 263.6C1279.91 264.05 1279.82 265.07 1279.82 265.07H1269.26C1269.5 267.74 1271.57 269.12 1273.85 269.12C1276.31 269.12 1278.26 267.44 1278.26 267.44L1279.73 270.17C1279.73 270.17 1277.39 272.36 1273.58 272.36C1268.51 272.36 1265.36 268.7 1265.36 264.35ZM1269.38 262.46H1276.07C1276.01 260.39 1274.72 259.28 1273.04 259.28C1271.09 259.28 1269.74 260.48 1269.38 262.46ZM1290.95 272V250.7H1297.82C1300.13 250.7 1301.18 250.88 1302.11 251.3C1304.24 252.26 1305.59 254.3 1305.59 257.12C1305.59 259.67 1304.24 262.04 1301.99 262.94V263C1301.99 263 1302.29 263.3 1302.71 264.05L1307.09 272H1302.77L1298.54 264.05H1294.82V272H1290.95ZM1294.82 260.69H1298.3C1300.37 260.69 1301.66 259.46 1301.66 257.33C1301.66 255.29 1300.79 254.03 1297.76 254.03H1294.82V260.69ZM1310.09 254.09V250.7H1313.87V254.09H1310.09ZM1310.09 272V256.7H1313.9V272H1310.09ZM1316.8 270.11L1318.54 267.44C1318.54 267.44 1320.22 269.12 1322.71 269.12C1323.79 269.12 1324.72 268.64 1324.72 267.74C1324.72 265.46 1317.28 265.76 1317.28 260.84C1317.28 257.99 1319.83 256.34 1323.13 256.34C1326.58 256.34 1328.26 258.08 1328.26 258.08L1326.85 260.9C1326.85 260.9 1325.44 259.58 1323.1 259.58C1322.11 259.58 1321.15 260 1321.15 260.96C1321.15 263.12 1328.59 262.85 1328.59 267.77C1328.59 270.32 1326.37 272.36 1322.74 272.36C1318.93 272.36 1316.8 270.11 1316.8 270.11ZM1331.65 272V250.7H1335.46V262.1H1337.35L1341.04 256.7H1345.27L1340.44 263.54V263.6L1345.87 272H1341.49L1337.44 265.31H1335.46V272H1331.65ZM1171.76 317L1169.96 311.54H1162.49L1160.69 317H1156.7L1164.2 295.7H1168.25L1175.75 317H1171.76ZM1166.27 299.39H1166.21C1166.21 299.39 1165.73 301.49 1165.31 302.69L1163.42 308.39H1169L1167.11 302.69C1166.72 301.49 1166.27 299.39 1166.27 299.39ZM1176.83 309.35C1176.83 304.49 1179.71 301.34 1183.76 301.34C1187.12 301.34 1188.17 303.29 1188.17 303.29H1188.23C1188.23 303.29 1188.2 302.9 1188.2 302.42V295.7H1192.01V317H1188.41V315.74C1188.41 315.17 1188.47 314.75 1188.47 314.75H1188.41C1188.41 314.75 1187.12 317.36 1183.61 317.36C1179.47 317.36 1176.83 314.09 1176.83 309.35ZM1180.67 309.35C1180.67 312.26 1182.23 314.15 1184.48 314.15C1186.46 314.15 1188.32 312.71 1188.32 309.32C1188.32 306.95 1187.06 304.61 1184.51 304.61C1182.41 304.61 1180.67 306.32 1180.67 309.35ZM1195.17 309.35C1195.17 304.49 1198.05 301.34 1202.1 301.34C1205.46 301.34 1206.51 303.29 1206.51 303.29H1206.57C1206.57 303.29 1206.54 302.9 1206.54 302.42V295.7H1210.35V317H1206.75V315.74C1206.75 315.17 1206.81 314.75 1206.81 314.75H1206.75C1206.75 314.75 1205.46 317.36 1201.95 317.36C1197.81 317.36 1195.17 314.09 1195.17 309.35ZM1199.01 309.35C1199.01 312.26 1200.57 314.15 1202.82 314.15C1204.8 314.15 1206.66 312.71 1206.66 309.32C1206.66 306.95 1205.4 304.61 1202.85 304.61C1200.75 304.61 1199.01 306.32 1199.01 309.35ZM1214.56 317V301.7H1218.22V304.34C1218.22 304.91 1218.16 305.42 1218.16 305.42H1218.22C1218.91 303.23 1220.74 301.49 1223.08 301.49C1223.44 301.49 1223.77 301.55 1223.77 301.55V305.3C1223.77 305.3 1223.38 305.24 1222.87 305.24C1221.25 305.24 1219.42 306.17 1218.7 308.45C1218.46 309.2 1218.37 310.04 1218.37 310.94V317H1214.56ZM1225.25 309.35C1225.25 304.64 1228.46 301.34 1233.02 301.34C1237.43 301.34 1239.8 304.55 1239.8 308.6C1239.8 309.05 1239.71 310.07 1239.71 310.07H1229.15C1229.39 312.74 1231.46 314.12 1233.74 314.12C1236.2 314.12 1238.15 312.44 1238.15 312.44L1239.62 315.17C1239.62 315.17 1237.28 317.36 1233.47 317.36C1228.4 317.36 1225.25 313.7 1225.25 309.35ZM1229.27 307.46H1235.96C1235.9 305.39 1234.61 304.28 1232.93 304.28C1230.98 304.28 1229.63 305.48 1229.27 307.46ZM1241.65 315.11L1243.39 312.44C1243.39 312.44 1245.07 314.12 1247.56 314.12C1248.64 314.12 1249.57 313.64 1249.57 312.74C1249.57 310.46 1242.13 310.76 1242.13 305.84C1242.13 302.99 1244.68 301.34 1247.98 301.34C1251.43 301.34 1253.11 303.08 1253.11 303.08L1251.7 305.9C1251.7 305.9 1250.29 304.58 1247.95 304.58C1246.96 304.58 1246 305 1246 305.96C1246 308.12 1253.44 307.85 1253.44 312.77C1253.44 315.32 1251.22 317.36 1247.59 317.36C1243.78 317.36 1241.65 315.11 1241.65 315.11ZM1255.22 315.11L1256.96 312.44C1256.96 312.44 1258.64 314.12 1261.13 314.12C1262.21 314.12 1263.14 313.64 1263.14 312.74C1263.14 310.46 1255.7 310.76 1255.7 305.84C1255.7 302.99 1258.25 301.34 1261.55 301.34C1265 301.34 1266.68 303.08 1266.68 303.08L1265.27 305.9C1265.27 305.9 1263.86 304.58 1261.52 304.58C1260.53 304.58 1259.57 305 1259.57 305.96C1259.57 308.12 1267.01 307.85 1267.01 312.77C1267.01 315.32 1264.79 317.36 1261.16 317.36C1257.35 317.36 1255.22 315.11 1255.22 315.11ZM1276.5 306.2C1276.5 300.11 1281.24 295.34 1287.51 295.34C1293.78 295.34 1298.52 300.11 1298.52 306.2C1298.52 312.47 1293.78 317.36 1287.51 317.36C1281.24 317.36 1276.5 312.47 1276.5 306.2ZM1280.49 306.2C1280.49 310.58 1283.61 313.82 1287.51 313.82C1291.41 313.82 1294.53 310.58 1294.53 306.2C1294.53 302 1291.41 298.88 1287.51 298.88C1283.61 298.88 1280.49 302 1280.49 306.2ZM1301.86 317V301.7H1305.52V303.47C1305.52 304.04 1305.46 304.52 1305.46 304.52H1305.52C1306.18 303.23 1307.86 301.34 1310.95 301.34C1314.34 301.34 1316.26 303.11 1316.26 307.16V317H1312.48V307.94C1312.48 306.08 1312 304.82 1310.05 304.82C1308.01 304.82 1306.51 306.11 1305.94 307.94C1305.73 308.57 1305.67 309.26 1305.67 309.98V317H1301.86ZM1319.15 309.35C1319.15 305 1322.39 301.34 1327.46 301.34C1331.45 301.34 1333.34 303.62 1333.34 303.62L1331.66 306.23C1331.66 306.23 1330.07 304.58 1327.67 304.58C1324.85 304.58 1323.02 306.71 1323.02 309.32C1323.02 311.9 1324.88 314.12 1327.79 314.12C1330.37 314.12 1332.29 312.17 1332.29 312.17L1333.76 314.87C1333.76 314.87 1331.57 317.36 1327.46 317.36C1322.39 317.36 1319.15 313.79 1319.15 309.35ZM1336.61 317V295.7H1340.42V303.08C1340.42 303.83 1340.36 304.37 1340.36 304.37H1340.42C1341.17 302.9 1343.03 301.34 1345.7 301.34C1349.09 301.34 1351.01 303.11 1351.01 307.16V317H1347.23V307.94C1347.23 306.08 1346.75 304.82 1344.8 304.82C1342.79 304.82 1341.23 306.14 1340.66 308C1340.48 308.6 1340.42 309.26 1340.42 309.98V317H1336.61ZM1353.71 312.59C1353.71 307.73 1360.28 307.4 1362.77 307.4H1363.28V307.19C1363.28 305.18 1362.02 304.49 1360.34 304.49C1358.15 304.49 1356.14 305.96 1356.14 305.96L1354.7 303.23C1354.7 303.23 1357.07 301.34 1360.7 301.34C1364.72 301.34 1367.06 303.56 1367.06 307.43V317H1363.55V315.74C1363.55 315.14 1363.61 314.66 1363.61 314.66H1363.55C1363.58 314.66 1362.38 317.36 1358.9 317.36C1356.17 317.36 1353.71 315.65 1353.71 312.59ZM1357.55 312.41C1357.55 313.43 1358.3 314.39 1359.86 314.39C1361.87 314.39 1363.31 312.23 1363.31 310.37V310.01H1362.65C1360.7 310.01 1357.55 310.28 1357.55 312.41ZM1371.03 299.09V295.7H1374.81V299.09H1371.03ZM1371.03 317V301.7H1374.84V317H1371.03ZM1379.03 317V301.7H1382.69V303.47C1382.69 304.04 1382.63 304.52 1382.63 304.52H1382.69C1383.35 303.23 1385.03 301.34 1388.12 301.34C1391.51 301.34 1393.43 303.11 1393.43 307.16V317H1389.65V307.94C1389.65 306.08 1389.17 304.82 1387.22 304.82C1385.18 304.82 1383.68 306.11 1383.11 307.94C1382.9 308.57 1382.84 309.26 1382.84 309.98V317H1379.03Z" fill="black"/>
<path d="M954.575 321.761C956.393 320.746 958.607 320.746 960.425 321.761L1129.93 413.761C1134.02 416.051 1134.02 421.949 1129.93 424.239L960.425 516.239C958.607 517.254 956.393 517.254 954.575 516.239L785.075 424.239C780.975 421.949 780.975 416.051 785.075 413.761L954.575 321.761Z" stroke="black" stroke-width="2" stroke-linecap="round"/>
<path d="M875.41 396.26C875.41 390.08 880.09 385.34 886.36 385.34C891.55 385.34 894.22 388.25 894.22 388.25L892.36 391.13C892.36 391.13 889.93 388.88 886.54 388.88C882.04 388.88 879.4 392.24 879.4 396.2C879.4 400.25 882.13 403.82 886.57 403.82C890.26 403.82 892.75 401.12 892.75 401.12L894.79 403.91C894.79 403.91 891.85 407.36 886.42 407.36C879.91 407.36 875.41 402.53 875.41 396.26ZM896.614 399.35C896.614 394.67 900.364 391.34 905.014 391.34C909.694 391.34 913.444 394.67 913.444 399.35C913.444 404.06 909.694 407.36 905.044 407.36C900.364 407.36 896.614 404.06 896.614 399.35ZM900.484 399.35C900.484 402.2 902.554 404.12 905.044 404.12C907.504 404.12 909.574 402.2 909.574 399.35C909.574 396.53 907.504 394.58 905.044 394.58C902.554 394.58 900.484 396.53 900.484 399.35ZM916.504 407V391.7H920.164V393.47C920.164 394.04 920.104 394.52 920.104 394.52H920.164C920.914 393.02 922.744 391.34 925.144 391.34C927.484 391.34 928.984 392.42 929.614 394.49H929.674C930.514 392.84 932.494 391.34 934.894 391.34C938.074 391.34 939.904 393.14 939.904 397.16V407H936.094V397.88C936.094 396.14 935.764 394.82 933.994 394.82C932.044 394.82 930.754 396.38 930.304 398.3C930.154 398.9 930.124 399.56 930.124 400.28V407H926.314V397.88C926.314 396.23 926.044 394.82 924.244 394.82C922.264 394.82 920.974 396.38 920.494 398.33C920.344 398.9 920.314 399.59 920.314 400.28V407H916.504ZM943.897 407V391.7H947.557V393.47C947.557 394.04 947.497 394.52 947.497 394.52H947.557C948.307 393.02 950.137 391.34 952.537 391.34C954.877 391.34 956.377 392.42 957.007 394.49H957.067C957.907 392.84 959.887 391.34 962.287 391.34C965.467 391.34 967.297 393.14 967.297 397.16V407H963.487V397.88C963.487 396.14 963.157 394.82 961.387 394.82C959.437 394.82 958.147 396.38 957.697 398.3C957.547 398.9 957.517 399.56 957.517 400.28V407H953.707V397.88C953.707 396.23 953.437 394.82 951.637 394.82C949.657 394.82 948.367 396.38 947.887 398.33C947.737 398.9 947.707 399.59 947.707 400.28V407H943.897ZM971.079 401.54V391.7H974.889V400.76C974.889 402.62 975.369 403.88 977.259 403.88C980.019 403.88 981.549 401.45 981.549 398.72V391.7H985.359V407H981.699V405.26C981.699 404.66 981.759 404.18 981.759 404.18H981.699C980.949 405.77 978.999 407.36 976.389 407.36C973.119 407.36 971.079 405.71 971.079 401.54ZM989.571 407V391.7H993.231V393.47C993.231 394.04 993.171 394.52 993.171 394.52H993.231C993.891 393.23 995.571 391.34 998.661 391.34C1002.05 391.34 1003.97 393.11 1003.97 397.16V407H1000.19V397.94C1000.19 396.08 999.711 394.82 997.761 394.82C995.721 394.82 994.221 396.11 993.651 397.94C993.441 398.57 993.381 399.26 993.381 399.98V407H989.571ZM1007.97 389.09V385.7H1011.75V389.09H1007.97ZM1007.97 407V391.7H1011.78V407H1007.97ZM1016.63 401.39V394.97H1014.65V391.94H1016.72V387.53H1020.44V391.94H1023.92V394.97H1020.44V400.91C1020.44 403.43 1022.42 403.79 1023.47 403.79C1023.89 403.79 1024.16 403.73 1024.16 403.73V407.06C1024.16 407.06 1023.71 407.15 1022.99 407.15C1020.86 407.15 1016.63 406.52 1016.63 401.39ZM1025.21 412.31L1026.47 409.46C1026.47 409.46 1027.31 410.09 1028.18 410.09C1029.23 410.09 1030.25 409.46 1030.82 408.11L1031.39 406.76L1024.94 391.7H1029.23L1032.44 400.52C1032.74 401.33 1033.01 402.59 1033.01 402.59H1033.07C1033.07 402.59 1033.31 401.39 1033.58 400.58L1036.58 391.7H1040.75L1033.91 409.31C1032.83 412.1 1030.7 413.3 1028.39 413.3C1026.56 413.3 1025.21 412.31 1025.21 412.31ZM918.746 452L910.976 430.7H915.146L919.826 444.59C920.246 445.82 920.606 447.71 920.636 447.71H920.696C920.726 447.71 921.086 445.82 921.506 444.59L926.216 430.7H930.356L922.586 452H918.746ZM930.394 444.35C930.394 439.67 934.144 436.34 938.794 436.34C943.474 436.34 947.224 439.67 947.224 444.35C947.224 449.06 943.474 452.36 938.824 452.36C934.144 452.36 930.394 449.06 930.394 444.35ZM934.264 444.35C934.264 447.2 936.334 449.12 938.824 449.12C941.284 449.12 943.354 447.2 943.354 444.35C943.354 441.53 941.284 439.58 938.824 439.58C936.334 439.58 934.264 441.53 934.264 444.35ZM950.944 446.39V439.97H948.964V436.94H951.034V432.53H954.754V436.94H958.234V439.97H954.754V445.91C954.754 448.43 956.734 448.79 957.784 448.79C958.204 448.79 958.474 448.73 958.474 448.73V452.06C958.474 452.06 958.024 452.15 957.304 452.15C955.174 452.15 950.944 451.52 950.944 446.39ZM961.592 434.09V430.7H965.372V434.09H961.592ZM961.592 452V436.7H965.402V452H961.592ZM969.59 452V436.7H973.25V438.47C973.25 439.04 973.19 439.52 973.19 439.52H973.25C973.91 438.23 975.59 436.34 978.68 436.34C982.07 436.34 983.99 438.11 983.99 442.16V452H980.21V442.94C980.21 441.08 979.73 439.82 977.78 439.82C975.74 439.82 974.24 441.11 973.67 442.94C973.46 443.57 973.4 444.26 973.4 444.98V452H969.59ZM989.549 454.07C989.549 454.07 991.469 455.06 993.779 455.06C996.119 455.06 998.099 454.07 998.099 451.34V450.44C998.099 450.08 998.159 449.63 998.159 449.63H998.099C997.199 450.98 995.879 451.7 993.839 451.7C989.459 451.7 986.969 448.16 986.969 443.96C986.969 439.76 989.339 436.34 993.749 436.34C997.079 436.34 998.279 438.29 998.279 438.29H998.369C998.369 438.29 998.339 438.11 998.339 437.87V436.7H1001.91V451.07C1001.91 456.32 997.829 458.3 993.839 458.3C991.919 458.3 989.879 457.76 988.409 456.98L989.549 454.07ZM994.649 448.49C996.479 448.49 998.189 447.44 998.189 443.99C998.189 440.51 996.479 439.58 994.409 439.58C992.099 439.58 990.809 441.26 990.809 443.84C990.809 446.51 992.189 448.49 994.649 448.49Z" fill="black"/>
<rect x="425" y="338" width="277" height="161" rx="64" stroke="black" stroke-width="2" stroke-linecap="round"/>
<path d="M485.292 396.26C485.292 390.08 489.972 385.34 496.242 385.34C501.432 385.34 504.102 388.25 504.102 388.25L502.242 391.13C502.242 391.13 499.812 388.88 496.422 388.88C491.922 388.88 489.282 392.24 489.282 396.2C489.282 400.25 492.012 403.82 496.452 403.82C500.142 403.82 502.632 401.12 502.632 401.12L504.672 403.91C504.672 403.91 501.732 407.36 496.302 407.36C489.792 407.36 485.292 402.53 485.292 396.26ZM507.636 407V391.7H511.296V394.34C511.296 394.91 511.236 395.42 511.236 395.42H511.296C511.986 393.23 513.816 391.49 516.156 391.49C516.516 391.49 516.846 391.55 516.846 391.55V395.3C516.846 395.3 516.456 395.24 515.946 395.24C514.326 395.24 512.496 396.17 511.776 398.45C511.536 399.2 511.446 400.04 511.446 400.94V407H507.636ZM518.333 399.35C518.333 394.64 521.543 391.34 526.103 391.34C530.513 391.34 532.883 394.55 532.883 398.6C532.883 399.05 532.793 400.07 532.793 400.07H522.233C522.473 402.74 524.543 404.12 526.823 404.12C529.283 404.12 531.233 402.44 531.233 402.44L532.703 405.17C532.703 405.17 530.363 407.36 526.553 407.36C521.483 407.36 518.333 403.7 518.333 399.35ZM522.353 397.46H529.043C528.983 395.39 527.693 394.28 526.013 394.28C524.063 394.28 522.713 395.48 522.353 397.46ZM534.735 402.59C534.735 397.73 541.305 397.4 543.795 397.4H544.305V397.19C544.305 395.18 543.045 394.49 541.365 394.49C539.175 394.49 537.165 395.96 537.165 395.96L535.725 393.23C535.725 393.23 538.095 391.34 541.725 391.34C545.745 391.34 548.085 393.56 548.085 397.43V407H544.575V405.74C544.575 405.14 544.635 404.66 544.635 404.66H544.575C544.605 404.66 543.405 407.36 539.925 407.36C537.195 407.36 534.735 405.65 534.735 402.59ZM538.575 402.41C538.575 403.43 539.325 404.39 540.885 404.39C542.895 404.39 544.335 402.23 544.335 400.37V400.01H543.675C541.725 400.01 538.575 400.28 538.575 402.41ZM552.622 401.39V394.97H550.642V391.94H552.712V387.53H556.432V391.94H559.912V394.97H556.432V400.91C556.432 403.43 558.412 403.79 559.462 403.79C559.882 403.79 560.152 403.73 560.152 403.73V407.06C560.152 407.06 559.702 407.15 558.982 407.15C556.852 407.15 552.622 406.52 552.622 401.39ZM562.191 399.35C562.191 394.64 565.401 391.34 569.961 391.34C574.371 391.34 576.741 394.55 576.741 398.6C576.741 399.05 576.651 400.07 576.651 400.07H566.091C566.331 402.74 568.401 404.12 570.681 404.12C573.141 404.12 575.091 402.44 575.091 402.44L576.561 405.17C576.561 405.17 574.221 407.36 570.411 407.36C565.341 407.36 562.191 403.7 562.191 399.35ZM566.211 397.46H572.901C572.841 395.39 571.551 394.28 569.871 394.28C567.921 394.28 566.571 395.48 566.211 397.46ZM587.777 407V385.7H594.647C596.957 385.7 598.007 385.88 598.937 386.3C601.067 387.26 602.417 389.3 602.417 392.12C602.417 394.67 601.067 397.04 598.817 397.94V398C598.817 398 599.117 398.3 599.537 399.05L603.917 407H599.597L595.367 399.05H591.647V407H587.777ZM591.647 395.69H595.127C597.197 395.69 598.487 394.46 598.487 392.33C598.487 390.29 597.617 389.03 594.587 389.03H591.647V395.69ZM606.923 389.09V385.7H610.703V389.09H606.923ZM606.923 407V391.7H610.733V407H606.923ZM613.631 405.11L615.371 402.44C615.371 402.44 617.051 404.12 619.541 404.12C620.621 404.12 621.551 403.64 621.551 402.74C621.551 400.46 614.111 400.76 614.111 395.84C614.111 392.99 616.661 391.34 619.961 391.34C623.411 391.34 625.091 393.08 625.091 393.08L623.681 395.9C623.681 395.9 622.271 394.58 619.931 394.58C618.941 394.58 617.981 395 617.981 395.96C617.981 398.12 625.421 397.85 625.421 402.77C625.421 405.32 623.201 407.36 619.571 407.36C615.761 407.36 613.631 405.11 613.631 405.11ZM628.486 407V385.7H632.296V397.1H634.186L637.876 391.7H642.106L637.276 398.54V398.6L642.706 407H638.326L634.276 400.31H632.296V407H628.486ZM457.213 452L455.413 446.54H447.943L446.143 452H442.153L449.653 430.7H453.703L461.203 452H457.213ZM451.723 434.39H451.663C451.663 434.39 451.183 436.49 450.763 437.69L448.873 443.39H454.453L452.563 437.69C452.173 436.49 451.723 434.39 451.723 434.39ZM462.275 444.35C462.275 439.49 465.155 436.34 469.205 436.34C472.565 436.34 473.615 438.29 473.615 438.29H473.675C473.675 438.29 473.645 437.9 473.645 437.42V430.7H477.455V452H473.855V450.74C473.855 450.17 473.915 449.75 473.915 449.75H473.855C473.855 449.75 472.565 452.36 469.055 452.36C464.915 452.36 462.275 449.09 462.275 444.35ZM466.115 444.35C466.115 447.26 467.675 449.15 469.925 449.15C471.905 449.15 473.765 447.71 473.765 444.32C473.765 441.95 472.505 439.61 469.955 439.61C467.855 439.61 466.115 441.32 466.115 444.35ZM480.614 444.35C480.614 439.49 483.494 436.34 487.544 436.34C490.904 436.34 491.954 438.29 491.954 438.29H492.014C492.014 438.29 491.984 437.9 491.984 437.42V430.7H495.794V452H492.194V450.74C492.194 450.17 492.254 449.75 492.254 449.75H492.194C492.194 449.75 490.904 452.36 487.394 452.36C483.254 452.36 480.614 449.09 480.614 444.35ZM484.454 444.35C484.454 447.26 486.014 449.15 488.264 449.15C490.244 449.15 492.104 447.71 492.104 444.32C492.104 441.95 490.844 439.61 488.294 439.61C486.194 439.61 484.454 441.32 484.454 444.35ZM500.004 452V436.7H503.664V439.34C503.664 439.91 503.604 440.42 503.604 440.42H503.664C504.354 438.23 506.184 436.49 508.524 436.49C508.884 436.49 509.214 436.55 509.214 436.55V440.3C509.214 440.3 508.824 440.24 508.314 440.24C506.694 440.24 504.864 441.17 504.144 443.45C503.904 444.2 503.814 445.04 503.814 445.94V452H500.004ZM510.702 444.35C510.702 439.64 513.912 436.34 518.472 436.34C522.882 436.34 525.252 439.55 525.252 443.6C525.252 444.05 525.162 445.07 525.162 445.07H514.602C514.842 447.74 516.912 449.12 519.192 449.12C521.652 449.12 523.602 447.44 523.602 447.44L525.072 450.17C525.072 450.17 522.732 452.36 518.922 452.36C513.852 452.36 510.702 448.7 510.702 444.35ZM514.722 442.46H521.412C521.352 440.39 520.062 439.28 518.382 439.28C516.432 439.28 515.082 440.48 514.722 442.46ZM527.103 450.11L528.843 447.44C528.843 447.44 530.523 449.12 533.013 449.12C534.093 449.12 535.023 448.64 535.023 447.74C535.023 445.46 527.583 445.76 527.583 440.84C527.583 437.99 530.133 436.34 533.433 436.34C536.883 436.34 538.563 438.08 538.563 438.08L537.153 440.9C537.153 440.9 535.743 439.58 533.403 439.58C532.413 439.58 531.453 440 531.453 440.96C531.453 443.12 538.893 442.85 538.893 447.77C538.893 450.32 536.673 452.36 533.043 452.36C529.233 452.36 527.103 450.11 527.103 450.11ZM540.667 450.11L542.407 447.44C542.407 447.44 544.087 449.12 546.577 449.12C547.657 449.12 548.587 448.64 548.587 447.74C548.587 445.46 541.147 445.76 541.147 440.84C541.147 437.99 543.697 436.34 546.997 436.34C550.447 436.34 552.127 438.08 552.127 438.08L550.717 440.9C550.717 440.9 549.307 439.58 546.967 439.58C545.977 439.58 545.017 440 545.017 440.96C545.017 443.12 552.457 442.85 552.457 447.77C552.457 450.32 550.237 452.36 546.607 452.36C542.797 452.36 540.667 450.11 540.667 450.11ZM563.417 452V430.7H571.637C575.627 430.7 578.417 433.49 578.417 437.63C578.417 441.77 575.627 444.65 571.637 444.65H567.287V452H563.417ZM567.287 441.29H570.917C573.167 441.29 574.487 439.85 574.487 437.63C574.487 435.44 573.167 434.03 570.977 434.03H567.287V441.29ZM581.245 452V436.7H584.905V439.34C584.905 439.91 584.845 440.42 584.845 440.42H584.905C585.595 438.23 587.425 436.49 589.765 436.49C590.125 436.49 590.455 436.55 590.455 436.55V440.3C590.455 440.3 590.065 440.24 589.555 440.24C587.935 440.24 586.105 441.17 585.385 443.45C585.145 444.2 585.055 445.04 585.055 445.94V452H581.245ZM591.882 444.35C591.882 439.67 595.632 436.34 600.282 436.34C604.962 436.34 608.712 439.67 608.712 444.35C608.712 449.06 604.962 452.36 600.312 452.36C595.632 452.36 591.882 449.06 591.882 444.35ZM595.752 444.35C595.752 447.2 597.822 449.12 600.312 449.12C602.772 449.12 604.842 447.2 604.842 444.35C604.842 441.53 602.772 439.58 600.312 439.58C597.822 439.58 595.752 441.53 595.752 444.35ZM611.772 458V436.7H615.252V437.81C615.252 438.38 615.192 438.86 615.192 438.86H615.252C615.252 438.86 616.572 436.34 620.172 436.34C624.312 436.34 626.952 439.61 626.952 444.35C626.952 449.21 623.982 452.36 619.962 452.36C616.932 452.36 615.582 450.26 615.582 450.26H615.522C615.522 450.26 615.582 450.8 615.582 451.58V458H611.772ZM615.462 444.44C615.462 446.81 616.752 449.15 619.272 449.15C621.372 449.15 623.112 447.44 623.112 444.41C623.112 441.5 621.552 439.61 619.302 439.61C617.322 439.61 615.462 441.05 615.462 444.44ZM628.972 444.35C628.972 439.67 632.722 436.34 637.372 436.34C642.052 436.34 645.802 439.67 645.802 444.35C645.802 449.06 642.052 452.36 637.402 452.36C632.722 452.36 628.972 449.06 628.972 444.35ZM632.842 444.35C632.842 447.2 634.912 449.12 637.402 449.12C639.862 449.12 641.932 447.2 641.932 444.35C641.932 441.53 639.862 439.58 637.402 439.58C634.912 439.58 632.842 441.53 632.842 444.35ZM647.572 450.11L649.312 447.44C649.312 447.44 650.992 449.12 653.482 449.12C654.562 449.12 655.492 448.64 655.492 447.74C655.492 445.46 648.052 445.76 648.052 440.84C648.052 437.99 650.602 436.34 653.902 436.34C657.352 436.34 659.032 438.08 659.032 438.08L657.622 440.9C657.622 440.9 656.212 439.58 653.872 439.58C652.882 439.58 651.922 440 651.922 440.96C651.922 443.12 659.362 442.85 659.362 447.77C659.362 450.32 657.142 452.36 653.512 452.36C649.702 452.36 647.572 450.11 647.572 450.11ZM661.136 447.59C661.136 442.73 667.706 442.4 670.196 442.4H670.706V442.19C670.706 440.18 669.446 439.49 667.766 439.49C665.576 439.49 663.566 440.96 663.566 440.96L662.126 438.23C662.126 438.23 664.496 436.34 668.126 436.34C672.146 436.34 674.486 438.56 674.486 442.43V452H670.976V450.74C670.976 450.14 671.036 449.66 671.036 449.66H670.976C671.006 449.66 669.806 452.36 666.326 452.36C663.596 452.36 661.136 450.65 661.136 447.59ZM664.976 447.41C664.976 448.43 665.726 449.39 667.286 449.39C669.296 449.39 670.736 447.23 670.736 445.37V445.01H670.076C668.126 445.01 664.976 445.28 664.976 447.41ZM678.242 447.23V430.7H682.022V446.66C682.022 448.34 682.592 448.76 683.582 448.76C683.882 448.76 684.152 448.73 684.152 448.73V452.06C684.152 452.06 683.582 452.15 682.952 452.15C680.852 452.15 678.242 451.61 678.242 447.23Z" fill="black"/>
<path d="M956.5 316.5C956.5 317.052 956.948 317.5 957.5 317.5C958.052 317.5 958.5 317.052 958.5 316.5H956.5ZM1007.44 284.5C1007.99 284.5 1008.44 284.052 1008.44 283.5C1008.44 282.948 1007.99 282.5 1007.44 282.5V284.5ZM1082.56 282.5C1082.01 282.5 1081.56 282.948 1081.56 283.5C1081.56 284.052 1082.01 284.5 1082.56 284.5V282.5ZM1133.21 284.207C1133.6 283.817 1133.6 283.183 1133.21 282.793L1126.84 276.429C1126.45 276.038 1125.82 276.038 1125.43 276.429C1125.04 276.819 1125.04 277.453 1125.43 277.843L1131.09 283.5L1125.43 289.157C1125.04 289.547 1125.04 290.181 1125.43 290.571C1125.82 290.962 1126.45 290.962 1126.84 290.571L1133.21 284.207ZM958.5 316.5V307.5H956.5V316.5H958.5ZM981.5 284.5H1007.44V282.5H981.5V284.5ZM1082.56 284.5H1132.5V282.5H1082.56V284.5ZM958.5 307.5C958.5 294.797 968.797 284.5 981.5 284.5V282.5C967.693 282.5 956.5 293.693 956.5 307.5H958.5Z" fill="black"/>
<path d="M1028.81 294V285.09L1021.73 272.7H1026.11L1029.44 278.97C1030.13 280.29 1030.7 281.85 1030.73 281.82H1030.79C1030.79 281.82 1031.39 280.29 1032.08 278.97L1035.38 272.7H1039.76L1032.68 285.09V294H1028.81ZM1039.18 286.35C1039.18 281.64 1042.39 278.34 1046.95 278.34C1051.36 278.34 1053.73 281.55 1053.73 285.6C1053.73 286.05 1053.64 287.07 1053.64 287.07H1043.08C1043.32 289.74 1045.39 291.12 1047.67 291.12C1050.13 291.12 1052.08 289.44 1052.08 289.44L1053.55 292.17C1053.55 292.17 1051.21 294.36 1047.4 294.36C1042.33 294.36 1039.18 290.7 1039.18 286.35ZM1043.2 284.46H1049.89C1049.83 282.39 1048.54 281.28 1046.86 281.28C1044.91 281.28 1043.56 282.48 1043.2 284.46ZM1055.58 292.11L1057.32 289.44C1057.32 289.44 1059 291.12 1061.49 291.12C1062.57 291.12 1063.5 290.64 1063.5 289.74C1063.5 287.46 1056.06 287.76 1056.06 282.84C1056.06 279.99 1058.61 278.34 1061.91 278.34C1065.36 278.34 1067.04 280.08 1067.04 280.08L1065.63 282.9C1065.63 282.9 1064.22 281.58 1061.88 281.58C1060.89 281.58 1059.93 282 1059.93 282.96C1059.93 285.12 1067.37 284.85 1067.37 289.77C1067.37 292.32 1065.15 294.36 1061.52 294.36C1057.71 294.36 1055.58 292.11 1055.58 292.11Z" fill="black"/>
<path d="M706.5 418C705.948 418 705.5 418.448 705.5 419C705.5 419.552 705.948 420 706.5 420V418ZM778.207 419.707C778.598 419.317 778.598 418.683 778.207 418.293L771.843 411.929C771.453 411.538 770.819 411.538 770.429 411.929C770.038 412.319 770.038 412.953 770.429 413.343L776.086 419L770.429 424.657C770.038 425.047 770.038 425.681 770.429 426.071C770.819 426.462 771.453 426.462 771.843 426.071L778.207 419.707ZM706.5 420H777.5V418H706.5V420Z" fill="black"/>
<path d="M347.5 417.5C346.948 417.5 346.5 417.948 346.5 418.5C346.5 419.052 346.948 419.5 347.5 419.5V417.5ZM421.207 419.207C421.598 418.817 421.598 418.183 421.207 417.793L414.843 411.429C414.453 411.038 413.819 411.038 413.429 411.429C413.038 411.819 413.038 412.453 413.429 412.843L419.086 418.5L413.429 424.157C413.038 424.547 413.038 425.181 413.429 425.571C413.819 425.962 414.453 425.962 414.843 425.571L421.207 419.207ZM347.5 419.5H420.5V417.5H347.5V419.5Z" fill="black"/>
<rect x="1137" y="471" width="264" height="167" rx="66.8" stroke="black" stroke-width="2" stroke-linecap="round"/>
<path d="M1172.47 543V521.7H1179.34C1181.65 521.7 1182.7 521.88 1183.63 522.3C1185.76 523.26 1187.11 525.3 1187.11 528.12C1187.11 530.67 1185.76 533.04 1183.51 533.94V534C1183.51 534 1183.81 534.3 1184.23 535.05L1188.61 543H1184.29L1180.06 535.05H1176.34V543H1172.47ZM1176.34 531.69H1179.82C1181.89 531.69 1183.18 530.46 1183.18 528.33C1183.18 526.29 1182.31 525.03 1179.28 525.03H1176.34V531.69ZM1190.39 535.35C1190.39 530.64 1193.6 527.34 1198.16 527.34C1202.57 527.34 1204.94 530.55 1204.94 534.6C1204.94 535.05 1204.85 536.07 1204.85 536.07H1194.29C1194.53 538.74 1196.6 540.12 1198.88 540.12C1201.34 540.12 1203.29 538.44 1203.29 538.44L1204.76 541.17C1204.76 541.17 1202.42 543.36 1198.61 543.36C1193.54 543.36 1190.39 539.7 1190.39 535.35ZM1194.41 533.46H1201.1C1201.04 531.39 1199.75 530.28 1198.07 530.28C1196.12 530.28 1194.77 531.48 1194.41 533.46ZM1211.08 543L1206.4 527.7H1210.42L1213.09 537.75C1213.3 538.56 1213.39 539.37 1213.39 539.37H1213.45C1213.45 539.37 1213.6 538.56 1213.81 537.75L1216.63 527.73H1220.02L1222.84 537.75C1223.05 538.56 1223.17 539.37 1223.17 539.37H1223.23C1223.23 539.37 1223.35 538.56 1223.56 537.75L1226.23 527.7H1230.19L1225.54 543H1221.31L1218.73 534.27C1218.49 533.46 1218.34 532.62 1218.34 532.62H1218.28C1218.28 532.62 1218.16 533.46 1217.92 534.27L1215.34 543H1211.08ZM1231.43 538.59C1231.43 533.73 1238 533.4 1240.49 533.4H1241V533.19C1241 531.18 1239.74 530.49 1238.06 530.49C1235.87 530.49 1233.86 531.96 1233.86 531.96L1232.42 529.23C1232.42 529.23 1234.79 527.34 1238.42 527.34C1242.44 527.34 1244.78 529.56 1244.78 533.43V543H1241.27V541.74C1241.27 541.14 1241.33 540.66 1241.33 540.66H1241.27C1241.3 540.66 1240.1 543.36 1236.62 543.36C1233.89 543.36 1231.43 541.65 1231.43 538.59ZM1235.27 538.41C1235.27 539.43 1236.02 540.39 1237.58 540.39C1239.59 540.39 1241.03 538.23 1241.03 536.37V536.01H1240.37C1238.42 536.01 1235.27 536.28 1235.27 538.41ZM1248.75 543V527.7H1252.41V530.34C1252.41 530.91 1252.35 531.42 1252.35 531.42H1252.41C1253.1 529.23 1254.93 527.49 1257.27 527.49C1257.63 527.49 1257.96 527.55 1257.96 527.55V531.3C1257.96 531.3 1257.57 531.24 1257.06 531.24C1255.44 531.24 1253.61 532.17 1252.89 534.45C1252.65 535.2 1252.56 536.04 1252.56 536.94V543H1248.75ZM1259.47 535.35C1259.47 530.49 1262.35 527.34 1266.4 527.34C1269.76 527.34 1270.81 529.29 1270.81 529.29H1270.87C1270.87 529.29 1270.84 528.9 1270.84 528.42V521.7H1274.65V543H1271.05V541.74C1271.05 541.17 1271.11 540.75 1271.11 540.75H1271.05C1271.05 540.75 1269.76 543.36 1266.25 543.36C1262.11 543.36 1259.47 540.09 1259.47 535.35ZM1263.31 535.35C1263.31 538.26 1264.87 540.15 1267.12 540.15C1269.1 540.15 1270.96 538.71 1270.96 535.32C1270.96 532.95 1269.7 530.61 1267.15 530.61C1265.05 530.61 1263.31 532.32 1263.31 535.35ZM1291.8 543L1284.03 521.7H1288.2L1292.88 535.59C1293.3 536.82 1293.66 538.71 1293.69 538.71H1293.75C1293.78 538.71 1294.14 536.82 1294.56 535.59L1299.27 521.7H1303.41L1295.64 543H1291.8ZM1303.45 535.35C1303.45 530.67 1307.2 527.34 1311.85 527.34C1316.53 527.34 1320.28 530.67 1320.28 535.35C1320.28 540.06 1316.53 543.36 1311.88 543.36C1307.2 543.36 1303.45 540.06 1303.45 535.35ZM1307.32 535.35C1307.32 538.2 1309.39 540.12 1311.88 540.12C1314.34 540.12 1316.41 538.2 1316.41 535.35C1316.41 532.53 1314.34 530.58 1311.88 530.58C1309.39 530.58 1307.32 532.53 1307.32 535.35ZM1324 537.39V530.97H1322.02V527.94H1324.09V523.53H1327.81V527.94H1331.29V530.97H1327.81V536.91C1327.81 539.43 1329.79 539.79 1330.84 539.79C1331.26 539.79 1331.53 539.73 1331.53 539.73V543.06C1331.53 543.06 1331.08 543.15 1330.36 543.15C1328.23 543.15 1324 542.52 1324 537.39ZM1333.56 535.35C1333.56 530.64 1336.77 527.34 1341.33 527.34C1345.74 527.34 1348.11 530.55 1348.11 534.6C1348.11 535.05 1348.02 536.07 1348.02 536.07H1337.46C1337.7 538.74 1339.77 540.12 1342.05 540.12C1344.51 540.12 1346.46 538.44 1346.46 538.44L1347.93 541.17C1347.93 541.17 1345.59 543.36 1341.78 543.36C1336.71 543.36 1333.56 539.7 1333.56 535.35ZM1337.58 533.46H1344.27C1344.21 531.39 1342.92 530.28 1341.24 530.28C1339.29 530.28 1337.94 531.48 1337.58 533.46ZM1351.26 543V527.7H1354.92V530.34C1354.92 530.91 1354.86 531.42 1354.86 531.42H1354.92C1355.61 529.23 1357.44 527.49 1359.78 527.49C1360.14 527.49 1360.47 527.55 1360.47 527.55V531.3C1360.47 531.3 1360.08 531.24 1359.57 531.24C1357.95 531.24 1356.12 532.17 1355.4 534.45C1355.16 535.2 1355.07 536.04 1355.07 536.94V543H1351.26ZM1207.73 588V566.7H1215.35C1219.19 566.7 1221.92 568.68 1221.92 572.19C1221.92 574.17 1220.96 575.88 1219.34 576.75V576.81C1221.68 577.5 1222.79 579.66 1222.79 581.82C1222.79 586.08 1219.37 588 1215.44 588H1207.73ZM1211.6 575.4H1215.35C1217.03 575.4 1217.99 574.2 1217.99 572.67C1217.99 571.14 1217.09 570.03 1215.29 570.03H1211.6V575.4ZM1211.6 584.67H1215.74C1217.72 584.67 1218.83 583.38 1218.83 581.58C1218.83 579.81 1217.69 578.52 1215.74 578.52H1211.6V584.67ZM1224.31 593.31L1225.57 590.46C1225.57 590.46 1226.41 591.09 1227.28 591.09C1228.33 591.09 1229.35 590.46 1229.92 589.11L1230.49 587.76L1224.04 572.7H1228.33L1231.54 581.52C1231.84 582.33 1232.11 583.59 1232.11 583.59H1232.17C1232.17 583.59 1232.41 582.39 1232.68 581.58L1235.68 572.7H1239.85L1233.01 590.31C1231.93 593.1 1229.8 594.3 1227.49 594.3C1225.66 594.3 1224.31 593.31 1224.31 593.31ZM1254.33 588V570.03H1247.34V566.7H1265.19V570.03H1258.2V588H1254.33ZM1263.85 580.35C1263.85 575.67 1267.6 572.34 1272.25 572.34C1276.93 572.34 1280.68 575.67 1280.68 580.35C1280.68 585.06 1276.93 588.36 1272.28 588.36C1267.6 588.36 1263.85 585.06 1263.85 580.35ZM1267.72 580.35C1267.72 583.2 1269.79 585.12 1272.28 585.12C1274.74 585.12 1276.81 583.2 1276.81 580.35C1276.81 577.53 1274.74 575.58 1272.28 575.58C1269.79 575.58 1267.72 577.53 1267.72 580.35ZM1283.74 588V566.7H1287.55V578.1H1289.44L1293.13 572.7H1297.36L1292.53 579.54V579.6L1297.96 588H1293.58L1289.53 581.31H1287.55V588H1283.74ZM1298.98 580.35C1298.98 575.64 1302.19 572.34 1306.75 572.34C1311.16 572.34 1313.53 575.55 1313.53 579.6C1313.53 580.05 1313.44 581.07 1313.44 581.07H1302.88C1303.12 583.74 1305.19 585.12 1307.47 585.12C1309.93 585.12 1311.88 583.44 1311.88 583.44L1313.35 586.17C1313.35 586.17 1311.01 588.36 1307.2 588.36C1302.13 588.36 1298.98 584.7 1298.98 580.35ZM1303 578.46H1309.69C1309.63 576.39 1308.34 575.28 1306.66 575.28C1304.71 575.28 1303.36 576.48 1303 578.46ZM1316.67 588V572.7H1320.33V574.47C1320.33 575.04 1320.27 575.52 1320.27 575.52H1320.33C1320.99 574.23 1322.67 572.34 1325.76 572.34C1329.15 572.34 1331.07 574.11 1331.07 578.16V588H1327.29V578.94C1327.29 577.08 1326.81 575.82 1324.86 575.82C1322.82 575.82 1321.32 577.11 1320.75 578.94C1320.54 579.57 1320.48 580.26 1320.48 580.98V588H1316.67Z" fill="black"/>
<path d="M958.5 521.5C958.5 520.948 958.052 520.5 957.5 520.5C956.948 520.5 956.5 520.948 956.5 521.5H958.5ZM1009.94 555.5C1010.49 555.5 1010.94 555.052 1010.94 554.5C1010.94 553.948 1010.49 553.5 1009.94 553.5V555.5ZM1080.06 553.5C1079.51 553.5 1079.06 553.948 1079.06 554.5C1079.06 555.052 1079.51 555.5 1080.06 555.5V553.5ZM1133.21 555.207C1133.6 554.817 1133.6 554.183 1133.21 553.793L1126.84 547.429C1126.45 547.038 1125.82 547.038 1125.43 547.429C1125.04 547.819 1125.04 548.453 1125.43 548.843L1131.09 554.5L1125.43 560.157C1125.04 560.547 1125.04 561.181 1125.43 561.571C1125.82 561.962 1126.45 561.962 1126.84 561.571L1133.21 555.207ZM956.5 521.5V530.5H958.5V521.5H956.5ZM981.5 555.5H1009.94V553.5H981.5V555.5ZM1080.06 555.5H1132.5V553.5H1080.06V555.5ZM956.5 530.5C956.5 544.307 967.693 555.5 981.5 555.5V553.5C968.797 553.5 958.5 543.203 958.5 530.5H956.5Z" fill="black"/>
<path d="M1026.93 565V543.7H1030.8L1038.87 556C1039.68 557.23 1040.64 559.3 1040.64 559.3H1040.7C1040.7 559.3 1040.49 557.26 1040.49 556V543.7H1044.33V565H1040.49L1032.42 552.73C1031.61 551.5 1030.65 549.43 1030.65 549.43H1030.59C1030.59 549.43 1030.8 551.47 1030.8 552.73V565H1026.93ZM1047.98 557.35C1047.98 552.67 1051.73 549.34 1056.38 549.34C1061.06 549.34 1064.81 552.67 1064.81 557.35C1064.81 562.06 1061.06 565.36 1056.41 565.36C1051.73 565.36 1047.98 562.06 1047.98 557.35ZM1051.85 557.35C1051.85 560.2 1053.92 562.12 1056.41 562.12C1058.87 562.12 1060.94 560.2 1060.94 557.35C1060.94 554.53 1058.87 552.58 1056.41 552.58C1053.92 552.58 1051.85 554.53 1051.85 557.35Z" fill="black"/>
<rect x="1499" y="200" width="381" height="167" rx="66.8" stroke="black" stroke-width="2" stroke-linecap="round"/>
<path d="M1534.1 272V250.7H1540.97C1543.28 250.7 1544.33 250.88 1545.26 251.3C1547.39 252.26 1548.74 254.3 1548.74 257.12C1548.74 259.67 1547.39 262.04 1545.14 262.94V263C1545.14 263 1545.44 263.3 1545.86 264.05L1550.24 272H1545.92L1541.69 264.05H1537.97V272H1534.1ZM1537.97 260.69H1541.45C1543.52 260.69 1544.81 259.46 1544.81 257.33C1544.81 255.29 1543.94 254.03 1540.91 254.03H1537.97V260.69ZM1552.02 264.35C1552.02 259.64 1555.23 256.34 1559.79 256.34C1564.2 256.34 1566.57 259.55 1566.57 263.6C1566.57 264.05 1566.48 265.07 1566.48 265.07H1555.92C1556.16 267.74 1558.23 269.12 1560.51 269.12C1562.97 269.12 1564.92 267.44 1564.92 267.44L1566.39 270.17C1566.39 270.17 1564.05 272.36 1560.24 272.36C1555.17 272.36 1552.02 268.7 1552.02 264.35ZM1556.04 262.46H1562.73C1562.67 260.39 1561.38 259.28 1559.7 259.28C1557.75 259.28 1556.4 260.48 1556.04 262.46ZM1572.71 272L1568.03 256.7H1572.05L1574.72 266.75C1574.93 267.56 1575.02 268.37 1575.02 268.37H1575.08C1575.08 268.37 1575.23 267.56 1575.44 266.75L1578.26 256.73H1581.65L1584.47 266.75C1584.68 267.56 1584.8 268.37 1584.8 268.37H1584.86C1584.86 268.37 1584.98 267.56 1585.19 266.75L1587.86 256.7H1591.82L1587.17 272H1582.94L1580.36 263.27C1580.12 262.46 1579.97 261.62 1579.97 261.62H1579.91C1579.91 261.62 1579.79 262.46 1579.55 263.27L1576.97 272H1572.71ZM1593.06 267.59C1593.06 262.73 1599.63 262.4 1602.12 262.4H1602.63V262.19C1602.63 260.18 1601.37 259.49 1599.69 259.49C1597.5 259.49 1595.49 260.96 1595.49 260.96L1594.05 258.23C1594.05 258.23 1596.42 256.34 1600.05 256.34C1604.07 256.34 1606.41 258.56 1606.41 262.43V272H1602.9V270.74C1602.9 270.14 1602.96 269.66 1602.96 269.66H1602.9C1602.93 269.66 1601.73 272.36 1598.25 272.36C1595.52 272.36 1593.06 270.65 1593.06 267.59ZM1596.9 267.41C1596.9 268.43 1597.65 269.39 1599.21 269.39C1601.22 269.39 1602.66 267.23 1602.66 265.37V265.01H1602C1600.05 265.01 1596.9 265.28 1596.9 267.41ZM1610.37 272V256.7H1614.03V259.34C1614.03 259.91 1613.97 260.42 1613.97 260.42H1614.03C1614.72 258.23 1616.55 256.49 1618.89 256.49C1619.25 256.49 1619.58 256.55 1619.58 256.55V260.3C1619.58 260.3 1619.19 260.24 1618.68 260.24C1617.06 260.24 1615.23 261.17 1614.51 263.45C1614.27 264.2 1614.18 265.04 1614.18 265.94V272H1610.37ZM1621.1 264.35C1621.1 259.49 1623.98 256.34 1628.03 256.34C1631.39 256.34 1632.44 258.29 1632.44 258.29H1632.5C1632.5 258.29 1632.47 257.9 1632.47 257.42V250.7H1636.28V272H1632.68V270.74C1632.68 270.17 1632.74 269.75 1632.74 269.75H1632.68C1632.68 269.75 1631.39 272.36 1627.88 272.36C1623.74 272.36 1621.1 269.09 1621.1 264.35ZM1624.94 264.35C1624.94 267.26 1626.5 269.15 1628.75 269.15C1630.73 269.15 1632.59 267.71 1632.59 264.32C1632.59 261.95 1631.33 259.61 1628.78 259.61C1626.68 259.61 1624.94 261.32 1624.94 264.35ZM1648.39 272V250.7H1652.26V272H1648.39ZM1657.04 272V256.7H1660.7V258.47C1660.7 259.04 1660.64 259.52 1660.64 259.52H1660.7C1661.36 258.23 1663.04 256.34 1666.13 256.34C1669.52 256.34 1671.44 258.11 1671.44 262.16V272H1667.66V262.94C1667.66 261.08 1667.18 259.82 1665.23 259.82C1663.19 259.82 1661.69 261.11 1661.12 262.94C1660.91 263.57 1660.85 264.26 1660.85 264.98V272H1657.04ZM1675.44 254.09V250.7H1679.22V254.09H1675.44ZM1675.44 272V256.7H1679.25V272H1675.44ZM1684.1 266.39V259.97H1682.12V256.94H1684.19V252.53H1687.91V256.94H1691.39V259.97H1687.91V265.91C1687.91 268.43 1689.89 268.79 1690.94 268.79C1691.36 268.79 1691.63 268.73 1691.63 268.73V272.06C1691.63 272.06 1691.18 272.15 1690.46 272.15C1688.33 272.15 1684.1 271.52 1684.1 266.39ZM1694.75 254.09V250.7H1698.53V254.09H1694.75ZM1694.75 272V256.7H1698.56V272H1694.75ZM1701.46 267.59C1701.46 262.73 1708.03 262.4 1710.52 262.4H1711.03V262.19C1711.03 260.18 1709.77 259.49 1708.09 259.49C1705.9 259.49 1703.89 260.96 1703.89 260.96L1702.45 258.23C1702.45 258.23 1704.82 256.34 1708.45 256.34C1712.47 256.34 1714.81 258.56 1714.81 262.43V272H1711.3V270.74C1711.3 270.14 1711.36 269.66 1711.36 269.66H1711.3C1711.33 269.66 1710.13 272.36 1706.65 272.36C1703.92 272.36 1701.46 270.65 1701.46 267.59ZM1705.3 267.41C1705.3 268.43 1706.05 269.39 1707.61 269.39C1709.62 269.39 1711.06 267.23 1711.06 265.37V265.01H1710.4C1708.45 265.01 1705.3 265.28 1705.3 267.41ZM1719.34 266.39V259.97H1717.36V256.94H1719.43V252.53H1723.15V256.94H1726.63V259.97H1723.15V265.91C1723.15 268.43 1725.13 268.79 1726.18 268.79C1726.6 268.79 1726.87 268.73 1726.87 268.73V272.06C1726.87 272.06 1726.42 272.15 1725.7 272.15C1723.57 272.15 1719.34 271.52 1719.34 266.39ZM1728.85 264.35C1728.85 259.67 1732.6 256.34 1737.25 256.34C1741.93 256.34 1745.68 259.67 1745.68 264.35C1745.68 269.06 1741.93 272.36 1737.28 272.36C1732.6 272.36 1728.85 269.06 1728.85 264.35ZM1732.72 264.35C1732.72 267.2 1734.79 269.12 1737.28 269.12C1739.74 269.12 1741.81 267.2 1741.81 264.35C1741.81 261.53 1739.74 259.58 1737.28 259.58C1734.79 259.58 1732.72 261.53 1732.72 264.35ZM1748.74 272V256.7H1752.4V259.34C1752.4 259.91 1752.34 260.42 1752.34 260.42H1752.4C1753.09 258.23 1754.92 256.49 1757.26 256.49C1757.62 256.49 1757.95 256.55 1757.95 256.55V260.3C1757.95 260.3 1757.56 260.24 1757.05 260.24C1755.43 260.24 1753.6 261.17 1752.88 263.45C1752.64 264.2 1752.55 265.04 1752.55 265.94V272H1748.74ZM1759.23 273.26L1766.85 249.62H1770.12L1762.47 273.26H1759.23ZM1778.47 272L1770.7 250.7H1774.87L1779.55 264.59C1779.97 265.82 1780.33 267.71 1780.36 267.71H1780.42C1780.45 267.71 1780.81 265.82 1781.23 264.59L1785.94 250.7H1790.08L1782.31 272H1778.47ZM1790.11 264.35C1790.11 259.67 1793.86 256.34 1798.51 256.34C1803.19 256.34 1806.94 259.67 1806.94 264.35C1806.94 269.06 1803.19 272.36 1798.54 272.36C1793.86 272.36 1790.11 269.06 1790.11 264.35ZM1793.98 264.35C1793.98 267.2 1796.05 269.12 1798.54 269.12C1801 269.12 1803.07 267.2 1803.07 264.35C1803.07 261.53 1801 259.58 1798.54 259.58C1796.05 259.58 1793.98 261.53 1793.98 264.35ZM1810.66 266.39V259.97H1808.68V256.94H1810.75V252.53H1814.47V256.94H1817.95V259.97H1814.47V265.91C1814.47 268.43 1816.45 268.79 1817.5 268.79C1817.92 268.79 1818.19 268.73 1818.19 268.73V272.06C1818.19 272.06 1817.74 272.15 1817.02 272.15C1814.89 272.15 1810.66 271.52 1810.66 266.39ZM1820.23 264.35C1820.23 259.64 1823.44 256.34 1828 256.34C1832.41 256.34 1834.78 259.55 1834.78 263.6C1834.78 264.05 1834.69 265.07 1834.69 265.07H1824.13C1824.37 267.74 1826.44 269.12 1828.72 269.12C1831.18 269.12 1833.13 267.44 1833.13 267.44L1834.6 270.17C1834.6 270.17 1832.26 272.36 1828.45 272.36C1823.38 272.36 1820.23 268.7 1820.23 264.35ZM1824.25 262.46H1830.94C1830.88 260.39 1829.59 259.28 1827.91 259.28C1825.96 259.28 1824.61 260.48 1824.25 262.46ZM1837.92 272V256.7H1841.58V259.34C1841.58 259.91 1841.52 260.42 1841.52 260.42H1841.58C1842.27 258.23 1844.1 256.49 1846.44 256.49C1846.8 256.49 1847.13 256.55 1847.13 256.55V260.3C1847.13 260.3 1846.74 260.24 1846.23 260.24C1844.61 260.24 1842.78 261.17 1842.06 263.45C1841.82 264.2 1841.73 265.04 1841.73 265.94V272H1837.92ZM1628.23 317V295.7H1635.85C1639.69 295.7 1642.42 297.68 1642.42 301.19C1642.42 303.17 1641.46 304.88 1639.84 305.75V305.81C1642.18 306.5 1643.29 308.66 1643.29 310.82C1643.29 315.08 1639.87 317 1635.94 317H1628.23ZM1632.1 304.4H1635.85C1637.53 304.4 1638.49 303.2 1638.49 301.67C1638.49 300.14 1637.59 299.03 1635.79 299.03H1632.1V304.4ZM1632.1 313.67H1636.24C1638.22 313.67 1639.33 312.38 1639.33 310.58C1639.33 308.81 1638.19 307.52 1636.24 307.52H1632.1V313.67ZM1644.81 322.31L1646.07 319.46C1646.07 319.46 1646.91 320.09 1647.78 320.09C1648.83 320.09 1649.85 319.46 1650.42 318.11L1650.99 316.76L1644.54 301.7H1648.83L1652.04 310.52C1652.34 311.33 1652.61 312.59 1652.61 312.59H1652.67C1652.67 312.59 1652.91 311.39 1653.18 310.58L1656.18 301.7H1660.35L1653.51 319.31C1652.43 322.1 1650.3 323.3 1647.99 323.3C1646.16 323.3 1644.81 322.31 1644.81 322.31ZM1674.83 317V299.03H1667.84V295.7H1685.69V299.03H1678.7V317H1674.83ZM1684.35 309.35C1684.35 304.67 1688.1 301.34 1692.75 301.34C1697.43 301.34 1701.18 304.67 1701.18 309.35C1701.18 314.06 1697.43 317.36 1692.78 317.36C1688.1 317.36 1684.35 314.06 1684.35 309.35ZM1688.22 309.35C1688.22 312.2 1690.29 314.12 1692.78 314.12C1695.24 314.12 1697.31 312.2 1697.31 309.35C1697.31 306.53 1695.24 304.58 1692.78 304.58C1690.29 304.58 1688.22 306.53 1688.22 309.35ZM1704.24 317V295.7H1708.05V307.1H1709.94L1713.63 301.7H1717.86L1713.03 308.54V308.6L1718.46 317H1714.08L1710.03 310.31H1708.05V317H1704.24ZM1719.48 309.35C1719.48 304.64 1722.69 301.34 1727.25 301.34C1731.66 301.34 1734.03 304.55 1734.03 308.6C1734.03 309.05 1733.94 310.07 1733.94 310.07H1723.38C1723.62 312.74 1725.69 314.12 1727.97 314.12C1730.43 314.12 1732.38 312.44 1732.38 312.44L1733.85 315.17C1733.85 315.17 1731.51 317.36 1727.7 317.36C1722.63 317.36 1719.48 313.7 1719.48 309.35ZM1723.5 307.46H1730.19C1730.13 305.39 1728.84 304.28 1727.16 304.28C1725.21 304.28 1723.86 305.48 1723.5 307.46ZM1737.17 317V301.7H1740.83V303.47C1740.83 304.04 1740.77 304.52 1740.77 304.52H1740.83C1741.49 303.23 1743.17 301.34 1746.26 301.34C1749.65 301.34 1751.57 303.11 1751.57 307.16V317H1747.79V307.94C1747.79 306.08 1747.31 304.82 1745.36 304.82C1743.32 304.82 1741.82 306.11 1741.25 307.94C1741.04 308.57 1740.98 309.26 1740.98 309.98V317H1737.17Z" fill="black"/>
<path d="M1419.5 282.5C1418.95 282.5 1418.5 282.948 1418.5 283.5C1418.5 284.052 1418.95 284.5 1419.5 284.5V282.5ZM1495.21 284.207C1495.6 283.817 1495.6 283.183 1495.21 282.793L1488.84 276.429C1488.45 276.038 1487.82 276.038 1487.43 276.429C1487.04 276.819 1487.04 277.453 1487.43 277.843L1493.09 283.5L1487.43 289.157C1487.04 289.547 1487.04 290.181 1487.43 290.571C1487.82 290.962 1488.45 290.962 1488.84 290.571L1495.21 284.207ZM1419.5 284.5H1494.5V282.5H1419.5V284.5Z" fill="black"/>
<path d="M70.5 119V83.5H76.95V98.55H93.2V83.5H99.65V119H93.2V104.1H76.95V119H70.5ZM105.735 106.25C105.735 98.45 111.985 92.9 119.735 92.9C127.535 92.9 133.785 98.45 133.785 106.25C133.785 114.1 127.535 119.6 119.785 119.6C111.985 119.6 105.735 114.1 105.735 106.25ZM112.185 106.25C112.185 111 115.635 114.2 119.785 114.2C123.885 114.2 127.335 111 127.335 106.25C127.335 101.55 123.885 98.3 119.785 98.3C115.635 98.3 112.185 101.55 112.185 106.25ZM143.885 119L136.085 93.5H142.785L147.235 110.25C147.585 111.6 147.735 112.95 147.735 112.95H147.835C147.835 112.95 148.085 111.6 148.435 110.25L153.135 93.55H158.785L163.485 110.25C163.835 111.6 164.035 112.95 164.035 112.95H164.135C164.135 112.95 164.335 111.6 164.685 110.25L169.135 93.5H175.735L167.985 119H160.935L156.635 104.45C156.235 103.1 155.985 101.7 155.985 101.7H155.885C155.885 101.7 155.685 103.1 155.285 104.45L150.985 119H143.885ZM215.507 83.5L221.807 108.05C222.357 110.1 222.407 111.8 222.457 111.8H222.557C222.557 111.8 222.707 110.05 223.157 108.05L229.007 83.5H235.657L226.507 119H219.057L213.607 98C213.007 95.7 212.707 93.35 212.707 93.35H212.607C212.607 93.35 212.307 95.7 211.707 98L206.257 119H198.807L189.907 83.5H196.557L202.157 108.05C202.607 110.05 202.757 111.8 202.757 111.8H202.857C202.907 111.8 202.957 110.1 203.507 108.05L209.907 83.5H215.507ZM237.72 106.25C237.72 98.4 243.07 92.9 250.67 92.9C258.02 92.9 261.97 98.25 261.97 105C261.97 105.75 261.82 107.45 261.82 107.45H244.22C244.62 111.9 248.07 114.2 251.87 114.2C255.97 114.2 259.22 111.4 259.22 111.4L261.67 115.95C261.67 115.95 257.77 119.6 251.42 119.6C242.97 119.6 237.72 113.5 237.72 106.25ZM244.42 103.1H255.57C255.47 99.65 253.32 97.8 250.52 97.8C247.27 97.8 245.02 99.8 244.42 103.1ZM267.205 119V83.5H273.555V94.45C273.555 95.7 273.455 96.6 273.455 96.6H273.555C273.555 96.6 275.805 92.9 281.205 92.9C288.105 92.9 292.505 98.35 292.505 106.25C292.505 114.35 287.555 119.6 280.805 119.6C275.505 119.6 273.205 115.8 273.205 115.8H273.105C273.105 115.8 273.205 116.55 273.205 117.55V119H267.205ZM273.355 106.4C273.355 110.35 275.455 114.25 279.705 114.25C283.205 114.25 286.105 111.4 286.105 106.35C286.105 101.5 283.505 98.35 279.755 98.35C276.455 98.35 273.355 100.75 273.355 106.4ZM296.021 114.85L299.321 109.9C299.321 109.9 302.671 113.5 307.371 113.5C311.071 113.5 313.771 111.25 313.771 108.2C313.771 104.45 310.321 102.7 306.171 102.7H303.721L302.271 99.4L308.771 91.7C310.171 90.05 311.321 89 311.321 89V88.9C311.321 88.9 310.271 89.05 308.171 89.05H297.571V83.5H319.271V87.55L310.571 97.6C315.471 98.3 320.271 101.8 320.271 107.95C320.271 114 315.671 119.6 307.771 119.6C300.221 119.6 296.021 114.85 296.021 114.85ZM348.041 119L335.091 83.5H342.041L349.841 106.65C350.541 108.7 351.141 111.85 351.191 111.85H351.291C351.341 111.85 351.941 108.7 352.641 106.65L360.491 83.5H367.391L354.441 119H348.041ZM367.454 106.25C367.454 98.45 373.704 92.9 381.454 92.9C389.254 92.9 395.504 98.45 395.504 106.25C395.504 114.1 389.254 119.6 381.504 119.6C373.704 119.6 367.454 114.1 367.454 106.25ZM373.904 106.25C373.904 111 377.354 114.2 381.504 114.2C385.604 114.2 389.054 111 389.054 106.25C389.054 101.55 385.604 98.3 381.504 98.3C377.354 98.3 373.904 101.55 373.904 106.25ZM401.704 109.65V98.95H398.404V93.9H401.854V86.55H408.054V93.9H413.854V98.95H408.054V108.85C408.054 113.05 411.354 113.65 413.104 113.65C413.804 113.65 414.254 113.55 414.254 113.55V119.1C414.254 119.1 413.504 119.25 412.304 119.25C408.754 119.25 401.704 118.2 401.704 109.65ZM419.451 89.15V83.5H425.751V89.15H419.451ZM419.451 119V93.5H425.801V119H419.451ZM432.781 119V93.5H438.881V96.45C438.881 97.4 438.781 98.2 438.781 98.2H438.881C439.981 96.05 442.781 92.9 447.931 92.9C453.581 92.9 456.781 95.85 456.781 102.6V119H450.481V103.9C450.481 100.8 449.681 98.7 446.431 98.7C443.031 98.7 440.531 100.85 439.581 103.9C439.231 104.95 439.131 106.1 439.131 107.3V119H432.781ZM466.045 122.45C466.045 122.45 469.245 124.1 473.095 124.1C476.995 124.1 480.295 122.45 480.295 117.9V116.4C480.295 115.8 480.395 115.05 480.395 115.05H480.295C478.795 117.3 476.595 118.5 473.195 118.5C465.895 118.5 461.745 112.6 461.745 105.6C461.745 98.6 465.695 92.9 473.045 92.9C478.595 92.9 480.595 96.15 480.595 96.15H480.745C480.745 96.15 480.695 95.85 480.695 95.45V93.5H486.645V117.45C486.645 126.2 479.845 129.5 473.195 129.5C469.995 129.5 466.595 128.6 464.145 127.3L466.045 122.45ZM474.545 113.15C477.595 113.15 480.445 111.4 480.445 105.65C480.445 99.85 477.595 98.3 474.145 98.3C470.295 98.3 468.145 101.1 468.145 105.4C468.145 109.85 470.445 113.15 474.545 113.15ZM529.179 83.5L535.479 108.05C536.029 110.1 536.079 111.8 536.129 111.8H536.229C536.229 111.8 536.379 110.05 536.829 108.05L542.679 83.5H549.329L540.179 119H532.729L527.279 98C526.679 95.7 526.379 93.35 526.379 93.35H526.279C526.279 93.35 525.979 95.7 525.379 98L519.929 119H512.479L503.579 83.5H510.229L515.829 108.05C516.279 110.05 516.429 111.8 516.429 111.8H516.529C516.579 111.8 516.629 110.1 517.179 108.05L523.579 83.5H529.179ZM551.291 106.25C551.291 98.45 557.541 92.9 565.291 92.9C573.091 92.9 579.341 98.45 579.341 106.25C579.341 114.1 573.091 119.6 565.341 119.6C557.541 119.6 551.291 114.1 551.291 106.25ZM557.741 106.25C557.741 111 561.191 114.2 565.341 114.2C569.441 114.2 572.891 111 572.891 106.25C572.891 101.55 569.441 98.3 565.341 98.3C561.191 98.3 557.741 101.55 557.741 106.25ZM584.441 119V93.5H590.541V97.9C590.541 98.85 590.441 99.7 590.441 99.7H590.541C591.691 96.05 594.741 93.15 598.641 93.15C599.241 93.15 599.791 93.25 599.791 93.25V99.5C599.791 99.5 599.141 99.4 598.291 99.4C595.591 99.4 592.541 100.95 591.341 104.75C590.941 106 590.791 107.4 590.791 108.9V119H584.441ZM604.07 119V83.5H610.42V102.5H613.57L619.72 93.5H626.77L618.72 104.9V105L627.77 119H620.47L613.72 107.85H610.42V119H604.07ZM629.508 115.85L632.408 111.4C632.408 111.4 635.208 114.2 639.358 114.2C641.158 114.2 642.708 113.4 642.708 111.9C642.708 108.1 630.308 108.6 630.308 100.4C630.308 95.65 634.558 92.9 640.058 92.9C645.808 92.9 648.608 95.8 648.608 95.8L646.258 100.5C646.258 100.5 643.908 98.3 640.008 98.3C638.358 98.3 636.758 99 636.758 100.6C636.758 104.2 649.158 103.75 649.158 111.95C649.158 116.2 645.458 119.6 639.408 119.6C633.058 119.6 629.508 115.85 629.508 115.85Z" fill="black"/>
</svg>
