<svg width="1946" height="1053" viewBox="0 0 1946 1053" fill="none" xmlns="http://www.w3.org/2000/svg">
<rect x="372" y="152" width="1202" height="709" rx="27.087" stroke="black" stroke-width="2"/>
<rect x="574.002" y="543" width="798" height="72.6471" rx="36.3235" fill="white" stroke="black" stroke-width="2"/>
<path d="M607.489 572.498H617.333V574.153H609.272V578.252H616.726V579.814H609.272V584.392H617.471V586H607.489V572.498ZM619.649 576.156H621.221V577.553C621.687 576.977 622.18 576.564 622.701 576.313C623.222 576.061 623.801 575.936 624.438 575.936C625.835 575.936 626.779 576.423 627.269 577.397C627.538 577.93 627.673 578.693 627.673 579.686V586H625.991V579.796C625.991 579.195 625.902 578.711 625.725 578.344C625.43 577.731 624.897 577.425 624.125 577.425C623.733 577.425 623.411 577.464 623.16 577.544C622.707 577.679 622.309 577.949 621.965 578.353C621.69 578.678 621.509 579.015 621.423 579.364C621.343 579.707 621.304 580.2 621.304 580.844V586H619.649V576.156ZM630.458 573.408H632.131V576.156H633.703V577.507H632.131V583.932C632.131 584.275 632.247 584.505 632.48 584.621C632.609 584.689 632.823 584.722 633.124 584.722C633.203 584.722 633.289 584.722 633.381 584.722C633.473 584.716 633.58 584.707 633.703 584.695V586C633.513 586.055 633.313 586.095 633.105 586.119C632.903 586.144 632.682 586.156 632.443 586.156C631.671 586.156 631.147 585.96 630.872 585.568C630.596 585.17 630.458 584.655 630.458 584.024V577.507H629.125V576.156H630.458V573.408ZM639.465 575.936C640.164 575.936 640.841 576.101 641.497 576.432C642.152 576.757 642.652 577.18 642.995 577.7C643.326 578.197 643.546 578.776 643.657 579.438C643.755 579.891 643.804 580.614 643.804 581.607H636.589C636.619 582.605 636.855 583.408 637.296 584.015C637.737 584.615 638.421 584.915 639.346 584.915C640.21 584.915 640.899 584.631 641.414 584.061C641.708 583.73 641.916 583.347 642.039 582.912H643.666C643.623 583.273 643.479 583.678 643.234 584.125C642.995 584.566 642.725 584.928 642.425 585.21C641.923 585.7 641.301 586.031 640.559 586.202C640.161 586.3 639.711 586.349 639.208 586.349C637.983 586.349 636.944 585.905 636.092 585.017C635.241 584.122 634.815 582.872 634.815 581.267C634.815 579.686 635.244 578.402 636.101 577.415C636.959 576.429 638.081 575.936 639.465 575.936ZM642.103 580.292C642.036 579.575 641.88 579.002 641.635 578.574C641.181 577.777 640.424 577.379 639.364 577.379C638.605 577.379 637.967 577.654 637.453 578.206C636.938 578.751 636.665 579.447 636.635 580.292H642.103ZM645.89 576.156H647.462V577.857C647.59 577.526 647.906 577.124 648.408 576.653C648.911 576.175 649.49 575.936 650.146 575.936C650.176 575.936 650.228 575.939 650.302 575.945C650.375 575.951 650.501 575.963 650.679 575.982V577.728C650.581 577.71 650.489 577.697 650.403 577.691C650.323 577.685 650.234 577.682 650.136 577.682C649.303 577.682 648.663 577.952 648.215 578.491C647.768 579.024 647.544 579.64 647.544 580.338V586H645.89V576.156ZM659.557 572.498V580.844C659.557 581.824 659.741 582.639 660.109 583.289C660.654 584.269 661.573 584.759 662.866 584.759C664.416 584.759 665.47 584.229 666.028 583.169C666.328 582.593 666.478 581.818 666.478 580.844V572.498H668.335V580.081C668.335 581.741 668.111 583.019 667.664 583.914C666.843 585.544 665.293 586.358 663.013 586.358C660.734 586.358 659.187 585.544 658.372 583.914C657.924 583.019 657.701 581.741 657.701 580.081V572.498H659.557ZM672.37 581.643C672.413 582.409 672.593 583.031 672.912 583.509C673.519 584.404 674.588 584.851 676.12 584.851C676.806 584.851 677.431 584.753 677.995 584.557C679.086 584.177 679.631 583.497 679.631 582.517C679.631 581.781 679.401 581.257 678.942 580.945C678.476 580.638 677.747 580.372 676.754 580.145L674.925 579.732C673.73 579.462 672.885 579.165 672.388 578.84C671.53 578.276 671.101 577.434 671.101 576.313C671.101 575.099 671.521 574.104 672.361 573.325C673.2 572.547 674.389 572.158 675.927 572.158C677.342 572.158 678.543 572.501 679.53 573.188C680.522 573.868 681.019 574.958 681.019 576.46H679.3C679.208 575.737 679.012 575.182 678.712 574.796C678.154 574.091 677.207 573.739 675.872 573.739C674.793 573.739 674.018 573.966 673.546 574.419C673.074 574.873 672.839 575.4 672.839 576C672.839 576.662 673.114 577.146 673.666 577.452C674.027 577.648 674.845 577.893 676.12 578.188L678.013 578.619C678.926 578.828 679.631 579.113 680.127 579.474C680.985 580.105 681.414 581.021 681.414 582.222C681.414 583.718 680.869 584.787 679.778 585.43C678.693 586.074 677.431 586.395 675.991 586.395C674.312 586.395 672.998 585.966 672.048 585.108C671.098 584.257 670.633 583.102 670.651 581.643H672.37ZM688.914 584.438C689.533 584.438 690.041 584.373 690.44 584.244C691.15 584.006 691.733 583.546 692.186 582.866C692.548 582.32 692.808 581.622 692.967 580.77C693.059 580.262 693.105 579.79 693.105 579.355C693.105 577.682 692.771 576.383 692.103 575.458C691.442 574.532 690.372 574.07 688.896 574.07H685.651V584.438H688.914ZM683.813 572.498H689.282C691.138 572.498 692.578 573.157 693.601 574.474C694.514 575.663 694.971 577.186 694.971 579.042C694.971 580.476 694.701 581.772 694.162 582.93C693.212 584.977 691.579 586 689.263 586H683.813V572.498ZM707.158 572.498V574.107H702.609V586H700.752V574.107H696.203V572.498H707.158ZM719.649 580.467L717.6 574.502L715.421 580.467H719.649ZM716.644 572.498H718.712L723.611 586H721.607L720.237 581.956H714.897L713.436 586H711.561L716.644 572.498ZM726.101 581.193C726.101 582.247 726.325 583.129 726.772 583.84C727.22 584.551 727.937 584.906 728.923 584.906C729.689 584.906 730.317 584.578 730.807 583.923C731.304 583.261 731.552 582.314 731.552 581.083C731.552 579.839 731.298 578.92 730.789 578.325C730.28 577.725 729.652 577.425 728.905 577.425C728.071 577.425 727.394 577.743 726.873 578.381C726.359 579.018 726.101 579.955 726.101 581.193ZM728.592 575.982C729.346 575.982 729.977 576.141 730.486 576.46C730.78 576.643 731.114 576.965 731.487 577.425V572.452H733.078V586H731.589V584.631C731.203 585.237 730.746 585.675 730.219 585.945C729.692 586.214 729.089 586.349 728.408 586.349C727.312 586.349 726.362 585.89 725.559 584.971C724.756 584.045 724.355 582.817 724.355 581.285C724.355 579.851 724.72 578.61 725.449 577.563C726.184 576.509 727.232 575.982 728.592 575.982ZM736.579 581.193C736.579 582.247 736.803 583.129 737.25 583.84C737.698 584.551 738.415 584.906 739.401 584.906C740.167 584.906 740.795 584.578 741.285 583.923C741.782 583.261 742.03 582.314 742.03 581.083C742.03 579.839 741.775 578.92 741.267 578.325C740.758 577.725 740.13 577.425 739.383 577.425C738.549 577.425 737.872 577.743 737.351 578.381C736.837 579.018 736.579 579.955 736.579 581.193ZM739.07 575.982C739.824 575.982 740.455 576.141 740.964 576.46C741.258 576.643 741.592 576.965 741.965 577.425V572.452H743.555V586H742.067V584.631C741.68 585.237 741.224 585.675 740.697 585.945C740.17 586.214 739.567 586.349 738.886 586.349C737.79 586.349 736.84 585.89 736.037 584.971C735.234 584.045 734.833 582.817 734.833 581.285C734.833 579.851 735.198 578.61 735.927 577.563C736.662 576.509 737.71 575.982 739.07 575.982ZM746.055 576.156H747.627V577.857C747.756 577.526 748.071 577.124 748.574 576.653C749.076 576.175 749.655 575.936 750.311 575.936C750.342 575.936 750.394 575.939 750.467 575.945C750.541 575.951 750.666 575.963 750.844 575.982V577.728C750.746 577.71 750.654 577.697 750.568 577.691C750.489 577.685 750.4 577.682 750.302 577.682C749.468 577.682 748.828 577.952 748.381 578.491C747.934 579.024 747.71 579.64 747.71 580.338V586H746.055V576.156ZM756.377 575.936C757.076 575.936 757.753 576.101 758.408 576.432C759.064 576.757 759.563 577.18 759.907 577.7C760.237 578.197 760.458 578.776 760.568 579.438C760.666 579.891 760.715 580.614 760.715 581.607H753.5C753.531 582.605 753.767 583.408 754.208 584.015C754.649 584.615 755.332 584.915 756.258 584.915C757.122 584.915 757.811 584.631 758.326 584.061C758.62 583.73 758.828 583.347 758.951 582.912H760.578C760.535 583.273 760.391 583.678 760.146 584.125C759.907 584.566 759.637 584.928 759.337 585.21C758.834 585.7 758.212 586.031 757.471 586.202C757.073 586.3 756.622 586.349 756.12 586.349C754.894 586.349 753.856 585.905 753.004 585.017C752.152 584.122 751.726 582.872 751.726 581.267C751.726 579.686 752.155 578.402 753.013 577.415C753.871 576.429 754.992 575.936 756.377 575.936ZM759.015 580.292C758.948 579.575 758.791 579.002 758.546 578.574C758.093 577.777 757.336 577.379 756.276 577.379C755.516 577.379 754.879 577.654 754.364 578.206C753.85 578.751 753.577 579.447 753.546 580.292H759.015ZM763.739 582.912C763.788 583.463 763.926 583.886 764.153 584.18C764.57 584.713 765.293 584.98 766.322 584.98C766.935 584.98 767.474 584.848 767.94 584.585C768.405 584.315 768.638 583.901 768.638 583.344C768.638 582.921 768.451 582.599 768.078 582.379C767.839 582.244 767.367 582.088 766.662 581.91L765.348 581.579C764.508 581.371 763.889 581.138 763.491 580.881C762.78 580.433 762.425 579.814 762.425 579.024C762.425 578.093 762.759 577.339 763.427 576.763C764.101 576.187 765.005 575.899 766.138 575.899C767.621 575.899 768.69 576.334 769.346 577.204C769.756 577.756 769.956 578.35 769.943 578.987H768.381C768.35 578.613 768.218 578.273 767.986 577.967C767.606 577.532 766.947 577.314 766.01 577.314C765.385 577.314 764.91 577.434 764.585 577.673C764.266 577.912 764.107 578.227 764.107 578.619C764.107 579.048 764.318 579.392 764.741 579.649C764.986 579.802 765.348 579.937 765.826 580.053L766.919 580.32C768.108 580.608 768.905 580.887 769.309 581.156C769.953 581.579 770.274 582.244 770.274 583.151C770.274 584.027 769.94 584.784 769.272 585.421C768.611 586.058 767.6 586.377 766.239 586.377C764.775 586.377 763.736 586.046 763.124 585.384C762.517 584.716 762.192 583.892 762.149 582.912H763.739ZM773.151 582.912C773.2 583.463 773.338 583.886 773.565 584.18C773.981 584.713 774.704 584.98 775.734 584.98C776.347 584.98 776.886 584.848 777.351 584.585C777.817 584.315 778.05 583.901 778.05 583.344C778.05 582.921 777.863 582.599 777.489 582.379C777.25 582.244 776.779 582.088 776.074 581.91L774.76 581.579C773.92 581.371 773.301 581.138 772.903 580.881C772.192 580.433 771.837 579.814 771.837 579.024C771.837 578.093 772.171 577.339 772.839 576.763C773.513 576.187 774.416 575.899 775.55 575.899C777.033 575.899 778.102 576.334 778.758 577.204C779.168 577.756 779.367 578.35 779.355 578.987H777.793C777.762 578.613 777.63 578.273 777.397 577.967C777.017 577.532 776.359 577.314 775.421 577.314C774.796 577.314 774.321 577.434 773.997 577.673C773.678 577.912 773.519 578.227 773.519 578.619C773.519 579.048 773.73 579.392 774.153 579.649C774.398 579.802 774.76 579.937 775.237 580.053L776.331 580.32C777.52 580.608 778.317 580.887 778.721 581.156C779.364 581.579 779.686 582.244 779.686 583.151C779.686 584.027 779.352 584.784 778.684 585.421C778.022 586.058 777.011 586.377 775.651 586.377C774.187 586.377 773.148 586.046 772.535 585.384C771.929 584.716 771.604 583.892 771.561 582.912H773.151ZM791.175 572.278C790.213 574.146 789.588 575.522 789.3 576.404C788.865 577.746 788.647 579.297 788.647 581.055C788.647 582.832 788.896 584.456 789.392 585.926C789.698 586.833 790.302 588.138 791.203 589.842H790.09C789.196 588.445 788.641 587.553 788.427 587.167C788.212 586.781 787.98 586.257 787.728 585.596C787.385 584.689 787.146 583.721 787.011 582.691C786.944 582.158 786.91 581.65 786.91 581.165C786.91 579.352 787.195 577.737 787.765 576.322C788.127 575.421 788.88 574.073 790.026 572.278H791.175ZM803.133 572.498V574.107H798.583V586H796.726V574.107H792.177V572.498H803.133ZM811.092 578.684C811.95 578.684 812.627 578.512 813.123 578.169C813.626 577.826 813.877 577.207 813.877 576.313C813.877 575.35 813.528 574.695 812.829 574.346C812.456 574.162 811.956 574.07 811.331 574.07H806.864V578.684H811.092ZM805.035 572.498H811.285C812.315 572.498 813.163 572.648 813.831 572.949C815.1 573.525 815.734 574.588 815.734 576.138C815.734 576.947 815.565 577.608 815.228 578.123C814.897 578.638 814.432 579.051 813.831 579.364C814.358 579.578 814.753 579.86 815.017 580.21C815.286 580.559 815.437 581.126 815.467 581.91L815.532 583.721C815.55 584.235 815.593 584.618 815.66 584.869C815.771 585.298 815.967 585.574 816.248 585.697V586H814.006C813.945 585.884 813.896 585.733 813.859 585.55C813.822 585.366 813.791 585.01 813.767 584.483L813.657 582.232C813.614 581.349 813.286 580.758 812.673 580.458C812.324 580.292 811.775 580.21 811.028 580.21H806.864V586H805.035V572.498ZM824.107 572.131C825.817 572.131 827.143 572.581 828.087 573.482C829.03 574.382 829.554 575.406 829.658 576.551H827.875C827.673 575.681 827.269 574.992 826.662 574.483C826.062 573.975 825.216 573.721 824.125 573.721C822.796 573.721 821.72 574.189 820.899 575.127C820.084 576.058 819.677 577.489 819.677 579.419C819.677 581 820.044 582.284 820.78 583.27C821.521 584.251 822.624 584.741 824.089 584.741C825.437 584.741 826.463 584.223 827.168 583.188C827.541 582.642 827.82 581.925 828.004 581.037H829.787C829.628 582.458 829.101 583.65 828.206 584.612C827.134 585.77 825.688 586.349 823.868 586.349C822.299 586.349 820.982 585.874 819.916 584.925C818.513 583.669 817.811 581.729 817.811 579.107C817.811 577.115 818.338 575.482 819.392 574.208C820.532 572.823 822.103 572.131 824.107 572.131ZM831.175 586C831.236 584.866 831.469 583.88 831.873 583.04C832.284 582.201 833.081 581.438 834.263 580.752L836.028 579.732C836.818 579.272 837.373 578.88 837.692 578.555C838.194 578.047 838.445 577.464 838.445 576.809C838.445 576.043 838.215 575.436 837.756 574.989C837.296 574.536 836.684 574.309 835.918 574.309C834.784 574.309 834 574.738 833.565 575.596C833.332 576.055 833.203 576.692 833.179 577.507H831.497C831.515 576.362 831.726 575.427 832.131 574.704C832.848 573.43 834.113 572.792 835.927 572.792C837.434 572.792 838.534 573.2 839.226 574.015C839.925 574.83 840.274 575.737 840.274 576.735C840.274 577.789 839.904 578.69 839.162 579.438C838.733 579.873 837.964 580.4 836.855 581.018L835.596 581.717C834.995 582.048 834.524 582.363 834.18 582.664C833.568 583.197 833.182 583.788 833.022 584.438H840.21V586H831.175ZM846.157 572.838C847.86 572.838 849.092 573.54 849.851 574.943C850.44 576.028 850.734 577.513 850.734 579.401C850.734 581.19 850.467 582.67 849.934 583.84C849.162 585.519 847.9 586.358 846.147 586.358C844.567 586.358 843.39 585.672 842.618 584.3C841.975 583.154 841.653 581.616 841.653 579.686C841.653 578.191 841.846 576.907 842.232 575.835C842.955 573.837 844.263 572.838 846.157 572.838ZM846.138 584.851C846.996 584.851 847.679 584.471 848.188 583.711C848.696 582.952 848.951 581.536 848.951 579.465C848.951 577.97 848.767 576.741 848.399 575.779C848.032 574.811 847.318 574.327 846.258 574.327C845.283 574.327 844.57 574.787 844.116 575.706C843.669 576.619 843.445 577.967 843.445 579.75C843.445 581.092 843.589 582.17 843.877 582.985C844.318 584.229 845.072 584.851 846.138 584.851ZM861.901 584.934C862.998 584.934 863.748 584.52 864.153 583.693C864.563 582.86 864.769 581.934 864.769 580.917C864.769 579.998 864.622 579.251 864.328 578.675C863.862 577.768 863.059 577.314 861.919 577.314C860.908 577.314 860.173 577.7 859.714 578.472C859.254 579.244 859.024 580.176 859.024 581.267C859.024 582.314 859.254 583.188 859.714 583.886C860.173 584.585 860.902 584.934 861.901 584.934ZM861.965 575.871C863.234 575.871 864.306 576.294 865.182 577.14C866.059 577.985 866.497 579.229 866.497 580.871C866.497 582.458 866.111 583.77 865.339 584.805C864.567 585.841 863.369 586.358 861.745 586.358C860.391 586.358 859.315 585.902 858.519 584.989C857.722 584.07 857.324 582.838 857.324 581.294C857.324 579.64 857.744 578.322 858.583 577.342C859.423 576.362 860.55 575.871 861.965 575.871ZM868.519 576.156H870.09V577.857C870.219 577.526 870.535 577.124 871.037 576.653C871.54 576.175 872.119 575.936 872.774 575.936C872.805 575.936 872.857 575.939 872.93 575.945C873.004 575.951 873.13 575.963 873.307 575.982V577.728C873.209 577.71 873.117 577.697 873.032 577.691C872.952 577.685 872.863 577.682 872.765 577.682C871.932 577.682 871.291 577.952 870.844 578.491C870.397 579.024 870.173 579.64 870.173 580.338V586H868.519V576.156ZM880.375 572.498H890.219V574.153H882.158V578.252H889.612V579.814H882.158V584.392H890.357V586H880.375V572.498ZM899.033 578.684C899.891 578.684 900.568 578.512 901.065 578.169C901.567 577.826 901.818 577.207 901.818 576.313C901.818 575.35 901.469 574.695 900.771 574.346C900.397 574.162 899.897 574.07 899.272 574.07H894.805V578.684H899.033ZM892.976 572.498H899.226C900.256 572.498 901.104 572.648 901.772 572.949C903.041 573.525 903.675 574.588 903.675 576.138C903.675 576.947 903.506 577.608 903.169 578.123C902.839 578.638 902.373 579.051 901.772 579.364C902.299 579.578 902.695 579.86 902.958 580.21C903.228 580.559 903.378 581.126 903.408 581.91L903.473 583.721C903.491 584.235 903.534 584.618 903.601 584.869C903.712 585.298 903.908 585.574 904.19 585.697V586H901.947C901.886 585.884 901.837 585.733 901.8 585.55C901.763 585.366 901.733 585.01 901.708 584.483L901.598 582.232C901.555 581.349 901.227 580.758 900.614 580.458C900.265 580.292 899.717 580.21 898.969 580.21H894.805V586H892.976V572.498ZM912.048 572.131C913.758 572.131 915.084 572.581 916.028 573.482C916.972 574.382 917.495 575.406 917.6 576.551H915.817C915.614 575.681 915.21 574.992 914.603 574.483C914.003 573.975 913.157 573.721 912.067 573.721C910.737 573.721 909.661 574.189 908.84 575.127C908.025 576.058 907.618 577.489 907.618 579.419C907.618 581 907.986 582.284 908.721 583.27C909.462 584.251 910.565 584.741 912.03 584.741C913.378 584.741 914.404 584.223 915.109 583.188C915.483 582.642 915.761 581.925 915.945 581.037H917.728C917.569 582.458 917.042 583.65 916.147 584.612C915.075 585.77 913.629 586.349 911.809 586.349C910.241 586.349 908.923 585.874 907.857 584.925C906.454 583.669 905.752 581.729 905.752 579.107C905.752 577.115 906.279 575.482 907.333 574.208C908.473 572.823 910.044 572.131 912.048 572.131ZM919.116 586C919.177 584.866 919.41 583.88 919.815 583.04C920.225 582.201 921.022 581.438 922.204 580.752L923.969 579.732C924.76 579.272 925.314 578.88 925.633 578.555C926.135 578.047 926.386 577.464 926.386 576.809C926.386 576.043 926.157 575.436 925.697 574.989C925.237 574.536 924.625 574.309 923.859 574.309C922.725 574.309 921.941 574.738 921.506 575.596C921.273 576.055 921.144 576.692 921.12 577.507H919.438C919.456 576.362 919.668 575.427 920.072 574.704C920.789 573.43 922.054 572.792 923.868 572.792C925.375 572.792 926.475 573.2 927.168 574.015C927.866 574.83 928.215 575.737 928.215 576.735C928.215 577.789 927.845 578.69 927.103 579.438C926.674 579.873 925.905 580.4 924.796 581.018L923.537 581.717C922.937 582.048 922.465 582.363 922.122 582.664C921.509 583.197 921.123 583.788 920.964 584.438H928.151V586H919.116ZM934.098 572.838C935.801 572.838 937.033 573.54 937.793 574.943C938.381 576.028 938.675 577.513 938.675 579.401C938.675 581.19 938.408 582.67 937.875 583.84C937.103 585.519 935.841 586.358 934.089 586.358C932.508 586.358 931.331 585.672 930.559 584.3C929.916 583.154 929.594 581.616 929.594 579.686C929.594 578.191 929.787 576.907 930.173 575.835C930.896 573.837 932.204 572.838 934.098 572.838ZM934.079 584.851C934.937 584.851 935.62 584.471 936.129 583.711C936.638 582.952 936.892 581.536 936.892 579.465C936.892 577.97 936.708 576.741 936.34 575.779C935.973 574.811 935.259 574.327 934.199 574.327C933.225 574.327 932.511 574.787 932.057 575.706C931.61 576.619 931.386 577.967 931.386 579.75C931.386 581.092 931.53 582.17 931.818 582.985C932.26 584.229 933.013 584.851 934.079 584.851ZM940.136 589.842C941.111 587.942 941.739 586.558 942.021 585.688C942.449 584.37 942.664 582.826 942.664 581.055C942.664 579.284 942.416 577.664 941.919 576.193C941.613 575.286 941.01 573.981 940.109 572.278H941.221C942.165 573.785 942.734 574.716 942.93 575.072C943.133 575.421 943.35 575.905 943.583 576.524C943.877 577.29 944.086 578.047 944.208 578.794C944.337 579.542 944.401 580.262 944.401 580.954C944.401 582.768 944.113 584.385 943.537 585.807C943.176 586.72 942.425 588.065 941.285 589.842H940.136Z" fill="black"/>
<path fill-rule="evenodd" clip-rule="evenodd" d="M1339.36 593.89C1339.82 593.424 1340.05 592.873 1340.05 592.235C1340.05 591.586 1339.83 591.034 1339.37 590.581L1333.07 584.276C1334.59 582.082 1335.35 579.637 1335.35 576.941C1335.35 575.189 1335.01 573.513 1334.33 571.914C1333.65 570.314 1332.73 568.936 1331.57 567.778C1330.41 566.619 1329.03 565.7 1327.43 565.02C1325.84 564.34 1324.16 564 1322.41 564C1320.65 564 1318.98 564.34 1317.38 565.02C1315.78 565.7 1314.4 566.619 1313.24 567.778C1312.09 568.936 1311.17 570.314 1310.49 571.914C1309.81 573.513 1309.47 575.189 1309.47 576.941C1309.47 578.694 1309.81 580.369 1310.49 581.969C1311.17 583.568 1312.09 584.947 1313.24 586.105C1314.4 587.263 1315.78 588.182 1317.38 588.862C1318.98 589.542 1320.65 589.882 1322.41 589.882C1325.1 589.882 1327.55 589.123 1329.74 587.603L1336.05 593.89C1336.49 594.355 1337.04 594.588 1337.7 594.588C1338.34 594.588 1338.89 594.355 1339.36 593.89ZM1328.22 571.123C1329.83 572.735 1330.64 574.674 1330.64 576.941C1330.64 579.208 1329.83 581.148 1328.22 582.759C1326.61 584.371 1324.67 585.176 1322.4 585.176C1320.14 585.176 1318.2 584.371 1316.59 582.759C1314.97 581.148 1314.17 579.208 1314.17 576.941C1314.17 574.674 1314.97 572.735 1316.59 571.123C1318.2 569.512 1320.14 568.706 1322.4 568.706C1324.67 568.706 1326.61 569.512 1328.22 571.123Z" fill="black"/>
<path fill-rule="evenodd" clip-rule="evenodd" d="M830.56 438.148C831.874 438.677 832.923 439.51 833.707 440.648L839.119 434.942C837.472 433.412 835.619 432.314 833.56 431.648C831.501 430.981 829.374 430.648 827.178 430.648C825.256 430.648 823.374 430.903 821.531 431.412C819.687 431.922 818.05 432.697 816.619 433.736C815.187 434.775 814.031 436.079 813.148 437.648C812.266 439.216 811.825 441.079 811.825 443.236C811.825 445.707 812.315 447.677 813.295 449.148C814.276 450.618 815.491 451.795 816.942 452.677C818.393 453.559 819.981 454.256 821.707 454.765C823.432 455.275 825.021 455.814 826.472 456.383C827.923 456.952 829.138 457.648 830.119 458.471C831.099 459.295 831.589 460.471 831.589 462.001C831.589 462.942 831.374 463.775 830.942 464.501C830.511 465.226 829.942 465.824 829.236 466.295C828.531 466.765 827.746 467.118 826.883 467.354C826.021 467.589 825.158 467.707 824.295 467.707C822.648 467.707 821.089 467.324 819.619 466.559C818.148 465.795 816.962 464.726 816.06 463.354L810.472 468.765C812.197 470.805 814.256 472.256 816.648 473.118C819.04 473.981 821.531 474.412 824.119 474.412C826.158 474.412 828.099 474.138 829.942 473.589C831.785 473.04 833.403 472.216 834.795 471.118C836.187 470.02 837.295 468.638 838.119 466.971C838.942 465.305 839.354 463.354 839.354 461.118C839.354 458.648 838.864 456.667 837.883 455.177C836.903 453.687 835.687 452.491 834.236 451.589C832.785 450.687 831.197 449.981 829.472 449.471C827.746 448.961 826.158 448.432 824.707 447.883C823.256 447.334 822.04 446.687 821.06 445.942C820.08 445.197 819.589 444.118 819.589 442.707C819.589 441.765 819.785 440.952 820.178 440.265C820.57 439.579 821.089 439.02 821.736 438.589C822.383 438.158 823.109 437.844 823.913 437.648C824.717 437.452 825.55 437.354 826.413 437.354C827.864 437.354 829.246 437.618 830.56 438.148ZM802.885 464.853C803.747 462.834 804.179 460.569 804.179 458.059V431.706H796.767V457.824C796.767 458.844 796.61 459.912 796.296 461.03C795.983 462.148 795.463 463.177 794.738 464.118C794.012 465.059 793.051 465.834 791.855 466.442C790.659 467.049 789.179 467.353 787.414 467.353C785.649 467.353 784.169 467.049 782.973 466.442C781.777 465.834 780.816 465.059 780.091 464.118C779.365 463.177 778.845 462.148 778.532 461.03C778.218 459.912 778.061 458.844 778.061 457.824V431.706H770.649V458.059C770.649 460.569 771.071 462.834 771.914 464.853C772.757 466.873 773.934 468.589 775.444 470C776.953 471.412 778.728 472.5 780.767 473.265C782.806 474.03 785.022 474.412 787.414 474.412C789.806 474.412 792.022 474.03 794.061 473.265C796.1 472.5 797.865 471.412 799.355 470C800.845 468.589 802.022 466.873 802.885 464.853ZM863.472 431.706H847.061V473.353H862.59C865.1 473.353 867.659 472.932 870.266 472.089C872.874 471.246 875.247 469.971 877.384 468.265C879.521 466.559 881.266 464.402 882.619 461.795C883.972 459.187 884.649 456.098 884.649 452.53C884.649 449 884.061 445.932 882.884 443.324C881.708 440.716 880.139 438.549 878.178 436.824C876.217 435.098 873.963 433.814 871.414 432.971C868.865 432.128 866.217 431.706 863.472 431.706ZM866.557 465.854C864.498 466.383 862.312 466.648 859.998 466.648H854.469V438.412H861.234C863.508 438.412 865.596 438.677 867.498 439.207C869.4 439.736 871.047 440.559 872.439 441.677C873.832 442.795 874.92 444.256 875.704 446.059C876.488 447.863 876.881 450.02 876.881 452.53C876.881 455.079 876.439 457.246 875.557 459.03C874.675 460.814 873.469 462.265 871.939 463.383C870.41 464.501 868.616 465.324 866.557 465.854ZM910.439 473.378H901.806V454.321C892.089 453.88 884.821 451.952 884.821 449.664C884.821 447.375 892.089 445.407 901.806 444.966V439.746H889.84V431.796H922.364V439.746H910.439V444.966C920.116 445.407 927.423 447.335 927.423 449.623C927.423 451.912 920.116 453.84 910.439 454.281V473.378ZM910.44 445.568V451.391C910.199 451.431 908.874 451.511 906.184 451.511C903.975 451.511 902.369 451.431 901.807 451.391V445.568C893.214 445.97 886.83 447.456 886.83 449.222C886.83 450.989 893.214 452.515 901.807 452.876C902.369 452.916 903.935 452.957 906.144 452.957C908.283 452.957 909.537 452.909 910.108 452.887C910.276 452.88 910.385 452.876 910.44 452.876C918.992 452.515 925.377 450.989 925.377 449.222C925.377 447.456 918.992 445.93 910.44 445.568Z" fill="black"/>
<path fill-rule="evenodd" clip-rule="evenodd" d="M981.526 428.883H988.585V473.354H981.526V428.883ZM943.941 431.707H960.177C961.745 431.707 963.294 431.893 964.824 432.265C966.353 432.638 967.716 433.246 968.912 434.089C970.108 434.932 971.079 436.02 971.824 437.354C972.569 438.687 972.941 440.295 972.941 442.177C972.941 444.53 972.275 446.471 970.941 448.001C969.608 449.53 967.863 450.628 965.706 451.295V451.412C967 451.569 968.206 451.932 969.324 452.501C970.441 453.069 971.392 453.795 972.177 454.677C972.961 455.56 973.579 456.579 974.03 457.736C974.481 458.893 974.706 460.138 974.706 461.471C974.706 463.746 974.255 465.638 973.353 467.148C972.451 468.658 971.265 469.873 969.794 470.795C968.324 471.716 966.637 472.373 964.736 472.765C962.834 473.158 960.902 473.354 958.941 473.354H943.941V431.707ZM951.349 448.648H958.113C960.584 448.648 962.437 448.167 963.672 447.207C964.907 446.246 965.525 444.981 965.525 443.413C965.525 441.609 964.888 440.265 963.613 439.383C962.339 438.501 960.29 438.06 957.466 438.06H951.349V448.648ZM958.172 467.001H951.349V455.001H958.466C961.486 455.001 963.711 455.432 965.143 456.295C966.574 457.158 967.29 458.687 967.29 460.883C967.29 462.256 966.996 463.344 966.407 464.148C965.819 464.952 965.074 465.569 964.172 466.001C963.27 466.432 962.28 466.707 961.202 466.824C960.123 466.942 959.113 467.001 958.172 467.001ZM1014.35 469.471H1014.17C1013.15 471.079 1011.86 472.246 1010.29 472.971C1008.72 473.697 1006.99 474.06 1005.11 474.06C1003.82 474.06 1002.55 473.883 1001.32 473.53C1000.08 473.177 998.985 472.648 998.024 471.942C997.063 471.236 996.289 470.354 995.701 469.295C995.112 468.236 994.818 467.001 994.818 465.589C994.818 464.06 995.093 462.756 995.642 461.677C996.191 460.599 996.926 459.697 997.848 458.971C998.769 458.246 999.838 457.667 1001.05 457.236C1002.27 456.805 1003.53 456.481 1004.85 456.266C1006.16 456.05 1007.49 455.913 1008.82 455.854C1010.15 455.795 1011.41 455.766 1012.58 455.766H1014.35V455.001C1014.35 453.236 1013.74 451.913 1012.52 451.03C1011.31 450.148 1009.76 449.707 1007.88 449.707C1006.39 449.707 1004.99 449.971 1003.7 450.501C1002.41 451.03 1001.29 451.746 1000.35 452.648L996.642 448.942C998.211 447.334 1000.04 446.177 1002.14 445.471C1004.24 444.766 1006.41 444.413 1008.64 444.413C1010.64 444.413 1012.33 444.638 1013.7 445.089C1015.07 445.54 1016.21 446.118 1017.11 446.824C1018.01 447.53 1018.71 448.344 1019.2 449.266C1019.69 450.187 1020.04 451.118 1020.26 452.06C1020.48 453.001 1020.6 453.913 1020.64 454.795C1020.68 455.677 1020.7 456.452 1020.7 457.118V473.354H1014.35V469.471ZM1013.93 460.707H1012.46C1011.48 460.707 1010.38 460.746 1009.17 460.824C1007.95 460.903 1006.81 461.089 1005.73 461.383C1004.65 461.677 1003.74 462.109 1002.99 462.677C1002.25 463.246 1001.87 464.04 1001.87 465.06C1001.87 465.726 1002.02 466.285 1002.32 466.736C1002.61 467.187 1002.99 467.57 1003.46 467.883C1003.93 468.197 1004.46 468.422 1005.05 468.56C1005.64 468.697 1006.23 468.766 1006.82 468.766C1009.25 468.766 1011.04 468.187 1012.2 467.03C1013.35 465.873 1013.93 464.295 1013.93 462.295V460.707ZM1047.59 453.589C1046.76 452.726 1045.9 452.04 1045 451.53C1044.1 451.02 1043.17 450.766 1042.23 450.766C1040.94 450.766 1039.78 451.001 1038.76 451.471C1037.74 451.942 1036.87 452.569 1036.14 453.354C1035.42 454.138 1034.87 455.04 1034.5 456.06C1034.12 457.079 1033.94 458.138 1033.94 459.236C1033.94 460.334 1034.12 461.393 1034.5 462.413C1034.87 463.432 1035.42 464.334 1036.14 465.118C1036.87 465.903 1037.74 466.53 1038.76 467.001C1039.78 467.471 1040.94 467.707 1042.23 467.707C1043.33 467.707 1044.35 467.481 1045.29 467.03C1046.23 466.579 1047.04 465.922 1047.7 465.06L1052.41 470.118C1051.7 470.824 1050.89 471.432 1049.97 471.942C1049.05 472.452 1048.12 472.864 1047.17 473.177C1046.23 473.491 1045.33 473.717 1044.47 473.854C1043.61 473.991 1042.86 474.06 1042.23 474.06C1040.12 474.06 1038.12 473.707 1036.23 473.001C1034.35 472.295 1032.72 471.295 1031.35 470.001C1029.98 468.707 1028.89 467.148 1028.09 465.324C1027.28 463.501 1026.88 461.471 1026.88 459.236C1026.88 457.001 1027.28 454.971 1028.09 453.148C1028.89 451.324 1029.98 449.766 1031.35 448.471C1032.72 447.177 1034.35 446.177 1036.23 445.471C1038.12 444.766 1040.12 444.413 1042.23 444.413C1044.04 444.413 1045.85 444.756 1047.67 445.442C1049.5 446.128 1051.1 447.217 1052.47 448.707L1047.59 453.589ZM1063.7 428.883H1056.64V473.354H1063.7V458.942H1063.82L1075.05 473.354H1084.41L1071.53 457.942L1083.64 445.119H1074.58L1063.7 456.824V428.883ZM1088.88 431.707H1096.29V466.648H1114V473.354H1088.88V431.707ZM1117.89 435.53C1117.89 434.393 1118.31 433.403 1119.15 432.56C1119.99 431.716 1121.06 431.295 1122.36 431.295C1123.65 431.295 1124.74 431.697 1125.62 432.501C1126.5 433.305 1126.94 434.315 1126.94 435.53C1126.94 436.746 1126.5 437.756 1125.62 438.56C1124.74 439.364 1123.65 439.766 1122.36 439.766C1121.06 439.766 1119.99 439.344 1119.15 438.501C1118.31 437.658 1117.89 436.667 1117.89 435.53ZM1118.88 445.119H1125.94V473.354H1118.88V445.119ZM1149.12 452.942C1147.75 451.02 1145.9 450.06 1143.59 450.06C1142.65 450.06 1141.73 450.295 1140.82 450.766C1139.92 451.236 1139.47 452.001 1139.47 453.06C1139.47 453.922 1139.84 454.55 1140.59 454.942C1141.33 455.334 1142.28 455.668 1143.41 455.942C1144.55 456.217 1145.78 456.501 1147.09 456.795C1148.4 457.089 1149.63 457.54 1150.77 458.148C1151.9 458.756 1152.84 459.589 1153.59 460.648C1154.33 461.707 1154.71 463.158 1154.71 465.001C1154.71 466.687 1154.34 468.109 1153.62 469.266C1152.89 470.422 1151.95 471.354 1150.79 472.06C1149.64 472.766 1148.33 473.275 1146.88 473.589C1145.43 473.903 1143.98 474.06 1142.53 474.06C1140.33 474.06 1138.31 473.746 1136.47 473.118C1134.63 472.491 1132.98 471.354 1131.53 469.707L1136.24 465.295C1137.14 466.315 1138.11 467.148 1139.15 467.795C1140.19 468.442 1141.45 468.766 1142.94 468.766C1143.45 468.766 1143.98 468.707 1144.53 468.589C1145.08 468.471 1145.59 468.275 1146.06 468.001C1146.53 467.726 1146.91 467.383 1147.21 466.971C1147.5 466.56 1147.65 466.079 1147.65 465.53C1147.65 464.55 1147.28 463.824 1146.53 463.354C1145.79 462.883 1144.84 462.501 1143.71 462.207C1142.57 461.913 1141.34 461.638 1140.03 461.383C1138.72 461.128 1137.49 460.717 1136.35 460.148C1135.22 459.579 1134.28 458.785 1133.53 457.766C1132.79 456.746 1132.41 455.334 1132.41 453.53C1132.41 451.962 1132.74 450.599 1133.38 449.442C1134.03 448.285 1134.88 447.334 1135.94 446.589C1137 445.844 1138.22 445.295 1139.59 444.942C1140.96 444.589 1142.35 444.413 1143.77 444.413C1145.65 444.413 1147.51 444.736 1149.35 445.383C1151.2 446.03 1152.69 447.138 1153.82 448.707L1149.12 452.942ZM1156.88 445.118V451.118H1162.7V464.06C1162.7 465.707 1162.83 467.158 1163.09 468.412C1163.34 469.667 1163.81 470.716 1164.5 471.56C1165.18 472.403 1166.12 473.03 1167.32 473.442C1168.52 473.854 1170.06 474.06 1171.94 474.06C1172.76 474.06 1173.71 473.991 1174.79 473.854C1175.87 473.716 1176.78 473.471 1177.53 473.118V467.177C1177.1 467.491 1176.51 467.716 1175.76 467.854C1175.02 467.991 1174.33 468.06 1173.7 468.06C1172.13 468.06 1171.09 467.648 1170.56 466.824C1170.03 466.001 1169.76 464.883 1169.76 463.471V451.118H1177.53V445.118H1169.76V436.942H1162.7V445.118H1156.88Z" fill="black"/>
<path d="M372 207.783V278.391H1574V207.783H811.261C802.616 207.783 795.609 200.775 795.609 192.13V176.478C795.609 169.275 789.769 163.435 782.565 163.435H505.391C498.188 163.435 492.348 169.275 492.348 176.478V192.13C492.348 200.775 485.34 207.783 476.696 207.783H372Z" fill="#F4F4F4" stroke="black" stroke-width="2" stroke-linecap="round" stroke-linejoin="round"/>
<path d="M372 193V300.5" stroke="black" stroke-width="2"/>
<circle cx="408.219" cy="181.695" r="7.82609" fill="#E0E0E0"/>
<circle cx="434.303" cy="181.695" r="7.82609" fill="#E0E0E0"/>
<circle cx="460.387" cy="181.695" r="7.82609" fill="#E0E0E0"/>
<path d="M536.095 186.241V178.526H538.282V186.241C538.282 187.852 539.333 188.768 540.944 188.768C542.555 188.768 543.623 187.852 543.623 186.224V178.526H545.811V186.241C545.811 188.937 543.861 190.769 540.961 190.769C538.045 190.769 536.095 188.937 536.095 186.241ZM547.785 189.124L548.972 187.479C548.972 187.479 550.277 188.751 551.973 188.751C552.889 188.751 553.719 188.276 553.719 187.293C553.719 185.139 548.039 185.512 548.039 181.816C548.039 179.815 549.769 178.323 552.075 178.323C554.449 178.323 555.669 179.611 555.669 179.611L554.72 181.392C554.72 181.392 553.567 180.34 552.058 180.34C551.04 180.34 550.243 180.934 550.243 181.782C550.243 183.918 555.907 183.393 555.907 187.242C555.907 189.158 554.449 190.769 551.939 190.769C549.26 190.769 547.785 189.124 547.785 189.124ZM558.089 190.565V178.526H562.193C565.906 178.526 568.331 180.73 568.331 184.529C568.331 188.327 565.906 190.565 562.193 190.565H558.089ZM560.277 188.683H562.074C564.516 188.683 566.076 187.242 566.076 184.529C566.076 181.85 564.482 180.408 562.074 180.408H560.277V188.683ZM573.034 190.565V180.408H569.083V178.526H579.173V180.408H575.222V190.565H573.034ZM584.882 190.565V178.526H589.189C591.359 178.526 592.902 179.645 592.902 181.629C592.902 182.748 592.36 183.715 591.444 184.206V184.24C592.767 184.63 593.394 185.851 593.394 187.072C593.394 189.48 591.461 190.565 589.24 190.565H584.882ZM587.069 183.443H589.189C590.138 183.443 590.681 182.765 590.681 181.9C590.681 181.036 590.172 180.408 589.155 180.408H587.069V183.443ZM587.069 188.683H589.409C590.528 188.683 591.156 187.954 591.156 186.936C591.156 185.936 590.511 185.207 589.409 185.207H587.069V188.683ZM595.303 187.869V178.526H597.44V187.547C597.44 188.496 597.762 188.734 598.322 188.734C598.491 188.734 598.644 188.717 598.644 188.717V190.599C598.644 190.599 598.322 190.65 597.966 190.65C596.779 190.65 595.303 190.345 595.303 187.869ZM599.512 188.073C599.512 185.326 603.225 185.139 604.633 185.139H604.921V185.02C604.921 183.884 604.209 183.494 603.259 183.494C602.021 183.494 600.885 184.325 600.885 184.325L600.071 182.782C600.071 182.782 601.411 181.714 603.463 181.714C605.735 181.714 607.057 182.969 607.057 185.156V190.565H605.073V189.853C605.073 189.514 605.107 189.243 605.107 189.243H605.073C605.09 189.243 604.412 190.769 602.445 190.769C600.902 190.769 599.512 189.802 599.512 188.073ZM601.682 187.971C601.682 188.547 602.106 189.09 602.988 189.09C604.124 189.09 604.938 187.869 604.938 186.818V186.614H604.565C603.463 186.614 601.682 186.767 601.682 187.971ZM608.671 186.241C608.671 183.783 610.503 181.714 613.368 181.714C615.623 181.714 616.692 183.003 616.692 183.003L615.742 184.478C615.742 184.478 614.843 183.545 613.487 183.545C611.893 183.545 610.859 184.749 610.859 186.224C610.859 187.683 611.91 188.937 613.555 188.937C615.013 188.937 616.098 187.835 616.098 187.835L616.929 189.361C616.929 189.361 615.691 190.769 613.368 190.769C610.503 190.769 608.671 188.751 608.671 186.241ZM618.539 190.565V178.526H620.692V184.97H621.76L623.846 181.917H626.237L623.507 185.783V185.817L626.576 190.565H624.1L621.811 186.784H620.692V190.565H618.539ZM628.234 190.565V178.526H630.421V188.683H635.627V190.565H628.234ZM637.035 180.442V178.526H639.172V180.442H637.035ZM637.035 190.565V181.917H639.189V190.565H637.035ZM640.827 189.497L641.81 187.988C641.81 187.988 642.76 188.937 644.167 188.937C644.777 188.937 645.303 188.666 645.303 188.157C645.303 186.869 641.098 187.038 641.098 184.257C641.098 182.646 642.539 181.714 644.404 181.714C646.354 181.714 647.304 182.697 647.304 182.697L646.507 184.291C646.507 184.291 645.71 183.545 644.387 183.545C643.828 183.545 643.285 183.783 643.285 184.325C643.285 185.546 647.491 185.393 647.491 188.174C647.491 189.616 646.236 190.769 644.184 190.769C642.031 190.769 640.827 189.497 640.827 189.497ZM649.596 187.394V183.766H648.477V182.053H649.647V179.56H651.749V182.053H653.716V183.766H651.749V187.123C651.749 188.547 652.868 188.751 653.462 188.751C653.699 188.751 653.852 188.717 653.852 188.717V190.599C653.852 190.599 653.597 190.65 653.19 190.65C651.987 190.65 649.596 190.294 649.596 187.394Z" fill="black"/>
<path d="M770.832 181.087L779.31 189.565" stroke="#C4C4C4" stroke-width="2.6087" stroke-linecap="round" stroke-linejoin="round"/>
<path d="M779.309 181.087L770.83 189.565" stroke="#C4C4C4" stroke-width="2.6087" stroke-linecap="round" stroke-linejoin="round"/>
<path d="M816.477 185.002H828.993" stroke="#C4C4C4" stroke-width="2.6087" stroke-linecap="round" stroke-linejoin="round"/>
<path d="M823 178.479V190.997" stroke="#C4C4C4" stroke-width="2.6087" stroke-linecap="round" stroke-linejoin="round"/>
<path d="M401.699 235.26L395.178 241.782L401.699 248.304" stroke="#C4C4C4" stroke-width="2.6087" stroke-linecap="round" stroke-linejoin="round"/>
<path d="M409.526 241.782H395.178" stroke="#C4C4C4" stroke-width="2.6087" stroke-linecap="round" stroke-linejoin="round"/>
<path d="M449.955 235.261L456.477 241.782L449.955 248.304" stroke="#C4C4C4" stroke-width="2.6087" stroke-linecap="round" stroke-linejoin="round"/>
<path d="M442.129 241.782H456.477" stroke="#C4C4C4" stroke-width="2.6087" stroke-linecap="round" stroke-linejoin="round"/>
<rect x="491" y="222" width="1062" height="42" rx="21" stroke="black" stroke-width="2"/>
<path d="M508.533 248.652V236.613H510.686V240.784C510.686 241.208 510.652 241.513 510.652 241.513H510.686C511.11 240.683 512.161 239.801 513.67 239.801C515.587 239.801 516.672 240.801 516.672 243.09V248.652H514.535V243.531C514.535 242.48 514.264 241.768 513.162 241.768C512.026 241.768 511.144 242.514 510.822 243.565C510.72 243.904 510.686 244.277 510.686 244.684V248.652H508.533ZM519.305 245.481V241.853H518.186V240.14H519.356V237.647H521.458V240.14H523.425V241.853H521.458V245.21C521.458 246.634 522.577 246.838 523.171 246.838C523.408 246.838 523.561 246.804 523.561 246.804V248.686C523.561 248.686 523.307 248.737 522.9 248.737C521.696 248.737 519.305 248.381 519.305 245.481ZM525.697 245.481V241.853H524.578V240.14H525.748V237.647H527.85V240.14H529.817V241.853H527.85V245.21C527.85 246.634 528.969 246.838 529.563 246.838C529.8 246.838 529.953 246.804 529.953 246.804V248.686C529.953 248.686 529.698 248.737 529.291 248.737C528.088 248.737 525.697 248.381 525.697 245.481ZM531.715 252.043V240.004H533.682V240.632C533.682 240.954 533.648 241.225 533.648 241.225H533.682C533.682 241.225 534.428 239.801 536.463 239.801C538.803 239.801 540.295 241.649 540.295 244.328C540.295 247.075 538.617 248.856 536.345 248.856C534.632 248.856 533.869 247.669 533.869 247.669H533.835C533.835 247.669 533.869 247.974 533.869 248.415V252.043H531.715ZM533.801 244.379C533.801 245.719 534.53 247.041 535.955 247.041C537.141 247.041 538.125 246.075 538.125 244.362C538.125 242.717 537.243 241.649 535.971 241.649C534.852 241.649 533.801 242.463 533.801 244.379ZM541.352 247.584L542.336 246.075C542.336 246.075 543.285 247.024 544.693 247.024C545.303 247.024 545.829 246.753 545.829 246.244C545.829 244.956 541.624 245.125 541.624 242.344C541.624 240.733 543.065 239.801 544.93 239.801C546.88 239.801 547.83 240.784 547.83 240.784L547.033 242.378C547.033 242.378 546.236 241.632 544.913 241.632C544.354 241.632 543.811 241.869 543.811 242.412C543.811 243.633 548.016 243.48 548.016 246.261C548.016 247.703 546.761 248.856 544.71 248.856C542.556 248.856 541.352 247.584 541.352 247.584ZM549.935 242.158V240.004H552.071V242.158H549.935ZM549.935 248.652V246.499H552.071V248.652H549.935ZM553.904 249.364L558.211 236.003H560.059L555.735 249.364H553.904ZM560.859 249.364L565.166 236.003H567.014L562.69 249.364H560.859ZM570.239 248.652L567.593 240.004H569.865L571.375 245.685C571.493 246.143 571.544 246.6 571.544 246.6H571.578C571.578 246.6 571.663 246.143 571.782 245.685L573.375 240.021H575.292L576.885 245.685C577.004 246.143 577.072 246.6 577.072 246.6H577.106C577.106 246.6 577.174 246.143 577.292 245.685L578.802 240.004H581.04L578.412 248.652H576.021L574.562 243.718C574.427 243.26 574.342 242.785 574.342 242.785H574.308C574.308 242.785 574.24 243.26 574.105 243.718L572.646 248.652H570.239ZM584.165 248.652L581.519 240.004H583.792L585.301 245.685C585.419 246.143 585.47 246.6 585.47 246.6H585.504C585.504 246.6 585.589 246.143 585.708 245.685L587.302 240.021H589.218L590.812 245.685C590.93 246.143 590.998 246.6 590.998 246.6H591.032C591.032 246.6 591.1 246.143 591.219 245.685L592.728 240.004H594.966L592.338 248.652H589.947L588.489 243.718C588.353 243.26 588.268 242.785 588.268 242.785H588.234C588.234 242.785 588.166 243.26 588.031 243.718L586.573 248.652H584.165ZM598.091 248.652L595.446 240.004H597.718L599.227 245.685C599.346 246.143 599.397 246.6 599.397 246.6H599.43C599.43 246.6 599.515 246.143 599.634 245.685L601.228 240.021H603.144L604.738 245.685C604.857 246.143 604.924 246.6 604.924 246.6H604.958C604.958 246.6 605.026 246.143 605.145 245.685L606.654 240.004H608.892L606.264 248.652H603.873L602.415 243.718C602.279 243.26 602.194 242.785 602.194 242.785H602.16C602.16 242.785 602.093 243.26 601.957 243.718L600.499 248.652H598.091ZM610.038 248.652V246.499H612.191V248.652H610.038ZM614.359 245.566V240.004H616.513V245.125C616.513 246.176 616.784 246.889 617.852 246.889C619.412 246.889 620.277 245.515 620.277 243.972V240.004H622.43V248.652H620.362V247.669C620.362 247.329 620.396 247.058 620.396 247.058H620.362C619.938 247.957 618.836 248.856 617.36 248.856C615.512 248.856 614.359 247.923 614.359 245.566ZM624.082 247.584L625.065 246.075C625.065 246.075 626.015 247.024 627.422 247.024C628.032 247.024 628.558 246.753 628.558 246.244C628.558 244.956 624.353 245.125 624.353 242.344C624.353 240.733 625.794 239.801 627.659 239.801C629.609 239.801 630.559 240.784 630.559 240.784L629.762 242.378C629.762 242.378 628.965 241.632 627.642 241.632C627.083 241.632 626.54 241.869 626.54 242.412C626.54 243.633 630.745 243.48 630.745 246.261C630.745 247.703 629.491 248.856 627.439 248.856C625.285 248.856 624.082 247.584 624.082 247.584ZM631.884 244.328C631.884 241.581 633.512 239.801 635.801 239.801C637.7 239.801 638.294 240.903 638.294 240.903H638.328C638.328 240.903 638.311 240.683 638.311 240.411V236.613H640.464V248.652H638.429V247.94C638.429 247.618 638.463 247.38 638.463 247.38H638.429C638.429 247.38 637.7 248.856 635.716 248.856C633.376 248.856 631.884 247.007 631.884 244.328ZM634.055 244.328C634.055 245.973 634.936 247.041 636.208 247.041C637.327 247.041 638.378 246.227 638.378 244.311C638.378 242.972 637.666 241.649 636.225 241.649C635.038 241.649 634.055 242.616 634.055 244.328ZM643.217 245.481V241.853H642.097V240.14H643.267V237.647H645.37V240.14H647.337V241.853H645.37V245.21C645.37 246.634 646.489 246.838 647.083 246.838C647.32 246.838 647.473 246.804 647.473 246.804V248.686C647.473 248.686 647.218 248.737 646.811 248.737C645.607 248.737 643.217 248.381 643.217 245.481ZM649.235 248.652V236.613H651.389V240.326C651.389 240.75 651.355 241.056 651.355 241.056H651.389C651.389 241.056 652.152 239.801 653.983 239.801C656.323 239.801 657.815 241.649 657.815 244.328C657.815 247.075 656.137 248.856 653.848 248.856C652.05 248.856 651.27 247.567 651.27 247.567H651.236C651.236 247.567 651.27 247.821 651.27 248.16V248.652H649.235ZM651.321 244.379C651.321 245.719 652.033 247.041 653.474 247.041C654.661 247.041 655.645 246.075 655.645 244.362C655.645 242.717 654.763 241.649 653.491 241.649C652.372 241.649 651.321 242.463 651.321 244.379ZM659.483 245.956V236.613H661.619V245.634C661.619 246.583 661.941 246.821 662.501 246.821C662.67 246.821 662.823 246.804 662.823 246.804V248.686C662.823 248.686 662.501 248.737 662.145 248.737C660.958 248.737 659.483 248.432 659.483 245.956ZM663.691 246.159C663.691 243.413 667.404 243.226 668.812 243.226H669.1V243.107C669.1 241.971 668.388 241.581 667.438 241.581C666.201 241.581 665.064 242.412 665.064 242.412L664.25 240.869C664.25 240.869 665.59 239.801 667.642 239.801C669.914 239.801 671.237 241.056 671.237 243.243V248.652H669.253V247.94C669.253 247.601 669.287 247.329 669.287 247.329H669.253C669.27 247.329 668.591 248.856 666.624 248.856C665.081 248.856 663.691 247.889 663.691 246.159ZM665.861 246.058C665.861 246.634 666.285 247.177 667.167 247.177C668.303 247.177 669.117 245.956 669.117 244.905V244.701H668.744C667.642 244.701 665.861 244.854 665.861 246.058ZM672.851 244.328C672.851 241.869 674.682 239.801 677.547 239.801C679.803 239.801 680.871 241.089 680.871 241.089L679.921 242.565C679.921 242.565 679.023 241.632 677.666 241.632C676.072 241.632 675.038 242.836 675.038 244.311C675.038 245.769 676.089 247.024 677.734 247.024C679.192 247.024 680.277 245.922 680.277 245.922L681.108 247.448C681.108 247.448 679.871 248.856 677.547 248.856C674.682 248.856 672.851 246.838 672.851 244.328ZM682.718 248.652V236.613H684.871V243.056H685.94L688.025 240.004H690.416L687.686 243.87V243.904L690.755 248.652H688.28L685.99 244.871H684.871V248.652H682.718ZM691.905 245.956V236.613H694.042V245.634C694.042 246.583 694.364 246.821 694.924 246.821C695.093 246.821 695.246 246.804 695.246 246.804V248.686C695.246 248.686 694.924 248.737 694.568 248.737C693.381 248.737 691.905 248.432 691.905 245.956ZM696.843 238.529V236.613H698.979V238.529H696.843ZM696.843 248.652V240.004H698.996V248.652H696.843ZM700.634 247.584L701.618 246.075C701.618 246.075 702.567 247.024 703.975 247.024C704.585 247.024 705.111 246.753 705.111 246.244C705.111 244.956 700.906 245.125 700.906 242.344C700.906 240.733 702.347 239.801 704.212 239.801C706.162 239.801 707.112 240.784 707.112 240.784L706.315 242.378C706.315 242.378 705.518 241.632 704.195 241.632C703.636 241.632 703.093 241.869 703.093 242.412C703.093 243.633 707.298 243.48 707.298 246.261C707.298 247.703 706.043 248.856 703.992 248.856C701.838 248.856 700.634 247.584 700.634 247.584ZM709.403 245.481V241.853H708.284V240.14H709.454V237.647H711.557V240.14H713.524V241.853H711.557V245.21C711.557 246.634 712.676 246.838 713.269 246.838C713.507 246.838 713.659 246.804 713.659 246.804V248.686C713.659 248.686 713.405 248.737 712.998 248.737C711.794 248.737 709.403 248.381 709.403 245.481ZM715.337 248.652V246.499H717.491V248.652H715.337ZM719.15 244.328C719.15 241.869 720.981 239.801 723.847 239.801C726.102 239.801 727.17 241.089 727.17 241.089L726.221 242.565C726.221 242.565 725.322 241.632 723.965 241.632C722.371 241.632 721.337 242.836 721.337 244.311C721.337 245.769 722.388 247.024 724.033 247.024C725.491 247.024 726.577 245.922 726.577 245.922L727.408 247.448C727.408 247.448 726.17 248.856 723.847 248.856C720.981 248.856 719.15 246.838 719.15 244.328ZM728.373 244.328C728.373 241.683 730.492 239.801 733.121 239.801C735.766 239.801 737.885 241.683 737.885 244.328C737.885 246.99 735.766 248.856 733.138 248.856C730.492 248.856 728.373 246.99 728.373 244.328ZM730.56 244.328C730.56 245.939 731.73 247.024 733.138 247.024C734.528 247.024 735.698 245.939 735.698 244.328C735.698 242.734 734.528 241.632 733.138 241.632C731.73 241.632 730.56 242.734 730.56 244.328ZM739.615 248.652V240.004H741.684V241.005C741.684 241.327 741.65 241.598 741.65 241.598H741.684C742.108 240.75 743.142 239.801 744.498 239.801C745.821 239.801 746.669 240.411 747.025 241.581H747.059C747.534 240.649 748.653 239.801 750.009 239.801C751.807 239.801 752.841 240.818 752.841 243.09V248.652H750.688V243.497C750.688 242.514 750.501 241.768 749.501 241.768C748.398 241.768 747.669 242.649 747.415 243.735C747.33 244.074 747.313 244.447 747.313 244.854V248.652H745.16V243.497C745.16 242.565 745.007 241.768 743.99 241.768C742.871 241.768 742.141 242.649 741.87 243.752C741.785 244.074 741.768 244.464 741.768 244.854V248.652H739.615ZM754.369 249.364L758.676 236.003H760.524L756.2 249.364H754.369Z" fill="#C4C4C4"/>
<g clip-path="url(#clip0_112_2999)">
<circle cx="514.526" cy="184.347" r="11.087" fill="black"/>
<path d="M519.751 181.208V178.619H509.322V181.208H513.167V182.97C510.041 183.113 507.688 183.739 507.688 184.49C507.688 185.242 510.041 185.868 513.167 186.011L513.164 191.462H515.904L515.906 186.009C519.02 185.864 521.361 185.239 521.361 184.49C521.361 183.741 519.02 183.116 515.906 182.971V181.208L519.751 181.208ZM520.184 184.337C520.184 184.831 518.364 185.246 515.906 185.361L515.747 185.368H515.73L515.581 185.373H515.565C515.454 185.377 515.342 185.381 515.228 185.383H515.221L515.069 185.386H515.026L514.906 185.388H514.145L514.026 185.386H513.984L513.842 185.383H513.827C513.658 185.38 513.492 185.374 513.329 185.368H513.327L513.164 185.361C510.694 185.247 508.863 184.831 508.863 184.335C508.863 183.838 510.695 183.424 513.164 183.309V184.796C513.593 184.819 514.049 184.831 514.522 184.831C515.003 184.831 515.468 184.819 515.904 184.795V183.314C518.364 183.428 520.184 183.843 520.184 184.337Z" fill="white"/>
</g>
<defs>
<clipPath id="clip0_112_2999">
<rect width="22.1739" height="22.1739" fill="white" transform="translate(503.439 173.261)"/>
</clipPath>
</defs>
</svg>
