<svg width="1946" height="1028" viewBox="0 0 1946 1028" fill="none" xmlns="http://www.w3.org/2000/svg">
<g opacity="0.3">
<path fill-rule="evenodd" clip-rule="evenodd" d="M822.059 517.208L822.051 517.001L817.41 382.125H895.567C905.277 381.397 914.76 378.047 924.812 371.041L925.44 370.603L969 341.563L1012.56 370.603L1013.19 371.04C1023.24 378.047 1032.72 381.397 1042.43 382.125H1120.59L1115.95 517.017L1115.94 517.24L1115.94 517.242C1113.04 588.849 1067.07 659.135 986.114 677.64L977.975 679.5H960.026L951.886 677.64C871.162 659.188 824.956 589.608 822.059 517.208Z" fill="black" fill-opacity="0.1"/>
<path d="M821.052 517.036L821.052 517.041L821.06 517.248C823.972 590.03 870.436 660.048 951.663 678.614L959.803 680.475L959.913 680.5H960.026H977.975H978.088L978.198 680.475L986.337 678.614C1067.8 659.994 1114.03 589.268 1116.94 517.282L1116.94 517.28L1116.94 517.277L1116.94 517.276L1116.95 517.058L1116.95 517.052L1121.59 382.159L1121.63 381.125H1120.59H1042.47C1032.97 380.406 1023.67 377.127 1013.76 370.22L1013.19 371.04L1013.76 370.22L1013.13 369.782L1013.12 369.776L1013.11 369.771L969.555 340.731L969 340.361L968.446 340.731L924.886 369.771L924.877 369.777L924.869 369.782L924.241 370.22C914.33 377.127 905.028 380.406 895.529 381.125H817.41H816.375L816.411 382.159L821.052 517.036Z" stroke="black" stroke-opacity="0.26" stroke-width="2"/>
</g>
<g opacity="0.5">
<path fill-rule="evenodd" clip-rule="evenodd" d="M896.743 418.125C914.135 417.115 930.202 411.165 945.397 400.575L945.719 400.35L969 384.83L992.281 400.35L992.603 400.575C1007.8 411.165 1023.86 417.115 1041.26 418.125H1083.33L1079.97 515.671L1079.97 515.786C1077.63 573.665 1040.89 628.191 978.092 642.545L973.913 643.5H964.087L959.908 642.545C897.227 628.218 860.371 574.295 858.03 515.769L858.026 515.663L854.67 418.125H896.743Z" fill="black" fill-opacity="0.14"/>
<path d="M945.165 399.518L945.156 399.524L945.147 399.53L944.825 399.754C929.772 410.246 913.89 416.122 896.714 417.125H854.67H853.635L853.671 418.159L857.027 515.697L857.027 515.703L857.031 515.809C859.388 574.72 896.503 629.078 959.685 643.519L963.865 644.475L963.975 644.5H964.087H973.913H974.025L974.135 644.475L978.315 643.519C1041.62 629.05 1078.61 574.087 1080.97 515.827L1079.97 515.786L1080.97 515.827L1080.97 515.712L1080.97 515.706L1084.33 418.159L1084.36 417.125H1083.33H1041.29C1024.11 416.122 1008.23 410.246 993.175 399.754L992.852 399.53L992.844 399.524L992.835 399.518L969.555 383.998L969 383.628L968.445 383.998L945.165 399.518Z" stroke="black" stroke-opacity="0.24" stroke-width="2"/>
</g>
<path d="M971.447 430.43L971.438 430.424L971.43 430.418L969.555 429.168L969 428.798L968.445 429.168L966.57 430.418L966.562 430.424L966.553 430.43C946.071 444.705 923.133 453.381 897.726 454.625H894H892.965L893.001 455.659L895.001 513.784L895.001 513.79C896.766 557.929 923.904 595.861 968.152 605.975L968.262 606H968.375H969.625H969.738L969.848 605.975C1014.1 595.86 1041.23 557.425 1043 513.79L1043 513.784L1045 455.659L1045.04 454.625H1044H1040.27C1014.87 453.381 991.929 444.705 971.447 430.43Z" fill="black" fill-opacity="0.9" stroke="black" stroke-width="2"/>
<path d="M1153 515H1482" stroke="#D6D6D6" stroke-width="2"/>
<path d="M1387.5 514.5L1406.5 495.5H1450.5" stroke="#D6D6D6" stroke-width="2"/>
<path d="M1150 547H1409" stroke="#D6D6D6" stroke-width="2"/>
<path d="M1153 499H1372" stroke="#D6D6D6" stroke-width="2"/>
<path d="M1153 531H1342" stroke="#D6D6D6" stroke-width="2"/>
<path d="M1155 450H1224.5L1232 457" stroke="#D6D6D6" stroke-width="2"/>
<path d="M1153 483H1282.5L1292.5 474.5H1407.25" stroke="#D6D6D6" stroke-width="2"/>
<path d="M1155 467H1243.5L1252.75 459H1317.5" stroke="black" stroke-width="2"/>
<path d="M1142 579H1251.5L1264.25 568H1350" stroke="#D6D6D6" stroke-width="2"/>
<path d="M1128 611H1387" stroke="#D6D6D6" stroke-width="2"/>
<path d="M1147 563H1246" stroke="#D6D6D6" stroke-width="2"/>
<path d="M1135 595H1394" stroke="#D6D6D6" stroke-width="2"/>
<path d="M1112 636L1129 653H1158L1185.5 680.5H1197.5L1234.5 717.5" stroke="black" stroke-width="2"/>
<path d="M1134.5 632H1167.5L1186.5 651H1207.5L1272.5 716" stroke="#D6D6D6" stroke-width="2"/>
<path d="M1210 624L1259.5 673.5" stroke="#D6D6D6" stroke-width="2"/>
<path d="M1062 684L1090.5 712.5V729.5L1118.5 757.5" stroke="#D6D6D6" stroke-width="2"/>
<path d="M1156.5 434H1229L1249 414H1261.5L1308.5 367" stroke="#D6D6D6" stroke-width="2"/>
<path d="M1157 418H1193L1203 408H1223.5L1301 330.5" stroke="#D6D6D6" stroke-width="2"/>
<path d="M1157 401L1223 335" stroke="#D6D6D6" stroke-width="2"/>
<path d="M1084 345.5L1126.5 303H1142L1182 263" stroke="#D6D6D6" stroke-width="2"/>
<path d="M1070 345V231.5" stroke="#D6D6D6" stroke-width="2"/>
<path d="M865 345.5V242" stroke="#D6D6D6" stroke-width="2"/>
<path d="M1052.5 345V223.5L1063 213V171.5" stroke="#D6D6D6" stroke-width="2"/>
<path d="M882.5 345.5V224L872 213.5V172" stroke="#D6D6D6" stroke-width="2"/>
<path d="M1034.5 341V238L1042 230.5V115.5" stroke="black" stroke-width="2"/>
<path d="M900.5 342.5V238.5L893 231V126" stroke="#D6D6D6" stroke-width="2"/>
<path d="M1017 329V265.5" stroke="#D6D6D6" stroke-width="2"/>
<path d="M918 330.5V266" stroke="#D6D6D6" stroke-width="2"/>
<path d="M1000 318V246.5L1014.5 232V175" stroke="#D6D6D6" stroke-width="2"/>
<path d="M935 319.5V248L920.5 233.5V176.5" stroke="#D6D6D6" stroke-width="2"/>
<path d="M1181.5 404L1202 383.5H1215.5L1257.5 341.5V324L1270.5 311" stroke="#D6D6D6" stroke-width="2"/>
<path d="M1080.5 328.5L1103 306V289.5L1128 264.5" stroke="#D6D6D6" stroke-width="2"/>
<path d="M1125.5 292L1181 236.5" stroke="#D6D6D6" stroke-width="2"/>
<path d="M1137.5 345.5L1158 325H1174.5L1247.5 252" stroke="#D6D6D6" stroke-width="2"/>
<path d="M1112 345.5L1137.5 320" stroke="#D6D6D6" stroke-width="2"/>
<path d="M1158.5 367.5L1286 240" stroke="black" stroke-width="2"/>
<path d="M785.5 515H466.5" stroke="#D6D6D6" stroke-width="2"/>
<path d="M576.5 515.5L562 530H528.5" stroke="#D6D6D6" stroke-width="2"/>
<path d="M788.5 547H499.5" stroke="#D6D6D6" stroke-width="2"/>
<path d="M784.5 499H566.5" stroke="black" stroke-width="2"/>
<path d="M785.5 531H596.5" stroke="#D6D6D6" stroke-width="2"/>
<path d="M783.5 451H714L706.5 458" stroke="#D6D6D6" stroke-width="2"/>
<path d="M784.5 483H656L646 474.5H531.25" stroke="#D6D6D6" stroke-width="2"/>
<path d="M783.5 467H695L685.75 459H621" stroke="#D6D6D6" stroke-width="2"/>
<path d="M796.5 579H687L674.25 568H588.5" stroke="#D6D6D6" stroke-width="2"/>
<path d="M810.5 611H551.5" stroke="#D6D6D6" stroke-width="2"/>
<path d="M696 611.5L674 633.5H614" stroke="#D6D6D6" stroke-width="2"/>
<path d="M791.5 563H692.5" stroke="black" stroke-width="2"/>
<path d="M802.5 595H514.5" stroke="#D6D6D6" stroke-width="2"/>
<path d="M782 434H709.5L689.5 414H677L660 397" stroke="#D6D6D6" stroke-width="2"/>
<path d="M780.5 418H744.5L734.5 408H714L636.5 330.5" stroke="#D6D6D6" stroke-width="2"/>
<path d="M781.5 401L715.5 335" stroke="#D6D6D6" stroke-width="2"/>
<path d="M854.5 345.5L812 303H796.5L756.5 263" stroke="#D6D6D6" stroke-width="2"/>
<path d="M761 404L740.5 383.5H727L685 341.5V324L672 311" stroke="#D6D6D6" stroke-width="2"/>
<path d="M858 328.5L835.5 306V289.5L810.5 264.5" stroke="#D6D6D6" stroke-width="2"/>
<path d="M813 292L757.5 236.5" stroke="black" stroke-width="2"/>
<path d="M801 344.5L780.5 324H764L671 231" stroke="black" stroke-width="2"/>
<path d="M780 367.5L702.5 290" stroke="#D6D6D6" stroke-width="2"/>
<path d="M969 296V164.991V151.344V58" stroke="#D6D6D6" stroke-width="2"/>
<path d="M950.5 309V220.5L939 209V161.5" stroke="#D6D6D6" stroke-width="2"/>
<path d="M985 307.5V207.5L997.5 195V93" stroke="#D6D6D6" stroke-width="2"/>
<path d="M1097.5 654.5L1182.5 739.5" stroke="#D6D6D6" stroke-width="2"/>
<path d="M1081 670L1124 713V737.5L1190 803.5" stroke="#D6D6D6" stroke-width="2"/>
<path d="M1147 673L1209.5 735.5V764L1251 805.5" stroke="black" stroke-width="2"/>
<path d="M1019 706.5V779.5L1035 795.5V851.5" stroke="#D6D6D6" stroke-width="2"/>
<path d="M994 714V825L973.5 845.5V948.5" stroke="#D6D6D6" stroke-width="2"/>
<path d="M1010.5 806V887.5" stroke="#D6D6D6" stroke-width="2"/>
<path d="M961 716V819" stroke="#D6D6D6" stroke-width="2"/>
<path d="M935 711.5V833.5L950 848.5V974" stroke="black" stroke-width="2"/>
<path d="M910 703.5V776L886.5 799.5V877" stroke="#D6D6D6" stroke-width="2"/>
<path d="M913 807V852.5L928.5 868V928.5" stroke="#D6D6D6" stroke-width="2"/>
<path d="M886.5 691.5V762.5" stroke="black" stroke-width="2"/>
<path d="M864.5 676.5V835.5L843.5 856.5V900.5" stroke="#D6D6D6" stroke-width="2"/>
<path d="M1046 695V743L1033 756" stroke="#D6D6D6" stroke-width="2"/>
<path d="M1067.5 721V820.5L1053.5 834.5V907.5" stroke="#D6D6D6" stroke-width="2"/>
<path d="M1093 765L1116.5 788.5H1144L1183.5 828" stroke="#D6D6D6" stroke-width="2"/>
<path d="M1086 792L1127 833" stroke="#D6D6D6" stroke-width="2"/>
<path d="M825.5 636L808.5 653H779.5L752 680.5H740L703 717.5" stroke="black" stroke-width="2"/>
<path d="M803 632H770L751 651H730L665 716" stroke="#D6D6D6" stroke-width="2"/>
<path d="M727.5 624L678 673.5" stroke="#D6D6D6" stroke-width="2"/>
<path d="M854 705.5L847 712.5V729.5L819 757.5" stroke="#D6D6D6" stroke-width="2"/>
<path d="M840 654.5L755 739.5" stroke="#D6D6D6" stroke-width="2"/>
<path d="M856.5 670L813.5 713V737.5L747.5 803.5" stroke="#D6D6D6" stroke-width="2"/>
<path d="M790.5 673L728 735.5V764L686.5 805.5" stroke="#D6D6D6" stroke-width="2"/>
<path d="M844.5 765L821 788.5H793.5L754 828" stroke="#D6D6D6" stroke-width="2"/>
<path d="M851.5 792L810.5 833" stroke="#D6D6D6" stroke-width="2"/>
<path d="M1233 611.5L1250.5 629H1309.5" stroke="#D6D6D6" stroke-width="2"/>
<circle cx="1482" cy="515" r="4" fill="#D9D9D9"/>
<circle cx="1451" cy="495" r="4" fill="#D9D9D9"/>
<circle cx="1318" cy="459" r="4" fill="black"/>
<circle cx="1411" cy="547" r="4" fill="#D9D9D9"/>
<circle cx="1314" cy="629" r="4" fill="#D9D9D9"/>
<circle cx="1398" cy="595" r="4" fill="#D9D9D9"/>
<circle cx="1244" cy="563" r="4" fill="#D9D9D9"/>
<circle cx="1303" cy="329" r="4" fill="#D9D9D9"/>
<circle cx="1286" cy="240" r="4" fill="black"/>
<circle cx="1223" cy="335" r="4" fill="#D9D9D9"/>
<circle cx="1182" cy="263" r="4" fill="#D9D9D9"/>
<circle cx="1063" cy="171" r="4" fill="#D9D9D9"/>
<circle cx="997" cy="91" r="4" fill="#D9D9D9"/>
<circle cx="1042" cy="115" r="3.5" fill="black" stroke="black"/>
<circle cx="969" cy="58" r="4" fill="#D9D9D9"/>
<circle cx="893" cy="128" r="4" fill="#D9D9D9"/>
<circle cx="865" cy="241" r="4" fill="#D9D9D9"/>
<circle cx="872" cy="171" r="4" fill="#D9D9D9"/>
<circle cx="757" cy="236" r="3.5" fill="black" stroke="black"/>
<circle cx="672" cy="311" r="4" fill="#D9D9D9"/>
<circle cx="637" cy="331" r="4" fill="#D9D9D9"/>
<circle cx="671" cy="230" r="3.5" fill="black" stroke="black"/>
<circle cx="463" cy="515" r="4" fill="#D9D9D9"/>
<circle cx="527" cy="530" r="4" fill="#D9D9D9"/>
<circle cx="587" cy="568" r="4" fill="#D9D9D9"/>
<circle cx="618" cy="459" r="4" fill="#D9D9D9"/>
<circle cx="691" cy="563" r="3.5" fill="black" stroke="black"/>
<circle cx="614" cy="632" r="4" fill="#D9D9D9"/>
<circle cx="685" cy="807" r="4" fill="#D9D9D9"/>
<circle cx="809" cy="835" r="4" fill="#D9D9D9"/>
<circle cx="819" cy="757" r="4" fill="#D9D9D9"/>
<circle cx="664" cy="718" r="4" fill="#D9D9D9"/>
<circle cx="887" cy="764" r="3.5" fill="black" stroke="black"/>
<circle cx="928" cy="928" r="4" fill="#D9D9D9"/>
<circle cx="973" cy="951" r="4" fill="#D9D9D9"/>
<circle cx="1054" cy="908" r="4" fill="#D9D9D9"/>
<circle cx="1033" cy="757" r="4" fill="#D9D9D9"/>
<circle cx="1129" cy="835" r="4" fill="#D9D9D9"/>
<circle cx="1191" cy="805" r="4" fill="#D9D9D9"/>
<circle cx="1253" cy="807" r="3.5" fill="black" stroke="black"/>
<circle cx="1236" cy="719" r="3.5" fill="black" stroke="black"/>
<circle cx="1184" cy="741" r="4" fill="#D9D9D9"/>
<circle cx="1354" cy="568" r="4" fill="#D9D9D9"/>
<circle cx="844" cy="901" r="4" fill="#D9D9D9"/>
<circle cx="516" cy="595" r="4" fill="#D9D9D9"/>
<path d="M921.527 530L914.567 501.4H921.927L925.527 519.28C925.634 519.813 925.714 520.333 925.767 520.84C925.847 521.32 925.887 521.68 925.887 521.92V522.28H925.967C925.994 521.453 926.154 520.453 926.447 519.28L930.847 501.4H936.487L940.767 519.28C940.9 519.813 941.007 520.333 941.087 520.84C941.167 521.32 941.22 521.68 941.247 521.92V522.28H941.327C941.327 521.453 941.447 520.453 941.687 519.28L945.607 501.4H952.847L945.607 530H937.807L934.207 515.56L933.647 512.2H933.567C933.487 513.213 933.3 514.333 933.007 515.56L929.407 530H921.527ZM952.824 519.68C952.824 516.587 953.797 514.027 955.744 512C957.691 509.947 960.291 508.92 963.544 508.92C966.504 508.92 968.824 509.853 970.504 511.72C972.211 513.56 973.064 515.947 973.064 518.88C973.064 519.36 973.011 520.08 972.904 521.04H959.904C960.144 522.24 960.704 523.16 961.584 523.8C962.491 524.413 963.531 524.72 964.704 524.72C966.411 524.72 968.304 524.027 970.384 522.64L972.944 527.48C971.851 528.413 970.504 529.147 968.904 529.68C967.331 530.213 965.744 530.48 964.144 530.48C960.651 530.48 957.891 529.413 955.864 527.28C953.837 525.147 952.824 522.613 952.824 519.68ZM960.064 517.08H966.224C966.224 516.2 965.957 515.467 965.424 514.88C964.917 514.293 964.237 514 963.384 514C961.624 514 960.517 515.027 960.064 517.08ZM976.679 530V501.4H983.599V509.36L983.519 511.12H983.599C984.186 510.453 984.986 509.92 985.999 509.52C987.039 509.12 988.093 508.92 989.159 508.92C991.959 508.92 994.199 509.92 995.879 511.92C997.586 513.893 998.439 516.493 998.439 519.72C998.439 522.947 997.533 525.547 995.719 527.52C993.906 529.493 991.613 530.48 988.839 530.48C986.359 530.48 984.439 529.667 983.079 528.04H982.999C983.026 528.387 983.039 528.773 983.039 529.2V530H976.679ZM983.399 519.84C983.399 521.173 983.746 522.333 984.439 523.32C985.159 524.28 986.159 524.76 987.439 524.76C988.586 524.76 989.546 524.32 990.319 523.44C991.093 522.56 991.479 521.36 991.479 519.84C991.479 518.32 991.106 517.093 990.359 516.16C989.613 515.227 988.639 514.76 987.439 514.76C986.293 514.76 985.333 515.187 984.559 516.04C983.786 516.893 983.399 518.16 983.399 519.84ZM1000.87 526.72L1004.23 521.32C1005.99 523.027 1007.95 523.88 1010.11 523.88C1011.37 523.88 1012.35 523.613 1013.07 523.08C1013.82 522.52 1014.19 521.84 1014.19 521.04C1014.19 518.933 1012.42 517.88 1008.87 517.88H1006.87L1005.39 514.48L1009.15 509.96C1009.55 509.48 1009.95 509.013 1010.35 508.56C1010.78 508.107 1011.1 507.787 1011.31 507.6L1011.63 507.28V507.2C1011.02 507.333 1010.11 507.4 1008.91 507.4H1002.07V501.4H1020.11V505.76L1014.31 512.44C1016.42 512.893 1018.1 513.88 1019.35 515.4C1020.61 516.92 1021.23 518.693 1021.23 520.72C1021.23 523.387 1020.3 525.68 1018.43 527.6C1016.59 529.52 1013.99 530.48 1010.63 530.48C1006.61 530.48 1003.35 529.227 1000.87 526.72Z" fill="white"/>
<path d="M904.607 340.024L904.598 340.029L904.59 340.035L903.656 340.686C900.673 342.765 898.423 343.809 896.89 344.358C895.864 344.725 894.868 344.978 893.792 345.125H780.15H779.115L779.151 346.159L785.077 518.374L785.077 518.38L785.089 518.686C788.565 605.591 844.589 691.069 943.642 713.709L955.741 716.475L955.851 716.5H955.964H982.037H982.15L982.26 716.475L994.359 713.709C1093.76 690.99 1149.43 604.713 1152.91 518.738L1152.92 518.405L1152.92 518.399L1158.85 346.159L1158.89 345.125H1157.85H1044.21C1043.13 344.978 1042.14 344.725 1041.11 344.358C1039.58 343.809 1037.33 342.765 1034.34 340.686L1033.41 340.035L1033.4 340.029L1033.39 340.024L969.555 297.464L969.001 297.095L968.446 297.464L904.607 340.024Z" stroke="#D6D6D6" stroke-width="2"/>
</svg>
